<?xml version="1.0" encoding="UTF-8"?>
<svg version="1.1" xmlns="http://www.w3.org/2000/svg" width="300" height="108">
<path d="M0 0 C99 0 198 0 300 0 C300 35.64 300 71.28 300 108 C201 108 102 108 0 108 C0 72.36 0 36.72 0 0 Z " fill="#797586" transform="translate(0,0)"/>
<path d="M0 0 C99 0 198 0 300 0 C300 8.91 300 17.82 300 27 C201 27 102 27 0 27 C0 18.09 0 9.18 0 0 Z " fill="#FEFEFE" transform="translate(0,81)"/>
<path d="M0 0 C99 0 198 0 300 0 C300 8.91 300 17.82 300 27 C201 27 102 27 0 27 C0 18.09 0 9.18 0 0 Z " fill="#FEFEFE" transform="translate(0,0)"/>
<path d="M0 0 C3 1.5 3 1.5 5 3 C5 2.01 5 1.02 5 0 C6.32 0 7.64 0 9 0 C9 8.58 9 17.16 9 26 C7.68 26 6.36 26 5 26 C5 25.01 5 24.02 5 23 C4.34 23.495 3.68 23.99 3 24.5 C-0.73079945 26.36539973 -3.9656919 27.13464915 -8 26 C-11.0385 23.48537931 -13.24127556 20.51744888 -15 17 C-15.37414872 11.38776913 -15.16077934 7.85405398 -12 3 C-8.68938241 -0.67846399 -4.67663583 -0.72233187 0 0 Z " fill="#F3F3F4" transform="translate(278,41)"/>
<path d="M0 0 C2.5 1 2.5 1 4 2 C4.33 1.34 4.66 0.68 5 0 C6.32 0 7.64 0 9 0 C9 8.25 9 16.5 9 25 C7.68 25 6.36 25 5 25 C5 24.34 5 23.68 5 23 C4.525625 23.495 4.05125 23.99 3.5625 24.5 C-0.30178431 26.76202008 -3.6533548 27.11583342 -8 26 C-11.97811878 23.32130323 -14.51389041 20.17084556 -15.5703125 15.453125 C-15.82371714 9.87822301 -14.75428077 6.29060659 -11 2 C-7.29598872 -0.46934085 -4.29412135 -0.44928433 0 0 Z " fill="#F2F2F3" transform="translate(78,41)"/>
<path d="M0 0 C4.63129663 0.96205679 7.6486558 3.78466736 10.42578125 7.50390625 C12.02686696 11.45729797 11.7136251 14.6403747 10.36328125 18.69140625 C7.06093829 23.48512991 4.36603926 26.12837244 -1.44921875 27.25390625 C-5.91785115 26.90883811 -8.88135011 24.9045079 -12.05859375 21.83984375 C-14.96742473 17.35664548 -14.56537193 12.59713134 -13.57421875 7.50390625 C-10.2758188 1.81700979 -6.39903253 -0.15709572 0 0 Z " fill="#F0EFF1" transform="translate(176.57421875,40.49609375)"/>
<path d="M0 0 C1.32 0 2.64 0 4 0 C4.33 0.66 4.66 1.32 5 2 C5.66 1.34 6.32 0.68 7 0 C12.33333333 -0.33333333 12.33333333 -0.33333333 15 1 C15 1.66 15 2.32 15 3 C15.515625 2.505 16.03125 2.01 16.5625 1.5 C19.96381375 -0.59311615 22.07072743 -0.55147685 26 0 C28.703125 1.85546875 28.703125 1.85546875 31 5 C31.60739569 8.62503273 31.47237641 12.15010037 31.3125 15.8125 C31.28994141 16.79154297 31.26738281 17.77058594 31.24414062 18.77929688 C31.18539727 21.18777455 31.10332129 23.59309078 31 26 C29.35 26 27.7 26 26 26 C25.97494385 25.40461426 25.9498877 24.80922852 25.92407227 24.19580078 C25.80822506 21.50530864 25.68544804 18.8151766 25.5625 16.125 C25.52318359 15.18785156 25.48386719 14.25070313 25.44335938 13.28515625 C25.40146484 12.38925781 25.35957031 11.49335937 25.31640625 10.5703125 C25.27974854 9.74289551 25.24309082 8.91547852 25.20532227 8.06298828 C25.11761673 5.93820571 25.11761673 5.93820571 24 4 C20.70924004 4.37904208 20.70924004 4.37904208 18 6 C17.84379445 7.41327947 17.74943827 8.8335459 17.68359375 10.25390625 C17.64169922 11.10791016 17.59980469 11.96191406 17.55664062 12.84179688 C17.51732422 13.73962891 17.47800781 14.63746094 17.4375 15.5625 C17.39431641 16.46419922 17.35113281 17.36589844 17.30664062 18.29492188 C17.20021858 20.52978485 17.09820012 22.76476308 17 25 C15.68 25 14.36 25 13 25 C12.97494385 24.42967041 12.9498877 23.85934082 12.92407227 23.27172852 C12.80843451 20.70173843 12.68556376 18.13214473 12.5625 15.5625 C12.52318359 14.66466797 12.48386719 13.76683594 12.44335938 12.84179688 C12.40146484 11.98779297 12.35957031 11.13378906 12.31640625 10.25390625 C12.27974854 9.46314697 12.24309082 8.6723877 12.20532227 7.85766602 C12.19436743 5.98598559 12.19436743 5.98598559 11 5 C8.5 4.83333333 8.5 4.83333333 6 5 C4.45049732 6.54950268 4.78344807 8.09990594 4.68359375 10.25390625 C4.64169922 11.10791016 4.59980469 11.96191406 4.55664062 12.84179688 C4.49766602 14.18854492 4.49766602 14.18854492 4.4375 15.5625 C4.39431641 16.46419922 4.35113281 17.36589844 4.30664062 18.29492188 C4.20021858 20.52978485 4.09820012 22.76476308 4 25 C2.68 25 1.36 25 0 25 C0 16.75 0 8.5 0 0 Z " fill="#F0F0F1" transform="translate(210,41)"/>
<path d="M0 0 C3.625 1.5 3.625 1.5 6 3 C5.67 3.99 5.34 4.98 5 6 C4.20335937 5.75443359 4.20335937 5.75443359 3.390625 5.50390625 C0.46123236 4.88643623 -2.25822936 4.90498075 -5.25 4.9375 C-6.32765625 4.94652344 -7.4053125 4.95554687 -8.515625 4.96484375 C-9.74539062 4.98224609 -9.74539062 4.98224609 -11 5 C-10.67 6.32 -10.34 7.64 -10 9 C-9.20335937 9.09796875 -8.40671875 9.1959375 -7.5859375 9.296875 C-1.37295727 10.17364593 3.13766231 10.94805192 8 15 C7.77641602 18.87545563 7.52142114 21.32215252 5.125 24.4375 C0.45428952 26.77285524 -3.87410181 26.65197828 -9 26 C-12.6875 24.5 -12.6875 24.5 -15 23 C-15 21.68 -15 20.36 -15 19 C-10.25 19.875 -10.25 19.875 -8 21 C-6.08499697 21.15898854 -6.08499697 21.15898854 -4 21.125 C-3.29875 21.12757812 -2.5975 21.13015625 -1.875 21.1328125 C0.09153775 21.11377236 0.09153775 21.11377236 2 20 C2.65213292 17.97536745 2.65213292 17.97536745 3 16 C2.27554687 15.96261719 1.55109375 15.92523438 0.8046875 15.88671875 C-10.90987124 15.09012876 -10.90987124 15.09012876 -15 11 C-15.45601889 6.97183317 -15.64306166 4.83598016 -13.125 1.5625 C-8.70043312 -0.64978344 -4.85936673 -0.6742662 0 0 Z " fill="#EFEEF0" transform="translate(29,41)"/>
<path d="M0 0 C1.65 0 3.3 0 5 0 C5.33 0.66 5.66 1.32 6 2 C6.66 1.34 7.32 0.68 8 0 C10.171875 -0.40625 10.171875 -0.40625 12.75 -0.5 C13.59046875 -0.5515625 14.4309375 -0.603125 15.296875 -0.65625 C18.7173737 0.17416009 20.45378789 1.45908815 22.82226562 4.03027344 C25.12543649 7.88225987 24.6169371 12.02633571 24.375 16.375 C24.34792969 17.30183594 24.32085937 18.22867188 24.29296875 19.18359375 C24.22262115 21.4581663 24.12428347 23.72784319 24 26 C22.35 26 20.7 26 19 26 C18.96261719 24.73542969 18.92523438 23.47085938 18.88671875 22.16796875 C18.82106167 20.5077827 18.75461424 18.84762778 18.6875 17.1875 C18.66494141 16.35412109 18.64238281 15.52074219 18.61914062 14.66210938 C18.5659668 13.45844727 18.5659668 13.45844727 18.51171875 12.23046875 C18.48553467 11.49207764 18.45935059 10.75368652 18.43237305 9.99291992 C17.88066869 7.44997094 17.08559141 6.53159214 15 5 C11.37464024 4.7496423 11.37464024 4.7496423 8 5 C4.54576599 11.45791576 4.31558081 17.76340555 4 25 C2.68 25 1.36 25 0 25 C0 16.75 0 8.5 0 0 Z " fill="#E9E8EA" transform="translate(113,41)"/>
<path d="M0 0 C2.91963173 1.98783437 4.61102978 3.4314697 5.48046875 6.9375 C5.76091862 10.93959545 5.24214679 12.65814571 2.875 16 C-0.50263831 18.34966143 -1.97304363 18.68543938 -6 18 C-9.1359157 16.22015595 -9.84102736 15.47691793 -11 12 C-11.56338028 4.90140845 -11.56338028 4.90140845 -9.4375 1.5 C-6.00863886 -0.61006839 -3.95779649 -0.62491523 0 0 Z " fill="#7C7888" transform="translate(178,45)"/>
<path d="M0 0 C3.75 0.375 3.75 0.375 6.6875 2.3125 C9.10389479 5.90048014 9.48932693 8.03205121 9.234375 12.28125 C8.75 14.375 8.75 14.375 6.625 16.9375 C3.21952264 18.64023868 1.50138748 19.07838515 -2.25 18.375 C-5.125 16.3125 -5.125 16.3125 -7.25 13.375 C-7.96665654 8.35840424 -7.23766868 5.4382294 -4.25 1.375 C-3.25 0.375 -3.25 0.375 0 0 Z " fill="#7C7989" transform="translate(74.25,44.625)"/>
<path d="M0 0 C3.625 0.5625 3.625 0.5625 6.5625 2.5625 C8.85636937 5.89903726 9.3795711 7.66212386 9.109375 11.625 C8.24401083 15.08645669 6.48301731 16.57431405 3.625 18.5625 C-0.51724306 19.14241403 -1.85675489 18.90799674 -5.375 16.5625 C-6.97592914 11.75971257 -7.27289627 6.72801453 -5.3125 2 C-3.375 0.5625 -3.375 0.5625 0 0 Z " fill="#7B7787" transform="translate(274.375,44.4375)"/>
<path d="M0 0 C1.32 0 2.64 0 4 0 C5.19445794 5.39718034 4.92044183 10.41124431 4.5625 15.875 C4.51029297 16.75414063 4.45808594 17.63328125 4.40429688 18.5390625 C4.27552439 20.69307499 4.13858537 22.84659659 4 25 C2.68 25 1.36 25 0 25 C0 16.75 0 8.5 0 0 Z " fill="#F8F8F8" transform="translate(210,41)"/>
<path d="M0 0 C0.99 0 1.98 0 3 0 C3 1.32 3 2.64 3 4 C3.66 4 4.32 4 5 4 C4.34 10.6 3.68 17.2 3 24 C1.68 24 0.36 24 -1 24 C-1.10466648 15.92905177 -1.03387512 8.0125322 0 0 Z " fill="#FAF9FA" transform="translate(114,42)"/>
<path d="M0 0 C1.65 0 3.3 0 5 0 C6.8125 2.5 6.8125 2.5 8 5 C7.01 5.495 7.01 5.495 6 6 C5.34 5.67 4.68 5.34 4 5 C4 3.68 4 2.36 4 1 C3.01 1 2.02 1 1 1 C1 4.3 1 7.6 1 11 C0.67 11 0.34 11 0 11 C0 7.37 0 3.74 0 0 Z " fill="#E0DFE2" transform="translate(113,41)"/>
<path d="M0 0 C0.5775 0.226875 1.155 0.45375 1.75 0.6875 C0.6671875 1.30625 0.6671875 1.30625 -0.4375 1.9375 C-3.22969862 3.67486803 -5.72012585 5.59131857 -8.25 7.6875 C-6.86345583 3.41232214 -5.12511737 -0.71182186 0 0 Z " fill="#E4E3E6" transform="translate(272.25,41.3125)"/>
</svg>
