<?xml version="1.0" encoding="UTF-8"?>
<svg version="1.1" xmlns="http://www.w3.org/2000/svg" width="300" height="86">
<path d="M0 0 C0.99 0 1.98 0 3 0 C6.73595876 6.87756045 7.63698827 12.80064895 7.75 20.5625 C7.77964844 21.57119141 7.80929687 22.57988281 7.83984375 23.61914062 C7.90980668 26.0795037 7.96286189 28.53896011 8 31 C8.99 28.36 9.98 25.72 11 23 C11.99 23 12.98 23 14 23 C19.38475336 34.67264574 19.38475336 34.67264574 18.44140625 40.37890625 C17.44137836 43.0329595 16.36413374 45.51514672 15 48 C15.763125 47.319375 16.52625 46.63875 17.3125 45.9375 C18.199375 45.298125 19.08625 44.65875 20 44 C23 45 23 45 23.94921875 46.7421875 C24.19285156 47.44601563 24.43648438 48.14984375 24.6875 48.875 C25.06455078 49.92300781 25.06455078 49.92300781 25.44921875 50.9921875 C26 53 26 53 26 56 C24 57.6875 24 57.6875 22 59 C23.6396875 59.2784375 23.6396875 59.2784375 25.3125 59.5625 C29 61 29 61 30.9375 64.375 C32 68 32 68 32 72 C23.75 72 15.5 72 7 72 C7 76.62 7 81.24 7 86 C3.37 86 -0.26 86 -4 86 C-4 81.38 -4 76.76 -4 72 C-12.25 72 -20.5 72 -29 72 C-27.72727273 63.09090909 -27.72727273 63.09090909 -25 60 C-21.3125 59.1875 -21.3125 59.1875 -18 59 C-19.65 58.01 -21.3 57.02 -23 56 C-21.25 48.375 -21.25 48.375 -19 45 C-14.25 45.875 -14.25 45.875 -12 47 C-12.34675781 46.34515625 -12.69351563 45.6903125 -13.05078125 45.015625 C-15.06982174 40.58998827 -16.32823238 37.48913849 -15.2578125 32.6328125 C-14.01572082 29.5680064 -12.81042341 26.76888286 -11 24 C-10.01 23.67 -9.02 23.34 -8 23 C-7.01 25.31 -6.02 27.62 -5 30 C-4.9906543 29.44650879 -4.98130859 28.89301758 -4.97167969 28.32275391 C-4.54081453 8.02562568 -4.54081453 8.02562568 0 0 Z " fill="#777483" transform="translate(268,0)"/>
<path d="M0 0 C7.58408219 9.20654753 9.35376548 19.63167577 8.2578125 31.28125 C6.84690819 39.73501549 3.00073491 45.81904677 -3.2421875 51.59375 C-9.69335953 55.94829112 -14.48195027 56.7778962 -22.1171875 56.71875 C-23.0246875 56.73873047 -23.9321875 56.75871094 -24.8671875 56.77929688 C-32.15231698 56.77404822 -37.12369905 55.01464055 -42.9140625 50.640625 C-51.07471312 42.31837734 -53.04595369 34.34752488 -53.05688477 22.92211914 C-52.88846565 13.54545935 -50.37786562 5.87081155 -43.79296875 -0.99609375 C-31.45967186 -11.35606314 -11.75135489 -11.59326492 0 0 Z M-41.109375 10.03125 C-45.53841935 16.13443073 -45.50336934 22.97014542 -44.7421875 30.28125 C-42.69397377 37.65481943 -38.72745577 42.7085311 -32.1171875 46.59375 C-26.4640824 49.20697783 -20.47638704 49.32578134 -14.5078125 47.65625 C-8.52833306 45.06050699 -3.48242158 40.27218683 -0.86328125 34.265625 C1.37278185 26.32212813 0.78449061 18.70864783 -2.7421875 11.28125 C-6.36171055 5.38792401 -11.10324416 2.12784351 -17.7421875 0.28125 C-27.9522211 -1.24678224 -34.70659194 2.1972566 -41.109375 10.03125 Z " fill="#747080" transform="translate(208.7421875,29.71875)"/>
<path d="M0 0 C0.99 0 1.98 0 3 0 C5.6152571 6.59753689 8.22947829 13.1954836 10.84301758 19.79370117 C11.73015516 22.03305099 12.6175201 24.27231075 13.50512695 26.51147461 C15.99153312 32.78415827 18.47351588 39.05855094 20.94818115 45.33587646 C21.87135876 47.67416807 22.7995249 50.01040057 23.72900391 52.34619141 C24.41422119 54.08715088 24.41422119 54.08715088 25.11328125 55.86328125 C25.67656128 57.2850769 25.67656128 57.2850769 26.2512207 58.7355957 C27 61 27 61 27 64 C23.7 64 20.4 64 17 64 C15.02 58.555 15.02 58.555 13 53 C5.41 52.67 -2.18 52.34 -10 52 C-10.99 55.3 -11.98 58.6 -13 62 C-13.33 62.66 -13.66 63.32 -14 64 C-17.3 64 -20.6 64 -24 64 C-22.0334593 57.98200579 -19.92863961 52.05323373 -17.63671875 46.15234375 C-17.32225296 45.3373793 -17.00778717 44.52241486 -16.68379211 43.68275452 C-15.68695911 41.10025195 -14.68739961 38.51881659 -13.6875 35.9375 C-12.37782839 32.55119707 -11.06938334 29.16442219 -9.76171875 25.77734375 C-9.44476044 24.95672455 -9.12780212 24.13610535 -8.80123901 23.2906189 C-5.8151621 15.5465781 -2.89616192 7.77805023 0 0 Z M1 22 C-0.17461555 25.10121711 -1.33830456 28.20642241 -2.5 31.3125 C-2.83386719 32.19357422 -3.16773438 33.07464844 -3.51171875 33.98242188 C-3.98544922 35.25375977 -3.98544922 35.25375977 -4.46875 36.55078125 C-4.76201172 37.33106689 -5.05527344 38.11135254 -5.35742188 38.9152832 C-6.14727883 41.11423319 -6.14727883 41.11423319 -6 44 C-0.72 44 4.56 44 10 44 C8.43461965 38.5994378 6.79274417 33.24613874 4.9375 27.9375 C4.61652344 27.01839844 4.29554687 26.09929688 3.96484375 25.15234375 C3.19916941 22.83573563 3.19916941 22.83573563 1 22 Z " fill="#747080" transform="translate(62,22)"/>
<path d="M0 0 C23 0 23 0 29 4 C33.29230132 8.87234204 34.22562167 13.66297386 34 20 C33.02254964 25.82354638 30.3072619 29.18397065 25.81640625 32.87109375 C20.31030515 36.29316518 14.46180641 35 8 35 C8 44.57 8 54.14 8 64 C5.36 64 2.72 64 0 64 C0 42.88 0 21.76 0 0 Z M8 8 C8 13.94 8 19.88 8 26 C9.7325 26.04125 11.465 26.0825 13.25 26.125 C14.22453125 26.14820312 15.1990625 26.17140625 16.203125 26.1953125 C19.08170091 25.99429463 20.61784582 25.59161629 23 24 C25.50031654 20.24952518 25.53603554 18.44143734 25 14 C22.45862841 10.84045695 20.85377341 9.28459114 17 8 C14.03 8 11.06 8 8 8 Z " fill="#757181" transform="translate(97,22)"/>
<path d="M0 0 C13.86 0 27.72 0 42 0 C42 2.64 42 5.28 42 8 C36.39 8 30.78 8 25 8 C25 26.48 25 44.96 25 64 C22.03 64 19.06 64 16 64 C16 45.52 16 27.04 16 8 C10.72 8 5.44 8 0 8 C0 5.36 0 2.72 0 0 Z " fill="#757281" transform="translate(0,22)"/>
<path d="M0 0 C2.64 0 5.28 0 8 0 C8 21.12 8 42.24 8 64 C5.36 64 2.72 64 0 64 C0 42.88 0 21.76 0 0 Z " fill="#757282" transform="translate(139,22)"/>
</svg>
