<?xml version="1.0" encoding="UTF-8"?>
<svg version="1.1" xmlns="http://www.w3.org/2000/svg" width="171" height="122">
<path d="M0 0 C55.77 0 111.54 0 169 0 C169 1.32 169 2.64 169 4 C152.83 4 136.66 4 120 4 C119.67 4.99 119.34 5.98 119 7 C117.35 7.33 115.7 7.66 114 8 C113.67 8.99 113.34 9.98 113 11 C113.495 11.99 113.495 11.99 114 13 C114.375 16.3125 114.375 16.3125 114 20 C112.35353315 21.68662458 110.68816933 23.35511706 109 25 C109.04979584 27.760165 109.04979584 27.760165 110 30 C108.68 29.67 107.36 29.34 106 29 C106.99 29.99 106.99 29.99 108 31 C108.125 33.625 108.125 33.625 108 36 C107.05125 35.79375 106.1025 35.5875 105.125 35.375 C104.09375 35.25125 103.0625 35.1275 102 35 C101.01 35.99 101.01 35.99 100 37 C101.65 37.66 103.3 38.32 105 39 C105 40.32 105 41.64 105 43 C103.68 43 102.36 43 101 43 C100.814375 44.299375 100.62875 45.59875 100.4375 46.9375 C100.33308594 47.66839844 100.22867188 48.39929687 100.12109375 49.15234375 C100.08113281 49.76207031 100.04117188 50.37179688 100 51 C100.33 51.33 100.66 51.66 101 52 C101 53.65 101 55.3 101 57 C134.66 57.495 134.66 57.495 169 58 C169 58.66 169 59.32 169 60 C113.23 60 57.46 60 0 60 C0 59.34 0 58.68 0 58 C22.11 57.67 44.22 57.34 67 57 C67 55.35 67 53.7 67 52 C67.495 51.01 67.495 51.01 68 50 C67.71758117 47.6599583 67.38749213 45.32495277 67 43 C65.68 43 64.36 43 63 43 C63.33 41.35 63.66 39.7 64 38 C65.32 37.67 66.64 37.34 68 37 C65.64561267 35.57055055 64.51967567 34.91338739 61.75 35.375 C61.1725 35.58125 60.595 35.7875 60 36 C59.6875 33.6875 59.6875 33.6875 60 31 C62.5 29.1875 62.5 29.1875 65 28 C62.69 28.66 60.38 29.32 58 30 C58.2475 29.2575 58.495 28.515 58.75 27.75 C58.8325 26.8425 58.915 25.935 59 25 C58.38125 24.38125 57.7625 23.7625 57.125 23.125 C54.22478053 20.22478053 54.21551322 18.02291352 54 14 C54.29044914 12.65667272 54.60955794 11.31774196 55 10 C54.10664203 7.64214682 54.10664203 7.64214682 50.9375 6.875 C49.4834375 6.441875 49.4834375 6.441875 48 6 C48 5.34 48 4.68 48 4 C32.16 4 16.32 4 0 4 C0 2.68 0 1.36 0 0 Z M63 10 C67 11 67 11 67 11 Z M101 10 C105 11 105 11 105 11 Z M69 12 C70 14 70 14 70 14 Z M98 12 C98 15 98 15 98 15 Z M71 15 C72 17 72 17 72 17 Z M96 15 C97 17 97 17 97 17 Z M108 15 C109 18 109 18 109 18 Z M72 17 C73 19 73 19 73 19 Z M95 17 C96 19 96 19 96 19 Z M94 19 C95 22 95 22 95 22 Z M73 20 C74 22 74 22 74 22 Z M74 23 C74.33 25.64 74.66 28.28 75 31 C75.33 31 75.66 31 76 31 C76.16681109 28.08347826 76.16681109 28.08347826 76 25 C75.34 24.34 74.68 23.68 74 23 Z M81 23 C80.67 23.66 80.34 24.32 80 25 C82.64 25 85.28 25 88 25 C87.67 24.34 87.34 23.68 87 23 C85.02 23 83.04 23 81 23 Z M93 23 C91.64560332 25.70879335 91.93498549 28.00933268 92 31 C92.33 31 92.66 31 93 31 C93.33 28.36 93.66 25.72 94 23 C93.67 23 93.34 23 93 23 Z M81 28 C80.67 28.99 80.34 29.98 80 31 C82.64 31 85.28 31 88 31 C87.67 30.01 87.34 29.02 87 28 C85.02 28 83.04 28 81 28 Z M74.8125 37.9375 C74.214375 38.288125 73.61625 38.63875 73 39 C74.98 39.99 74.98 39.99 77 41 C77.99 40.01 78.98 39.02 80 38 C77.10813214 36.66695302 77.10813214 36.66695302 74.8125 37.9375 Z M90 37 C89.34 37.66 88.68 38.32 88 39 C90.475 39.99 90.475 39.99 93 41 C93.66 40.34 94.32 39.68 95 39 C92.525 38.01 92.525 38.01 90 37 Z M81 41 C81 42.65 81 44.3 81 46 C81.33 46 81.66 46 82 46 C82 44.35 82 42.7 82 41 C81.67 41 81.34 41 81 41 Z M86 41 C86 42.98 86 44.96 86 47 C86.33 47 86.66 47 87 47 C87 45.02 87 43.04 87 41 C86.67 41 86.34 41 86 41 Z M76 44 C77 47 77 47 77 47 Z M91 44 C92 48 92 48 92 48 Z M72 46 C73 48 73 48 73 48 Z M95 46 C96 48 96 48 96 48 Z M72 53 C72 53.33 72 53.66 72 54 C79.92 54 87.84 54 96 54 C96 53.67 96 53.34 96 53 C88.08 53 80.16 53 72 53 Z " fill="#767283" transform="translate(0,0)"/>
<path d="M0 0 C55.77 0 111.54 0 169 0 C169 1.98 169 3.96 169 6 C113.23 6 57.46 6 0 6 C0 4.02 0 2.04 0 0 Z " fill="#767283" transform="translate(0,116)"/>
<path d="M0 0 C0 4.95 0 9.9 0 15 C0.99 15 1.98 15 3 15 C3.226875 13.9275 3.45375 12.855 3.6875 11.75 C5.18172472 7.4807865 6.09822503 6.20535107 10 4 C14.18767179 2.74801565 17.1540276 2.71268862 21.3125 4.125 C24.37469941 6.2614182 25.61351682 7.53379206 27 11 C27.54333853 15.89004676 27.52109104 17.99503871 25.25 22.375 C22.04488775 26.11429763 20.51572372 26.85965521 15.625 27.3125 C11.66874964 26.97144393 9.34705732 26.10164065 6 24 C5.34 23.01 4.68 22.02 4 21 C2.68 20.67 1.36 20.34 0 20 C0 24.29 0 28.58 0 33 C-1.65 33.66 -3.3 34.32 -5 35 C-5 29.72 -5 24.44 -5 19 C-9.29 19 -13.58 19 -18 19 C-14.48942545 14.10367233 -10.77420542 9.48371929 -6.75 5 C-5.89921875 4.05125 -5.0484375 3.1025 -4.171875 2.125 C-2 0 -2 0 0 0 Z M10.8125 7.625 C8.5633554 10.572155 8.07407049 12.29647536 8 16 C9.52873871 19.97472063 10.42780497 21.61853665 14 24 C17.050095 23.84749525 18.52817988 23.42301114 20.8125 21.375 C22.51607735 17.96784531 22.51971394 15.76792609 22 12 C20.58119479 9.427008 19.210705 8.05997511 17 6 C13.08099112 5.60245067 13.08099112 5.60245067 10.8125 7.625 Z M-6 10 C-7.35827971 11.64639965 -8.69254251 13.31295807 -10 15 C-8.35 15 -6.7 15 -5 15 C-5 13.35 -5 11.7 -5 10 C-5.33 10 -5.66 10 -6 10 Z " fill="#767283" transform="translate(131,19)"/>
<path d="M0 0 C0 0.66 0 1.32 0 2 C-0.54269531 2.21914063 -1.08539063 2.43828125 -1.64453125 2.6640625 C-5.66132362 4.44447858 -7.63176714 5.4016216 -10 9.25 C-10.33 10.1575 -10.66 11.065 -11 12 C-9.783125 11.896875 -8.56625 11.79375 -7.3125 11.6875 C-3.85574718 11.70591964 -3.03614527 11.97590315 0 14 C2.23298334 17.34947502 2.69682873 19.13000263 2.4140625 23.06640625 C1.71851452 26.3144841 0.51666056 27.87051798 -2 30 C-6.04983171 31.19995014 -8.25229959 31.25881937 -12.25 29.875 C-15.4011776 27.72646982 -16.60999172 26.55224339 -18 23 C-18.75489627 17.32779328 -18.31056729 12.8056622 -15 8 C-10.8401429 3.61954441 -6.33928356 0 0 0 Z M-13 16 C-12.88590407 17.45922693 -12.75834456 18.91740598 -12.625 20.375 C-12.55539063 21.18710937 -12.48578125 21.99921875 -12.4140625 22.8359375 C-12.17107412 25.20334191 -12.17107412 25.20334191 -10 27 C-7.5 27.41666667 -7.5 27.41666667 -5 27 C-2.67250655 23.50875983 -2.49700684 22.10777749 -3 18 C-4.68832016 15.5608859 -4.68832016 15.5608859 -7 14 C-10.18490007 13.7226499 -10.18490007 13.7226499 -13 16 Z " fill="#767283" transform="translate(46,15)"/>
<path d="M0 0 C0.99 0.33 1.98 0.66 3 1 C3.94030659 3.01991785 4.51654915 5.05516382 5.15625 7.1875 C5.4346875 7.785625 5.713125 8.38375 6 9 C6.99 9.33 7.98 9.66 9 10 C8.855625 8.72125 8.71125 7.4425 8.5625 6.125 C8.44068359 5.04605469 8.44068359 5.04605469 8.31640625 3.9453125 C8.08707039 1.92595684 8.08707039 1.92595684 7 0 C9.25 -0.3125 9.25 -0.3125 12 0 C14.3125 2.5 14.3125 2.5 16 5 C16 3.35 16 1.7 16 0 C18.27057377 -0.05398987 20.54151288 -0.09278742 22.8125 -0.125 C24.07707031 -0.14820312 25.34164062 -0.17140625 26.64453125 -0.1953125 C30 0 30 0 33 2 C33.97868153 4.86076138 34.22135111 6.38702769 33.1875 9.25 C32 11 32 11 30 12 C28.45976004 12.06950541 26.91665012 12.08452357 25.375 12.0625 C24.14910156 12.04896484 24.14910156 12.04896484 22.8984375 12.03515625 C21.95871094 12.01775391 21.95871094 12.01775391 21 12 C21 11.34 21 10.68 21 10 C21.66 10 22.32 10 23 10 C22.67 7.36 22.34 4.72 22 2 C21.34 2 20.68 2 20 2 C19.67 5.3 19.34 8.6 19 12 C15.23312136 10.11656068 14.20578354 9.30867531 12 6 C12 7.98 12 9.96 12 12 C8.7 12 5.4 12 2 12 C2 10.68 2 9.36 2 8 C1.01 8 0.02 8 -1 8 C-0.67 9.32 -0.34 10.64 0 12 C-1.65 12 -3.3 12 -5 12 C-3.41037341 7.96479403 -1.71767682 3.98188718 0 0 Z M26 1 C24.79438816 1.98267859 24.79438816 1.98267859 24.90234375 3.84765625 C24.91394531 4.57855469 24.92554687 5.30945313 24.9375 6.0625 C24.958125 7.361875 24.97875 8.66125 25 10 C26.65 9.67 28.3 9.34 30 9 C30.86358623 7.21858253 30.86358623 7.21858253 31 5 C29.20808968 2.70784955 29.20808968 2.70784955 27 1 C26.67 1 26.34 1 26 1 Z " fill="#767283" transform="translate(102,94)"/>
<path d="M0 0 C2.64 0.33 5.28 0.66 8 1 C7.9175 2.093125 7.835 3.18625 7.75 4.3125 C7.87375 6.1378125 7.87375 6.1378125 8 8 C9.94055857 9.7476128 9.94055857 9.7476128 12 11 C12.18175781 10.28972656 12.36351562 9.57945313 12.55078125 8.84765625 C12.80214844 7.92855469 13.05351562 7.00945312 13.3125 6.0625 C13.55613281 5.14597656 13.79976562 4.22945313 14.05078125 3.28515625 C14.36402344 2.53105469 14.67726562 1.77695313 15 1 C15.99 0.67 16.98 0.34 18 0 C19.32 3.3 20.64 6.6 22 10 C22.66 10 23.32 10 24 10 C24.11320856 4.91696314 24.11320856 4.91696314 23 0 C28.625 -0.25 28.625 -0.25 32 2 C32 4 32 6 32 8 C33.37926773 10.34261608 33.37926773 10.34261608 35 12 C33.33388095 12.042721 31.66617115 12.04063832 30 12 C29.67 11.67 29.34 11.34 29 11 C29 11.33 29 11.66 29 12 C25.04 12 21.08 12 17 12 C17.33 10.68 17.66 9.36 18 8 C17.01 8 16.02 8 15 8 C15 9.32 15 10.64 15 12 C9.62694301 12.35233161 9.62694301 12.35233161 7 12 C5 10 5 10 4 8 C4.33 9.32 4.66 10.64 5 12 C3.02 12 1.04 12 -1 12 C-0.67 11.34 -0.34 10.68 0 10 C0.04241723 7.66705225 0.04092937 5.33297433 0 3 C0 2.01 0 1.02 0 0 Z M4 2 C4.33 2.99 4.66 3.98 5 5 C5 4.01 5 3.02 5 2 C4.67 2 4.34 2 4 2 Z M27 2 C27 2.99 27 3.98 27 5 C27.66 5 28.32 5 29 5 C29 4.01 29 3.02 29 2 C28.34 2 27.68 2 27 2 Z " fill="#767283" transform="translate(124,71)"/>
<path d="M0 0 C1.65 0 3.3 0 5 0 C5 3.3 5 6.6 5 10 C7.32483785 8.11624325 7.32483785 8.11624325 7.1875 5 C7.20079609 2.07613397 7.20079609 2.07613397 6 0 C10.31392226 0.4793247 12.16569547 1.7457985 15 5 C14.67 3.35 14.34 1.7 14 0 C15.65 0 17.3 0 19 0 C18.67 3.96 18.34 7.92 18 12 C13.9915966 9.9957983 12.58590343 8.50944037 10 5 C10.33 7.31 10.66 9.62 11 12 C7.37 12 3.74 12 0 12 C0 8.04 0 4.08 0 0 Z " fill="#767283" transform="translate(67,94)"/>
<path d="M0 0 C1.65 0 3.3 0 5 0 C4.67 3.63 4.34 7.26 4 11 C5.32 11 6.64 11 8 11 C7.67 7.37 7.34 3.74 7 0 C12.625 -0.25 12.625 -0.25 16 2 C16.328125 4.12890625 16.328125 4.12890625 16.25 6.5625 C16.23453125 7.36816406 16.2190625 8.17382812 16.203125 9.00390625 C16 11 16 11 15 12 C12.46950598 12.07313567 9.96695163 12.09247527 7.4375 12.0625 C6.37112305 12.05573242 6.37112305 12.05573242 5.28320312 12.04882812 C3.52209987 12.03700864 1.76103964 12.01907263 0 12 C0 8.04 0 4.08 0 0 Z M11 2 C12 5 12 5 12 5 Z M11 7 C11.33 8.32 11.66 9.64 12 11 C12.33 9.68 12.66 8.36 13 7 C12.34 7 11.68 7 11 7 Z " fill="#767283" transform="translate(106,71)"/>
<path d="M0 0 C3.3 0 6.6 0 10 0 C10 0.66 10 1.32 10 2 C9.01 2.495 9.01 2.495 8 3 C7.68758545 5.71446979 7.48663408 8.33909361 7.375 11.0625 C7.33632813 11.82111328 7.29765625 12.57972656 7.2578125 13.36132812 C7.16326438 15.24047195 7.08053244 17.12020336 7 19 C7.99 19.33 8.98 19.66 10 20 C10 20.66 10 21.32 10 22 C6.7 22 3.4 22 0 22 C0.495 20.515 0.495 20.515 1 19 C1.66 19 2.32 19 3 19 C3 13.72 3 8.44 3 3 C2.01 2.67 1.02 2.34 0 2 C0 1.34 0 0.68 0 0 Z " fill="#767283" transform="translate(14,23)"/>
<path d="M0 0 C0.66 0 1.32 0 2 0 C3.32 3.3 4.64 6.6 6 10 C6.66 10 7.32 10 8 10 C8 6.7 8 3.4 8 0 C9.65 0 11.3 0 13 0 C12.9278125 0.62648438 12.855625 1.25296875 12.78125 1.8984375 C12.64203125 3.12433594 12.64203125 3.12433594 12.5 4.375 C12.36078125 5.59316406 12.36078125 5.59316406 12.21875 6.8359375 C11.96647649 8.96912825 11.96647649 8.96912825 12 11 C13.65 10.34 15.3 9.68 17 9 C17 9.99 17 10.98 17 12 C12.05 12 7.1 12 2 12 C2 10.68 2 9.36 2 8 C1.01 8 0.02 8 -1 8 C-0.67 9.32 -0.34 10.64 0 12 C-1.65 12 -3.3 12 -5 12 C-3.35 8.04 -1.7 4.08 0 0 Z " fill="#767283" transform="translate(74,71)"/>
<path d="M0 0 C3.67420866 0.30618405 4.78135513 0.75771784 7.3125 3.5625 C8.1478125 4.7690625 8.1478125 4.7690625 9 6 C8.67 4.02 8.34 2.04 8 0 C9.65 0 11.3 0 13 0 C12.67 3.96 12.34 7.92 12 12 C9 12 9 12 7.61328125 10.6875 C6.40885417 9.125 5.20442708 7.5625 4 6 C4.33 7.98 4.66 9.96 5 12 C3.35 12 1.7 12 0 12 C0.08378906 11.38511719 0.16757812 10.77023438 0.25390625 10.13671875 C0.35574219 9.32847656 0.45757813 8.52023438 0.5625 7.6875 C0.66691406 6.88699219 0.77132813 6.08648437 0.87890625 5.26171875 C1.14755178 2.83182884 1.14755178 2.83182884 0 0 Z " fill="#767283" transform="translate(0,71)"/>
<path d="M0 0 C4 0 4 0 5.484375 1.3125 C6.65625 2.875 7.828125 4.4375 9 6 C8.67 4.02 8.34 2.04 8 0 C9.65 0 11.3 0 13 0 C12.34 4.29 11.68 8.58 11 13 C8.66666667 10.66666667 6.33333333 8.33333333 4 6 C4.33 7.98 4.66 9.96 5 12 C3.35 12 1.7 12 0 12 C0.08378906 11.38511719 0.16757812 10.77023438 0.25390625 10.13671875 C0.35574219 9.32847656 0.45757812 8.52023438 0.5625 7.6875 C0.66691406 6.88699219 0.77132812 6.08648437 0.87890625 5.26171875 C1.14755178 2.83182884 1.14755178 2.83182884 0 0 Z " fill="#767283" transform="translate(56,71)"/>
<path d="M0 0 C3.4375 0.8125 3.4375 0.8125 5.4375 3.8125 C5.3125 7.375 5.3125 7.375 4.4375 10.8125 C2.12531402 12.79437369 0.89553016 12.83484293 -2.125 12.6875 C-5.1856925 11.58878987 -6.14015784 10.73620334 -7.5625 7.8125 C-7.4375 4.6875 -7.4375 4.6875 -6.5625 1.8125 C-3.5625 -0.1875 -3.5625 -0.1875 0 0 Z M-2.5625 1.8125 C-3.2225 2.4725 -3.8825 3.1325 -4.5625 3.8125 C-4.55327298 6.35963404 -4.55327298 6.35963404 -3.5625 8.8125 C-1.59491727 10.17270151 -1.59491727 10.17270151 0.4375 10.8125 C1.0975 10.1525 1.7575 9.4925 2.4375 8.8125 C2.11551034 5.71323181 2.11551034 5.71323181 1.4375 2.8125 C-0.45429203 2.1310177 -0.45429203 2.1310177 -2.5625 1.8125 Z " fill="#767283" transform="translate(49.5625,71.1875)"/>
<path d="M0 0 C2 2 2 2 2.3125 5.4375 C2 9 2 9 0.875 10.9375 C-1.88980433 12.50422245 -3.88188517 12.38976435 -7 12 C-8.875 10.875 -8.875 10.875 -10 9 C-10.38976435 5.88188517 -10.50422245 3.88980433 -8.9375 1.125 C-5.93267901 -0.61973477 -3.39189869 -0.30835443 0 0 Z M-6 2 C-6.33 2.33 -6.66 2.66 -7 3 C-6.71269945 5.33944736 -6.38063221 7.6739143 -6 10 C-4.35 9.67 -2.7 9.34 -1 9 C0.33304698 6.10813214 0.33304698 6.10813214 -0.9375 3.8125 C-1.288125 3.214375 -1.63875 2.61625 -2 2 C-3.32 2 -4.64 2 -6 2 Z " fill="#767283" transform="translate(40,94)"/>
<path d="M0 0 C2.64 0 5.28 0 8 0 C7.67 0.99 7.34 1.98 7 3 C6.01 2.67 5.02 2.34 4 2 C4 2.99 4 3.98 4 5 C5.32 4.67 6.64 4.34 8 4 C8 5.32 8 6.64 8 8 C6.68 7.67 5.36 7.34 4 7 C4.33 8.65 4.66 10.3 5 12 C3.35 12 1.7 12 0 12 C0 8.04 0 4.08 0 0 Z " fill="#767283" transform="translate(57,94)"/>
<path d="M0 0 C2.64 0 5.28 0 8 0 C8 0.99 8 1.98 8 3 C6.68 2.67 5.36 2.34 4 2 C4 2.99 4 3.98 4 5 C4.99 4.67 5.98 4.34 7 4 C6.67 5.32 6.34 6.64 6 8 C5.34 7.67 4.68 7.34 4 7 C4.33 8.65 4.66 10.3 5 12 C3.02 12 1.04 12 -1 12 C-0.67 11.34 -0.34 10.68 0 10 C0.06996014 8.29297265 0.08440154 6.58331997 0.0625 4.875 C0.05347656 3.96492188 0.04445312 3.05484375 0.03515625 2.1171875 C0.02355469 1.41851562 0.01195312 0.71984375 0 0 Z " fill="#767283" transform="translate(44,94)"/>
<path d="M0 0 C2.375 -0.1875 2.375 -0.1875 5 0 C5.66 0.99 6.32 1.98 7 3 C7.33 2.01 7.66 1.02 8 0 C9.32 0 10.64 0 12 0 C10.79618552 2.49361571 9.54571278 4.68143083 8 7 C8.3121764 9.64632287 8.3121764 9.64632287 9 12 C7.02 12 5.04 12 3 12 C3.20625 11.278125 3.4125 10.55625 3.625 9.8125 C4.05952211 6.55358415 3.41680669 4.91695496 2 2 C1.34 2 0.68 2 0 2 C0 1.34 0 0.68 0 0 Z " fill="#767283" transform="translate(157,71)"/>
<path d="M0 0 C0.66 0 1.32 0 2 0 C3.65 3.96 5.3 7.92 7 12 C5.35 12 3.7 12 2 12 C2 10.68 2 9.36 2 8 C1.01 8 0.02 8 -1 8 C-0.67 9.32 -0.34 10.64 0 12 C-1.65 12 -3.3 12 -5 12 C-3.35 8.04 -1.7 4.08 0 0 Z " fill="#767283" transform="translate(18,71)"/>
<path d="M0 0 C1.98 0 3.96 0 6 0 C5.34 3.3 4.68 6.6 4 10 C5.98 9.34 7.96 8.68 10 8 C9.67 9.32 9.34 10.64 9 12 C6.03 12 3.06 12 0 12 C0 8.04 0 4.08 0 0 Z " fill="#767283" transform="translate(87,94)"/>
<path d="M0 0 C3.63 0 7.26 0 11 0 C11 1.32 11 2.64 11 4 C8.525 3.01 8.525 3.01 6 2 C6.144375 3.27875 6.28875 4.5575 6.4375 5.875 C6.55931641 6.95394531 6.55931641 6.95394531 6.68359375 8.0546875 C6.91292961 10.07404316 6.91292961 10.07404316 8 12 C6.02 12 4.04 12 2 12 C2.66 8.7 3.32 5.4 4 2 C3.01 2 2.02 2 1 2 C1 2.66 1 3.32 1 4 C0.34 4 -0.32 4 -1 4 C-0.67 2.68 -0.34 1.36 0 0 Z " fill="#767283" transform="translate(24,71)"/>
<path d="M0 0 C1.65 0 3.3 0 5 0 C4.67 0.99 4.34 1.98 4 3 C3.96045766 5.33299825 3.95598268 7.66708189 4 10 C5.65 9.67 7.3 9.34 9 9 C9 9.99 9 10.98 9 12 C5.7 12 2.4 12 -1 12 C-0.67 11.34 -0.34 10.68 0 10 C0.06996014 8.29297265 0.08440154 6.58331997 0.0625 4.875 C0.05347656 3.96492188 0.04445313 3.05484375 0.03515625 2.1171875 C0.02355469 1.41851562 0.01195313 0.71984375 0 0 Z " fill="#767283" transform="translate(96,71)"/>
<path d="M0 0 C1.65 0 3.3 0 5 0 C5 3.96 5 7.92 5 12 C3.35 12 1.7 12 0 12 C0 8.04 0 4.08 0 0 Z " fill="#767283" transform="translate(36,71)"/>
</svg>
