<?xml version="1.0" encoding="utf-8"?>
<!-- Generator: Adobe Illustrator 23.0.6, SVG Export Plug-In . SVG Version: 6.00 Build 0)  -->
<svg version="1.1"
	 id="svg2" inkscape:version="0.91 r13725" sodipodi:docname="Nelonen Media logo.svg" xmlns:cc="http://creativecommons.org/ns#" xmlns:dc="http://purl.org/dc/elements/1.1/" xmlns:inkscape="http://www.inkscape.org/namespaces/inkscape" xmlns:rdf="http://www.w3.org/1999/02/22-rdf-syntax-ns#" xmlns:sodipodi="http://sodipodi.sourceforge.net/DTD/sodipodi-0.dtd" xmlns:svg="http://www.w3.org/2000/svg"
	 xmlns="http://www.w3.org/2000/svg" xmlns:xlink="http://www.w3.org/1999/xlink" x="0px" y="0px" viewBox="0 0 842.76 191.99"
	 enable-background="new 0 0 842.76 191.99" xml:space="preserve">
<sodipodi:namedview  bordercolor="#666666" borderopacity="1" gridtolerance="10" guidetolerance="10" id="namedview4" inkscape:current-layer="g10" inkscape:cx="-104.63538" inkscape:cy="511.91699" inkscape:pageopacity="0" inkscape:pageshadow="2" inkscape:window-height="825" inkscape:window-maximized="0" inkscape:window-width="1776" inkscape:window-x="0" inkscape:window-y="0" inkscape:zoom="0.38096569" objecttolerance="10" pagecolor="#ffffff" showgrid="false">
	</sodipodi:namedview>
<g id="g14">
	<g id="g20" transform="translate(95.46,236.5752)">
		<path id="path22" inkscape:connector-curvature="0" fill="#767283" d="M-80.31-64.25h-6.1c-1.96,0-4.94,0.37-4.94,3.54
			c0,2.24,1.72,3.36,4.05,3.36c2.38,0,5.17-1.49,6.99-2.51V-64.25z M-80.46-56.19c-3.68,2.05-5.78,2.42-7.64,2.42
			c-4.47,0-7.36-2.66-7.36-6.94c0-5.08,5.27-6.85,8.39-6.85h6.75v-1.77c0-3.22-1.91-4.33-5.22-4.33c-1.58,0-4.15,0.23-6.48,2.14
			l-1.96-3.03c2.98-2.29,6.2-2.75,8.76-2.75c6.01,0,8.85,2.66,8.85,8.06v15.29h-3.49l-0.47-2.15L-80.46-56.19z"/>
	</g>
	<g id="g24" transform="translate(123.52,228.1162)">
		<path id="path26" inkscape:connector-curvature="0" fill="#767283" d="M-73.3-45.22c-4.38,0-8.25-1.16-11.84-3.96l2.42-3.08
			c2.84,1.96,6.15,3.17,9.46,3.17c4.33,0,6.99-2.01,6.99-5.32c0-4.29-4.33-5.03-7.78-5.73c-5.03-0.98-9.83-2.94-9.83-8.86
			c0-5.36,3.96-9.23,10.39-9.23c3.68,0,7.32,0.56,10.53,2.52l-2,3.63c-2.7-1.58-5.78-2.24-8.57-2.24c-3.31,0-6.15,1.77-6.15,5.41
			c0,3.54,4.24,4.33,7.17,4.98c5.36,1.21,10.63,2.66,10.63,9.51C-61.88-48.66-66.45-45.22-73.3-45.22"/>
	</g>
	<g id="g28" transform="translate(149.1963,236.5752)">
		<path id="path30" inkscape:connector-curvature="0" fill="#767283" d="M-66.88-64.25h-6.1c-1.96,0-4.94,0.37-4.94,3.54
			c0,2.24,1.72,3.36,4.05,3.36c2.38,0,5.17-1.49,6.99-2.51V-64.25z M-67.02-56.19c-3.68,2.05-5.77,2.42-7.64,2.42
			c-4.47,0-7.36-2.66-7.36-6.94c0-5.08,5.27-6.85,8.39-6.85h6.75v-1.77c0-3.22-1.91-4.33-5.22-4.33c-1.59,0-4.15,0.23-6.48,2.14
			l-1.96-3.03c2.99-2.29,6.2-2.75,8.76-2.75c6.01,0,8.85,2.66,8.85,8.06v15.29h-3.49l-0.47-2.15L-67.02-56.19z"/>
	</g>
	<g id="g32" transform="translate(172.9004,240.417)">
		<path id="path34" inkscape:connector-curvature="0" fill="#767283" d="M-60.95-72.89v15.1h-4.01v-14.59c0-3.58-1.72-4.89-4.1-4.84
			c-1.86,0-4.57,1.07-6.94,2.56v16.87h-4.01v-23.11h3.54l0.47,2.56c4.01-2.47,6.2-2.8,7.83-2.8
			C-63.66-81.15-60.95-78.17-60.95-72.89"/>
	</g>
	<g id="g36" transform="translate(190.3003,239.6719)">
		<path id="path38" inkscape:connector-curvature="0" fill="#767283" d="M-56.6-71.22c0-4.01-3.03-5.46-5.55-5.46
			c-2.56,0-5.59,1.45-5.59,5.46V-66c0,4.01,2.47,5.45,5.59,5.45c2.52,0,5.55-1.44,5.55-5.45V-71.22z M-62.24-56.82
			c-5.31,0-9.51-3.03-9.51-8.39v-6.71c0-5.31,4.34-8.48,9.55-8.48c5.59,0,9.55,3.17,9.55,8.48v6.71
			C-52.64-59.85-57.07-56.82-62.24-56.82"/>
	</g>
	<g id="g40" transform="translate(212.0249,244.1816)">
		<path id="path42" inkscape:connector-curvature="0" fill="#767283" d="M-51.17-81.36c3.77-3.03,5.78-3.55,7.45-3.55
			c4.39,0,7.13,2.38,7.13,7.55v15.8h-4.01v-14.96c0-3.07-1.12-4.47-3.82-4.47c-1.63,0-3.54,1.02-5.97,2.89
			c0.09,0.56,0.14,0.93,0.14,1.54v15.01h-4.01v-15.1c0-3.17-1.54-4.33-3.49-4.33c-1.91,0-3.54,0.65-6.15,2.42v17.01h-4.01v-23.11
			h3.54l0.42,2.65c3.35-2.47,5.22-2.89,6.9-2.89C-54.25-84.91-52.25-83.65-51.17-81.36"/>
	</g>
	<g id="g44" transform="translate(240.6807,236.5752)">
		<path id="path46" inkscape:connector-curvature="0" fill="#767283" d="M-44.01-64.25h-6.1c-1.96,0-4.94,0.37-4.94,3.54
			c0,2.24,1.72,3.36,4.05,3.36c2.38,0,5.17-1.49,6.99-2.51L-44.01-64.25z M-44.15-56.19c-3.68,2.05-5.78,2.42-7.64,2.42
			c-4.47,0-7.36-2.66-7.36-6.94c0-5.08,5.27-6.85,8.39-6.85h6.75v-1.77c0-3.22-1.91-4.33-5.22-4.33c-1.59,0-4.15,0.23-6.48,2.14
			l-1.96-3.03c2.99-2.29,6.2-2.75,8.76-2.75c6.01,0,8.85,2.66,8.85,8.06v15.29h-3.49l-0.47-2.15L-44.15-56.19z"/>
	</g>
	<g id="g48" transform="translate(273.5869,244.7441)">
		<path id="path50" inkscape:connector-curvature="0" fill="#767283" d="M-35.78-82.63l-2.38,3.03c-2.05-1.96-3.82-2.15-5.22-2.15
			c-2.38,0-5.31,1.45-5.31,5.46v5.22c0,4.01,2.65,5.45,5.31,5.45c1.4,0,3.59-0.51,5.03-1.91l2.47,2.8c-2.14,2.14-4.94,2.84-7.6,2.84
			c-5.41,0-9.23-3.35-9.23-8.2v-6.85c0-5.26,4.28-8.53,9.13-8.53C-40.91-85.47-37.93-85.01-35.78-82.63"/>
	</g>
	<g id="g52" transform="translate(290.0566,239.6719)">
		<path id="path54" inkscape:connector-curvature="0" fill="#767283" d="M-31.67-71.22c0-4.01-3.03-5.46-5.55-5.46
			c-2.56,0-5.59,1.45-5.59,5.46V-66c0,4.01,2.47,5.45,5.59,5.45c2.52,0,5.55-1.44,5.55-5.45V-71.22z M-37.31-56.82
			c-5.31,0-9.5-3.03-9.5-8.39v-6.71c0-5.31,4.33-8.48,9.55-8.48c5.59,0,9.55,3.17,9.55,8.48v6.71
			C-27.7-59.85-32.13-56.82-37.31-56.82"/>
	</g>
	<g id="g56" transform="translate(311.7812,244.1816)">
		<path id="path58" inkscape:connector-curvature="0" fill="#767283" d="M-26.23-81.36c3.78-3.03,5.78-3.55,7.46-3.55
			c4.38,0,7.13,2.38,7.13,7.55v15.8h-4.01v-14.96c0-3.07-1.12-4.47-3.82-4.47c-1.63,0-3.54,1.02-5.97,2.89
			c0.1,0.56,0.14,0.93,0.14,1.54v15.01h-4.01v-15.1c0-3.17-1.54-4.33-3.49-4.33c-1.91,0-3.54,0.65-6.15,2.42v17.01h-4.01v-23.11
			h3.54l0.42,2.65c3.36-2.47,5.22-2.89,6.89-2.89C-29.31-84.91-27.3-83.65-26.23-81.36"/>
	</g>
	<g id="g60" transform="translate(331.9395,232.292)">
		<path id="path62" inkscape:connector-curvature="0" fill="#767283" d="M-21.2-54.61c2.84,1.17,4.66,1.44,6.57,1.44
			c2.47,0.05,4.47-1.07,4.47-4.66v-6.61c0-3.54-1.63-4.66-4.1-4.66c-1.78,0-4.9,1.3-6.94,2.7V-54.61z M-21.66-72.74l0.47,2.42
			c3.63-2.19,5.64-2.66,7.31-2.66c4.52,0,7.74,2.57,7.74,8.25v7.08c0,5.22-3.12,8.25-8.1,8.25c-1.68,0-3.87-0.19-6.94-1.44v10.39
			h-3.96v-32.3C-25.16-72.74-21.66-72.74-21.66-72.74z"/>
	</g>
	<g id="g64" transform="translate(361.0464,236.5752)">
		<path id="path66" inkscape:connector-curvature="0" fill="#767283" d="M-13.92-64.25h-6.1c-1.96,0-4.94,0.37-4.94,3.54
			c0,2.24,1.72,3.36,4.06,3.36c2.38,0,5.17-1.49,6.99-2.51V-64.25z M-14.06-56.19c-3.68,2.05-5.77,2.42-7.64,2.42
			c-4.47,0-7.36-2.66-7.36-6.94c0-5.08,5.27-6.85,8.39-6.85h6.76v-1.77c0-3.22-1.91-4.33-5.22-4.33c-1.59,0-4.15,0.23-6.48,2.14
			l-1.96-3.03c2.98-2.29,6.2-2.75,8.76-2.75c6.01,0,8.85,2.66,8.85,8.06v15.29h-3.49l-0.47-2.15L-14.06-56.19z"/>
	</g>
	<g id="g68" transform="translate(384.7505,240.417)">
		<path id="path70" inkscape:connector-curvature="0" fill="#767283" d="M-7.99-72.89v15.1H-12v-14.59c0-3.58-1.73-4.89-4.1-4.84
			c-1.86,0-4.57,1.07-6.95,2.56v16.87h-4.01v-23.11h3.54l0.47,2.56c4.01-2.47,6.2-2.8,7.83-2.8C-10.69-81.15-7.99-78.17-7.99-72.89"
			/>
	</g>
	<g id="g72" transform="translate(392.4561,220.8457)">
		<path id="path74" inkscape:connector-curvature="0" fill="#767283" d="M-6.07-28.86l3.4-9.79l-1.96-1.63l-6.24-21.06h4.33
			l2.79,10.16l2.57,9.22h0.14l3.26-9.22l3.5-10.16h4.29L-1.78-28.86H-6.07z"/>
	</g>
	<g id="g76" transform="translate(517.3545,319.8892)">
		<path id="path78" inkscape:connector-curvature="0" fill="#767283" d="M25.16-251.71c12.1-9.3,18.29-10.63,23.46-10.63
			c14.91,0,22.58,9.15,22.58,25.38v48.56H55.55v-46.34c0-8.71-3.54-12.4-10.47-12.4c-4.72,0-9.74,2.51-16.82,7.97
			c0.15,2.07,0.29,3.69,0.29,5.9v44.87H12.76v-46.64c0-9-4.42-12.1-9.74-12.1c-5.31,0-9.74,1.77-17.27,6.94v51.8h-15.79v-73.06
			h14.31l1.33,7.53c10.34-7.23,15.79-8.41,20.95-8.41C15.57-262.33,21.76-258.35,25.16-251.71"/>
	</g>
	<g id="g80" transform="translate(635.5508,290.7275)">
		<path id="path82" inkscape:connector-curvature="0" fill="#767283" d="M54.71-186.09c0,9.89,4.72,12.84,11.22,12.84
			c5.01,0,13.73-3.39,19.48-7.38v-33.5c-6.94-2.65-12.84-4.28-18.3-4.28c-6.79,0-12.4,3.84-12.4,13.58V-186.09z M39.06-206.9
			c0-16.24,10.34-26.27,25.53-26.27c5.17,0,12.55,0.88,20.81,4.13v-46.06h15.64v115.87H86.89l-1.48-7.24
			c-9.89,6.06-16.68,7.97-21.84,7.97c-15.05,0-24.5-8.41-24.5-26.41C39.06-184.91,39.06-206.9,39.06-206.9z"/>
	</g>
	<path id="path84" inkscape:connector-curvature="0" fill="#767283" d="M752.04,58.44h15.65v73.06h-15.65V58.44z"/>
	<g id="g86" transform="translate(745.0352,294.2686)">
		<path id="path88" inkscape:connector-curvature="0" fill="#767283" d="M82.08-194.06H64.51c-5.31,0-12.69,1.03-12.69,9.15
			c0,5.46,4.28,8.71,10.77,8.71c6.93,0,14.76-3.99,19.48-6.64V-194.06z M81.78-169.41c-10.33,5.9-17.12,7.23-23.17,7.23
			c-14.47,0-23.32-8.41-23.32-22.14c0-16.09,15.94-21.85,26.57-21.85h20.22v-4.43c0-8.56-4.87-12.1-15.06-12.1
			c-4.87,0-12.69,0.74-19.92,6.64l-7.23-11.66c9.74-7.53,20.22-9,28.63-9c19.92,0,29.22,8.85,29.22,26.86v47.08H83.55l-1.33-6.35
			C82.22-169.12,81.78-169.41,81.78-169.41z"/>
	</g>
	<g id="g90" transform="translate(120.834,269.3506)">
		<path id="path92" inkscape:connector-curvature="0" fill="#767283" d="M-73.97-137.99v-45.7c0-9.91-4.88-13.31-11.39-13.31
			c-5.32,0-12.27,2.67-19.68,7.39v51.62h-15.66v-73.21h14.2l1.46,7.24c11.85-7.24,18.94-8.14,23.97-8.14
			c15.23,0,22.92,9.91,22.92,26.19v47.92H-73.97z"/>
	</g>
	<g id="g94" transform="translate(168.3613,317.5596)">
		<path id="path96" inkscape:connector-curvature="0" fill="#767283" d="M-62.09-246.46c-7.84,0-14.64,4.88-14.64,14.5v2.36h29.13
			v-2.21C-47.6-242.02-54.26-246.46-62.09-246.46 M-76.88-215.71v1.03c0,10.21,7.54,14.36,15.83,14.36c4.58,0,22.03-0.14,22.03-0.14
			v14.26c0,0-12.72,0.08-22.03,0.08c-16.86,0-31.5-8.73-31.5-26.77v-19.22c0-17.89,13.17-28.69,30.31-28.69
			c17.9,0,30.47,10.49,30.47,28.09v17C-31.77-215.71-76.88-215.71-76.88-215.71z"/>
	</g>
	<g id="g98" transform="translate(376.6567,317.5596)">
		<path id="path100" inkscape:connector-curvature="0" fill="#767283" d="M-10.02-246.46c-7.84,0-14.65,4.88-14.65,14.5v2.36H4.47
			v-2.21C4.47-242.02-2.18-246.46-10.02-246.46 M-24.8-215.71v1.03c0,10.21,7.54,14.36,15.82,14.36c4.58,0,22.04-0.14,22.04-0.14
			v14.26c0,0-12.72,0.08-22.04,0.08c-16.86,0-31.5-8.73-31.5-26.77v-19.22c0-17.89,13.17-28.69,30.31-28.69
			c17.9,0,30.47,10.49,30.47,28.09v17C20.3-215.71-24.8-215.71-24.8-215.71z"/>
	</g>
	<g id="g102" transform="translate(216.6768,286.5156)">
		<path id="path104" inkscape:connector-curvature="0" fill="#767283" d="M-50.01-176.62c0,7.1,2.37,7.99,10.5,7.99l0.29,13.61
			c-2.94,0.59-5.76,0.73-8.13,0.73c-15.68,0-18.34-7.7-18.34-19.8v-97.62h15.68V-176.62z"/>
	</g>
	<g id="g106" transform="translate(268.3613,304.8545)">
		<path id="path108" inkscape:connector-curvature="0" fill="#767283" d="M-37.09-217.88c0-11.08-8.28-15.07-15.52-15.07
			c-7.25,0-15.53,3.99-15.53,15.07v15.53c0,11.1,7.1,15.09,15.53,15.09c7.25,0,15.53-3.99,15.53-15.1V-217.88z M-52.77-172.76
			c-16.71,0-31.06-9.17-31.06-26.62v-21.29c0-17.3,14.8-26.93,31.21-26.93c17.6,0,31.05,9.77,31.05,27.07v21.15
			C-21.57-181.93-36.5-172.76-52.77-172.76"/>
	</g>
	<g id="g110" transform="translate(329.0908,269.3506)">
		<path id="path112" inkscape:connector-curvature="0" fill="#767283" d="M-21.91-137.99v-45.7c0-9.91-4.88-13.31-11.39-13.31
			c-5.32,0-12.27,2.67-19.67,7.39v51.62h-15.68v-73.21h14.2l1.48,7.24c11.82-7.24,18.92-8.14,23.97-8.14
			c15.23,0,22.92,9.91,22.92,26.19l0,47.92H-21.91z"/>
	</g>
	<g id="g114" transform="translate(448.7461,269.3506)">
		<path id="path116" inkscape:connector-curvature="0" fill="#767283" d="M8.01-137.99v-45.7c0-9.91-4.88-13.31-11.38-13.31
			c-5.33,0-12.28,2.67-19.67,7.39v51.62h-15.68v-73.21h14.2l1.48,7.24c11.83-7.24,18.93-8.14,23.96-8.14
			c15.23,0,22.92,9.91,22.92,26.19v47.92H8.01z"/>
	</g>
	<g id="g118" transform="translate(690.9238,353.0752)">
		<path id="path120" inkscape:connector-curvature="0" fill="#767283" d="M68.55-326.38c5.02,0,9,3.99,9,9.01c0,5.02-3.98,9-9,9
			c-4.87,0-8.86-3.98-8.86-9C59.69-322.39,63.68-326.38,68.55-326.38"/>
	</g>
	<g id="g122" transform="translate(611.8701,362.4409)">
		<path id="path124" inkscape:connector-curvature="0" fill="#767283" d="M48.79-347.45H-8.82v-14.99h57.61v9.76V-347.45z"/>
	</g>
	<g id="g126" transform="translate(611.8701,338.8926)">
		<path id="path128" inkscape:connector-curvature="0" fill="#767283" d="M48.79-294.46H-8.82v-15h57.61v9.77V-294.46z"/>
	</g>
	<g id="g130" transform="translate(611.8701,315.3423)">
		<path id="path132" inkscape:connector-curvature="0" fill="#767283" d="M48.79-241.48H-8.82v-15h57.61v9.76V-241.48z"/>
	</g>
	<g id="g134" transform="translate(611.8701,291.7998)">
		<path id="path136" inkscape:connector-curvature="0" fill="#767283" d="M48.79-188.51H-8.82v-14.98h57.61v9.76V-188.51z"/>
	</g>
	<g id="g138" transform="translate(611.8701,268.249)">
		<path id="path140" inkscape:connector-curvature="0" fill="#767283" d="M48.79-135.52H-8.82v-14.99h57.61v9.76V-135.52z"/>
	</g>
	<g id="g142" transform="translate(611.8701,244.6992)">
		<path id="path144" inkscape:connector-curvature="0" fill="#767283" d="M48.79-82.53H-8.82v-14.99h57.61v9.76V-82.53z"/>
	</g>
	<g id="g146" transform="translate(611.8701,221.1504)">
		<path id="path148" inkscape:connector-curvature="0" fill="#767283" d="M48.79-29.54H-8.82v-14.99h57.61v9.76V-29.54z"/>
	</g>
</g>
</svg>
