<?xml version="1.0" encoding="UTF-8"?>
<svg version="1.1" xmlns="http://www.w3.org/2000/svg" width="300" height="96">
<path d="M0 0 C99 0 198 0 300 0 C300 31.68 300 63.36 300 96 C201 96 102 96 0 96 C0 64.32 0 32.64 0 0 Z " fill="#FCFCFC" transform="translate(0,0)"/>
<path d="M0 0 C99 0 198 0 300 0 C300 31.68 300 63.36 300 96 C201 96 102 96 0 96 C0 64.32 0 32.64 0 0 Z M7 7 C7 34.06 7 61.12 7 89 C101.38 89 195.76 89 293 89 C293 61.94 293 34.88 293 7 C198.62 7 104.24 7 7 7 Z " fill="#797979" transform="translate(0,0)"/>
<path d="M0 0 C3.95478251 2.91900614 7.41112181 6.50974362 9.625 10.9375 C10.12739048 16.43908755 10.38705731 21.32545569 8 26.375 C3.89280954 30.80644234 0.26765646 34.61264321 -6.046875 35.17578125 C-12.78085486 35.33814878 -17.02295303 35.17453718 -22.375 30.9375 C-27.55577131 24.25703173 -28.30725009 18.20988009 -27.375 9.9375 C-25.53956577 5.29541521 -21.98581222 1.86010622 -17.53125 -0.40625 C-11.78241847 -2.15589438 -5.67313303 -1.78598632 0 0 Z " fill="#7E7E7E" transform="translate(63.375,31.0625)"/>
<path d="M0 0 C2.64 0 5.28 0 8 0 C10.03239502 2.20096613 11.11222762 3.67660207 12.4375 6.25 C12.94313477 7.12978516 12.94313477 7.12978516 13.45898438 8.02734375 C15.09203055 10.93999124 16.41995421 13.69945775 17 17 C17.66 17 18.32 17 19 17 C19.20625 16.21625 19.4125 15.4325 19.625 14.625 C21.50684107 9.66378262 24.19188828 3.80811172 28 0 C30.64 0 33.28 0 36 0 C36 11.88 36 23.76 36 36 C33.03 36 30.06 36 27 36 C26.67 30.72 26.34 25.44 26 20 C24.35 22.97 22.7 25.94 21 29 C18.3125 29.5 18.3125 29.5 15 29 C12.86846636 26.48842548 11.56060491 23.93760924 10 21 C9.67 25.95 9.34 30.9 9 36 C6.03 36 3.06 36 0 36 C0 24.12 0 12.24 0 0 Z " fill="#808080" transform="translate(92,30)"/>
<path d="M0 0 C7 0 7 0 9.22265625 1.90625 C9.82980469 2.7621875 10.43695313 3.618125 11.0625 4.5 C12.05443359 5.85738281 12.05443359 5.85738281 13.06640625 7.2421875 C14.02353516 8.60730469 14.02353516 8.60730469 15 10 C16.16237859 11.54490234 17.32855472 13.08696126 18.5 14.625 C19.325 15.73875 20.15 16.8525 21 18 C21.33 12.06 21.66 6.12 22 0 C24.97 0 27.94 0 31 0 C31 11.88 31 23.76 31 36 C23 36 23 36 20.8984375 34.47119141 C20.14433594 33.4219751 20.14433594 33.4219751 19.375 32.3515625 C18.81425781 31.59359375 18.25351563 30.835625 17.67578125 30.0546875 C17.12277344 29.25289062 16.56976563 28.45109375 16 27.625 C15.41605469 26.8309375 14.83210937 26.036875 14.23046875 25.21875 C10 19.37337163 10 19.37337163 10 17 C9.34 17 8.68 17 8 17 C8 22.94 8 28.88 8 35 C5.36 35 2.72 35 0 35 C0 23.45 0 11.9 0 0 Z " fill="#7F7F7F" transform="translate(150,30)"/>
<path d="M0 0 C3.3 0 6.6 0 10 0 C12.73692648 5.86484246 14.93639657 11.70150129 16.91796875 17.859375 C18.40445581 22.17394393 20.20659896 26.33002715 22.046875 30.50390625 C23 33 23 33 23 36 C20.03 36 17.06 36 14 36 C12.74335022 33.09399739 12 31.20395416 12 28 C7.71 28 3.42 28 -1 28 C-1.66 30.64 -2.32 33.28 -3 36 C-5.97 36 -8.94 36 -12 36 C-11.37362455 31.34425409 -10.13163016 27.25059147 -8.49609375 22.8515625 C-8.2533522 22.19417084 -8.01061066 21.53677917 -7.76051331 20.85946655 C-6.99116304 18.77942125 -6.21446646 16.7022108 -5.4375 14.625 C-4.91161981 13.20721274 -4.38622425 11.78924563 -3.86132812 10.37109375 C-2.5798165 6.91196483 -1.2917059 3.45533708 0 0 Z " fill="#808080" transform="translate(241,30)"/>
<path d="M0 0 C3.67080764 2.52368025 4.75864984 4.17035883 6 8.4375 C6 12.53094236 5.22004022 14.59065251 3 18 C-1.00254616 20.66836411 -4.29313299 20.8340238 -9 20 C-11.75569447 17.81840855 -13.43588747 16.12822506 -15 13 C-15.59873168 7.73116124 -14.25400021 5.1153532 -11 1 C-7.51390112 -0.74304944 -3.80359929 -0.57152528 0 0 Z " fill="#FAFAFA" transform="translate(59,38)"/>
<path d="M0 0 C2.64 0 5.28 0 8 0 C8 11.22 8 22.44 8 34 C5.36 34 2.72 34 0 34 C0 22.78 0 11.56 0 0 Z " fill="#797979" transform="translate(203,31)"/>
<path d="M0 0 C2.76223278 2.76223278 2.57856291 5.20706617 3 9 C1.02 9 -0.96 9 -3 9 C-2.01 6.03 -1.02 3.06 0 0 Z " fill="#F4F4F4" transform="translate(246,41)"/>
<path d="M0 0 C0.33 0 0.66 0 1 0 C1 5.61 1 11.22 1 17 C0.67 17 0.34 17 0 17 C-0.33 13.37 -0.66 9.74 -1 6 C-1.99 6.495 -1.99 6.495 -3 7 C-1.125 1.125 -1.125 1.125 0 0 Z " fill="#E7E7E7" transform="translate(118,49)"/>
</svg>
