<?xml version="1.0" encoding="UTF-8"?>
<svg version="1.1" xmlns="http://www.w3.org/2000/svg" width="276" height="73">
<path d="M0 0 C1.9375 2.3125 1.9375 2.3125 3 5 C2.6875 7.3125 2.6875 7.3125 2 9 C2.928125 9.1546875 2.928125 9.1546875 3.875 9.3125 C6 10 6 10 8 13 C7.54716981 19.45283019 7.54716981 19.45283019 5 22 C1.375 22.125 1.375 22.125 -2 22 C-0.56193507 25.59516233 0.51452422 27.65000583 3.6875 29.9375 C8.13105716 31.36279192 10.45091456 31.10058519 15 30 C17.93087207 27.74548302 18.82814288 26.51557135 20 23 C19.236875 22.9175 18.47375 22.835 17.6875 22.75 C15 22 15 22 13.125 20.3125 C11.56299158 17.10170492 11.92610608 15.36486763 13 12 C16.1 9 16.1 9 19 9 C18.95875 8.21625 18.9175 7.4325 18.875 6.625 C19 4 19 4 21 2 C24.125 1.875 24.125 1.875 27 2 C25.6354642 11.48352379 23.9246456 20.86497073 22 30.25 C21.73691059 31.57941351 21.47388945 32.90884054 21.2109375 34.23828125 C20.95570312 35.48480469 20.70046875 36.73132812 20.4375 38.015625 C20.20933594 39.14258789 19.98117188 40.26955078 19.74609375 41.43066406 C19.49988281 42.27854492 19.25367188 43.12642578 19 44 C16.70797012 45.14601494 15.4054331 45.13237239 12.85742188 45.14526367 C11.57599304 45.15483345 11.57599304 45.15483345 10.26867676 45.16459656 C8.88271301 45.16626579 8.88271301 45.16626579 7.46875 45.16796875 C6.52189331 45.17129715 5.57503662 45.17462555 4.5994873 45.17805481 C2.59546394 45.18312246 0.59143211 45.18546319 -1.41259766 45.18530273 C-4.48744503 45.18749106 -7.56193481 45.20565354 -10.63671875 45.22460938 C-12.58072793 45.22754289 -14.52473883 45.22952797 -16.46875 45.23046875 C-17.39272583 45.23765427 -18.31670166 45.24483978 -19.26867676 45.25224304 C-20.12296265 45.24916641 -20.97724854 45.24608978 -21.85742188 45.24291992 C-22.61083862 45.24434494 -23.36425537 45.24576996 -24.14050293 45.24723816 C-26 45 -26 45 -28 43 C-28.66350759 40.44804772 -29.22546819 37.94369141 -29.7265625 35.359375 C-29.87910492 34.59957336 -30.03164734 33.83977173 -30.18881226 33.0569458 C-30.51012369 31.44706676 -30.82761961 29.83642223 -31.14160156 28.22509766 C-31.62077384 25.77163877 -32.11409556 23.3213457 -32.609375 20.87109375 C-32.92012548 19.30485682 -33.23004789 17.73845533 -33.5390625 16.171875 C-33.68590485 15.44353455 -33.83274719 14.71519409 -33.98403931 13.96478271 C-34.76377099 9.91816616 -35.15110832 6.11951996 -35 2 C-32.69 2.33 -30.38 2.66 -28 3 C-27.938125 3.94875 -27.87625 4.8975 -27.8125 5.875 C-27.544375 6.90625 -27.27625 7.9375 -27 9 C-24.55711372 10.31068333 -24.55711372 10.31068333 -22 11 C-20.57958179 13.84083641 -20.68547728 15.85477278 -21 19 C-22.75 21.375 -22.75 21.375 -25 23 C-26.32 23 -27.64 23 -29 23 C-27.23129916 27.33192234 -27.23129916 27.33192234 -23.875 30.4375 C-19.76061287 31.24248879 -16.0595659 31.06231631 -12 30 C-9.00547566 27.75410675 -8.18376878 26.55130633 -7 23 C-7.56589844 22.87882812 -8.13179687 22.75765625 -8.71484375 22.6328125 C-9.44832031 22.46523438 -10.18179688 22.29765625 -10.9375 22.125 C-11.66839844 21.96257813 -12.39929688 21.80015625 -13.15234375 21.6328125 C-15 21 -15 21 -16 19 C-16.46176912 12.65067466 -16.46176912 12.65067466 -14.625 10.0625 C-13 9 -13 9 -11 9 C-11.061875 8.071875 -11.12375 7.14375 -11.1875 6.1875 C-11 3 -11 3 -9.625 1.1875 C-6.1455814 -1.35515205 -4.14205475 -1.18344421 0 0 Z " fill="#767283" transform="translate(45,11)"/>
<path d="M0 0 C1.01610352 -0.04350586 1.01610352 -0.04350586 2.05273438 -0.08789062 C5.45096605 -0.13107441 7.35336087 0.07200496 10.140625 2.078125 C12.6690316 5.73026787 12.17347894 7.93868958 11.6875 12.3125 C10.1875 14.3125 10.1875 14.3125 8.6875 15.3125 C9.1515625 16.6428125 9.1515625 16.6428125 9.625 18 C10.5165671 20.77959155 11.18127007 23.44386375 11.6875 26.3125 C9.7075 27.3025 9.7075 27.3025 7.6875 28.3125 C6.6819239 26.85800599 5.68319565 25.39877557 4.6875 23.9375 C4.130625 23.12539063 3.57375 22.31328125 3 21.4765625 C1.6875 19.3125 1.6875 19.3125 1.6875 17.3125 C0.3675 17.3125 -0.9525 17.3125 -2.3125 17.3125 C-2.3125 20.6125 -2.3125 23.9125 -2.3125 27.3125 C-6.3125 28.3125 -6.3125 28.3125 -8.3125 27.3125 C-8.34136537 23.00001391 -8.35925255 18.68755238 -8.375 14.375 C-8.38337891 13.14330078 -8.39175781 11.91160156 -8.40039062 10.64257812 C-8.40361328 9.47275391 -8.40683594 8.30292969 -8.41015625 7.09765625 C-8.41539307 6.01363525 -8.42062988 4.92961426 -8.42602539 3.81274414 C-8.19476344 -1.28048949 -4.11032226 0.05767524 0 0 Z M-2.3125 5.3125 C-2.3125 7.2925 -2.3125 9.2725 -2.3125 11.3125 C-0.0025 11.3125 2.3075 11.3125 4.6875 11.3125 C5.0175 9.6625 5.3475 8.0125 5.6875 6.3125 C2.97870665 4.95810332 0.67816732 5.24748549 -2.3125 5.3125 Z " fill="#757183" transform="translate(196.3125,27.6875)"/>
<path d="M0 0 C0.99 0.33 1.98 0.66 3 1 C3.33 3.97 3.66 6.94 4 10 C6.97 6.7 9.94 3.4 13 0 C14.32 0.66 15.64 1.32 17 2 C16.42647107 5.87132028 14.51295648 8.08172796 12 11 C13.11049238 14.05385405 14.42521639 16.74538613 16.125 19.5 C17.91384721 22.83918146 18.44511978 24.32776178 18 28 C16.68 28.33 15.36 28.66 14 29 C13.59007812 28.37351562 13.18015625 27.74703125 12.7578125 27.1015625 C12.21898437 26.28429687 11.68015625 25.46703125 11.125 24.625 C10.59132813 23.81289063 10.05765625 23.00078125 9.5078125 22.1640625 C8.04134945 19.92405904 8.04134945 19.92405904 6 18 C3.70424397 20.29575603 3.67660401 21.00842525 3.375 24.125 C3.25125 25.40375 3.1275 26.6825 3 28 C2.01 28.33 1.02 28.66 0 29 C-2.17750643 27.26722097 -2.93739607 26.38775066 -3.38818359 23.59570312 C-3.39156738 22.66693359 -3.39495117 21.73816406 -3.3984375 20.78125 C-3.40230469 19.76675781 -3.40617187 18.75226562 -3.41015625 17.70703125 C-3.39855469 16.64871094 -3.38695313 15.59039062 -3.375 14.5 C-3.38660156 13.44167969 -3.39820312 12.38335937 -3.41015625 11.29296875 C-3.40435547 9.77123047 -3.40435547 9.77123047 -3.3984375 8.21875 C-3.39505371 7.28998047 -3.39166992 6.36121094 -3.38818359 5.40429688 C-2.93739607 2.61224934 -2.17750643 1.73277903 0 0 Z " fill="#757283" transform="translate(117,27)"/>
<path d="M0 0 C0.99 0.33 1.98 0.66 3 1 C3.73046875 2.84765625 3.73046875 2.84765625 4.1875 5.0625 C4.34605469 5.79597656 4.50460938 6.52945313 4.66796875 7.28515625 C4.83232422 8.13400391 4.83232422 8.13400391 5 9 C5.47050781 8.43410156 5.94101563 7.86820313 6.42578125 7.28515625 C7.04839844 6.55167969 7.67101562 5.81820312 8.3125 5.0625 C8.92738281 4.33160156 9.54226562 3.60070312 10.17578125 2.84765625 C12 1 12 1 15 0 C15.66 0.66 16.32 1.32 17 2 C16.76236269 6.39629018 14.85856441 8.77258856 12 12 C12.433125 12.73605469 12.86625 13.47210938 13.3125 14.23046875 C14.1478125 15.69419922 14.1478125 15.69419922 15 17.1875 C15.556875 18.15042969 16.11375 19.11335938 16.6875 20.10546875 C18.02216758 23.04888743 18.27915461 24.81880057 18 28 C16.68 28.33 15.36 28.66 14 29 C13.38511719 28.06027344 13.38511719 28.06027344 12.7578125 27.1015625 C12.21898437 26.28429687 11.68015625 25.46703125 11.125 24.625 C10.59132812 23.81289063 10.05765625 23.00078125 9.5078125 22.1640625 C8.04134945 19.92405904 8.04134945 19.92405904 6 18 C4.06696305 19.93303695 4.15154354 23.34749531 3.6953125 25.96875 C3.46585938 26.6390625 3.23640625 27.309375 3 28 C2.01 28.33 1.02 28.66 0 29 C-0.66 28.67 -1.32 28.34 -2 28 C-2 19.09 -2 10.18 -2 1 C-1.34 0.67 -0.68 0.34 0 0 Z " fill="#757183" transform="translate(141,27)"/>
<path d="M0 0 C0.99 0.33 1.98 0.66 3 1 C3.02505615 1.56509277 3.0501123 2.13018555 3.07592773 2.71240234 C3.19179956 5.26683742 3.31456537 7.8208955 3.4375 10.375 C3.47681641 11.26445313 3.51613281 12.15390625 3.55664062 13.0703125 C3.59853516 13.92109375 3.64042969 14.771875 3.68359375 15.6484375 C3.72025146 16.43395996 3.75690918 17.21948242 3.79467773 18.02880859 C3.890891 20.07523496 3.890891 20.07523496 5 22 C6.66611905 22.042721 8.33382885 22.04063832 10 22 C11.54950268 20.45049732 11.21655193 18.90009406 11.31640625 16.74609375 C11.35830078 15.89208984 11.40019531 15.03808594 11.44335938 14.15820312 C11.48267578 13.26037109 11.52199219 12.36253906 11.5625 11.4375 C11.60568359 10.53580078 11.64886719 9.63410156 11.69335938 8.70507812 C11.79978142 6.47021515 11.90179988 4.23523692 12 2 C13.875 0.9375 13.875 0.9375 16 0 C16.66 0.33 17.32 0.66 18 1 C18.08745946 4.3956697 18.14054444 7.79104773 18.1875 11.1875 C18.21263672 12.14720703 18.23777344 13.10691406 18.26367188 14.09570312 C18.35853221 23.23391556 18.35853221 23.23391556 15 27 C11.35321393 29.52584773 8.35724416 29.13464762 4.125 28.54296875 C1.10900099 27.77233665 -0.2542615 26.54586865 -2 24 C-3.28330283 19.83357944 -3.22081419 15.76064747 -3.25 11.4375 C-3.270625 10.66986328 -3.29125 9.90222656 -3.3125 9.11132812 C-3.35184224 3.47063434 -3.35184224 3.47063434 -1.484375 0.97265625 C-0.99453125 0.65167969 -0.5046875 0.33070312 0 0 Z " fill="#767283" transform="translate(165,27)"/>
<path d="M0 0 C1.9753418 0.06323242 1.9753418 0.06323242 4 1 C5.29614258 3.16137695 5.29614258 3.16137695 6.39453125 5.98828125 C6.79220703 7.00470703 7.18988281 8.02113281 7.59960938 9.06835938 C7.99986328 10.13892578 8.40011719 11.20949219 8.8125 12.3125 C9.23208984 13.37146484 9.65167969 14.43042969 10.08398438 15.52148438 C13.40029725 24.17012239 13.40029725 24.17012239 12 28 C10.68 28 9.36 28 8 28 C7.34 26.35 6.68 24.7 6 23 C2.92545953 23.07090135 -0.01122299 23.2475065 -3 24 C-5.1386077 26.38987933 -5.1386077 26.38987933 -6 29 C-7.32 28.67 -8.64 28.34 -10 28 C-9.47324181 21.69333342 -7.92869389 16.47542643 -5.5625 10.625 C-5.09360352 9.41650391 -5.09360352 9.41650391 -4.61523438 8.18359375 C-2.27427184 2.27427184 -2.27427184 2.27427184 0 0 Z M1 12 C-1.2773501 14.81509993 -1.2773501 14.81509993 -1 18 C0.65 18 2.3 18 4 18 C3.34 16.02 2.68 14.04 2 12 C1.67 12 1.34 12 1 12 Z " fill="#757183" transform="translate(253,27)"/>
<path d="M0 0 C1.18613892 0.00785522 1.18613892 0.00785522 2.39624023 0.01586914 C3.67724609 0.02070313 3.67724609 0.02070313 4.98413086 0.02563477 C5.88196289 0.03401367 6.77979492 0.04239258 7.70483398 0.05102539 C8.6065332 0.05553711 9.50823242 0.06004883 10.43725586 0.06469727 C12.67234712 0.07652315 14.90730835 0.09300319 17.14233398 0.11352539 C16.81233398 1.76352539 16.48233398 3.41352539 16.14233398 5.11352539 C14.16233398 5.11352539 12.18233398 5.11352539 10.14233398 5.11352539 C10.14233398 12.37352539 10.14233398 19.63352539 10.14233398 27.11352539 C6.14233398 28.11352539 6.14233398 28.11352539 4.14233398 27.11352539 C4.14233398 19.85352539 4.14233398 12.59352539 4.14233398 5.11352539 C2.16233398 5.11352539 0.18233398 5.11352539 -1.85766602 5.11352539 C-2.42016602 3.17602539 -2.42016602 3.17602539 -2.85766602 1.11352539 C-1.85766602 0.11352539 -1.85766602 0.11352539 0 0 Z " fill="#757183" transform="translate(82.857666015625,27.886474609375)"/>
<path d="M0 0 C3 1 3 1 4 3 C4.08372659 4.52148326 4.10730027 6.04655778 4.09765625 7.5703125 C4.09282227 8.91416016 4.09282227 8.91416016 4.08789062 10.28515625 C4.07951172 11.22230469 4.07113281 12.15945312 4.0625 13.125 C4.05798828 14.06988281 4.05347656 15.01476563 4.04882812 15.98828125 C4.03702375 18.3255477 4.01908799 20.66278169 4 23 C7.3 23 10.6 23 14 23 C14.33 24.32 14.66 25.64 15 27 C11.63000798 29.24666134 10.43894538 29.2457371 6.5 29.1875 C5.5409375 29.18105469 4.581875 29.17460938 3.59375 29.16796875 C1 29 1 29 -2 28 C-2 19.09 -2 10.18 -2 1 C-1.34 0.67 -0.68 0.34 0 0 Z " fill="#767283" transform="translate(226,27)"/>
<path d="M0 0 C0.99 0.33 1.98 0.66 3 1 C3 9.91 3 18.82 3 28 C1.68 28.33 0.36 28.66 -1 29 C-4.15585919 25.84414081 -3.29482344 22.34108496 -3.32226562 18.03515625 C-3.31904297 16.86855469 -3.31582031 15.70195313 -3.3125 14.5 C-3.32861328 13.33339844 -3.34472656 12.16679688 -3.36132812 10.96484375 C-3.36197266 9.85238281 -3.36261719 8.73992188 -3.36328125 7.59375 C-3.36626221 6.56958984 -3.36924316 5.54542969 -3.37231445 4.49023438 C-3.24945068 3.66845703 -3.12658691 2.84667969 -3 2 C-2.01 1.34 -1.02 0.68 0 0 Z " fill="#757183" transform="translate(106,27)"/>
<path d="M0 0 C0.99 0.33 1.98 0.66 3 1 C3 9.91 3 18.82 3 28 C2.01 28.33 1.02 28.66 0 29 C-2.12819861 27.29182211 -2.93375601 26.42976921 -3.35644531 23.6875 C-3.34709961 22.800625 -3.33775391 21.91375 -3.328125 21 C-3.32296875 20.030625 -3.3178125 19.06125 -3.3125 18.0625 C-3.291875 17.051875 -3.27125 16.04125 -3.25 15 C-3.24484375 13.989375 -3.2396875 12.97875 -3.234375 11.9375 C-3.15487637 4.46462912 -3.15487637 4.46462912 -2 1 C-1.34 0.67 -0.68 0.34 0 0 Z " fill="#767283" transform="translate(215,27)"/>
</svg>
