<?xml version="1.0" encoding="UTF-8"?>
<svg version="1.1" xmlns="http://www.w3.org/2000/svg" width="300" height="223">
<path d="M0 0 C2.6490324 0.90823968 4.83352731 2.246073 7.1875 3.75 C6.8575 6.06 6.5275 8.37 6.1875 10.75 C9.6525 10.255 9.6525 10.255 13.1875 9.75 C14.1775 12.225 14.1775 12.225 15.1875 14.75 C18.02717231 14.75 20.42485711 14.34732819 23.1875 13.75 C23.6825 15.235 23.6825 15.235 24.1875 16.75 C24.8475 16.75 25.5075 16.75 26.1875 16.75 C26.5896875 15.2959375 26.5896875 15.2959375 27 13.8125 C27.391875 12.801875 27.78375 11.79125 28.1875 10.75 C31.32099732 9.70550089 32.17718256 9.81576355 35.1875 10.75 C35.1875 8.11 35.1875 5.47 35.1875 2.75 C35.826875 2.605625 36.46625 2.46125 37.125 2.3125 C39.16295146 1.93992819 39.16295146 1.93992819 40.1875 0.75 C42.52047433 0.70907063 44.85455225 0.70758277 47.1875 0.75 C47.1875 2.07 47.1875 3.39 47.1875 4.75 C46.5275 4.75 45.8675 4.75 45.1875 4.75 C44.5275 8.38 43.8675 12.01 43.1875 15.75 C43.8475 15.75 44.5075 15.75 45.1875 15.75 C44.83144717 20.02263394 44.20484854 22.95685857 42.0625 26.6875 C39.6613001 31.09541696 40.36502879 33.89741987 41.1875 38.75 C39.1875 41.75 39.1875 41.75 36.1875 42.75 C36.83682495 43.07776932 37.4861499 43.40553864 38.15515137 43.74324036 C40.69286199 46.24899906 40.67484916 48.01475083 40.72961426 51.49206543 C40.72151733 52.27287476 40.71342041 53.05368408 40.70507812 53.8581543 C40.7120874 54.6845491 40.71909668 55.51094391 40.72631836 56.36238098 C40.74395116 59.10000024 40.73225184 61.83658856 40.71875 64.57421875 C40.72144469 66.47890928 40.72532692 68.38359848 40.73034668 70.2882843 C40.73624994 74.2856655 40.72765693 78.28268958 40.70898438 82.2800293 C40.6862716 87.39009885 40.69926378 92.4993245 40.72327423 97.6093626 C40.73777596 101.5463539 40.73310487 105.48314755 40.72276306 109.42014503 C40.72010383 111.3030997 40.72333714 113.18607261 40.73268127 115.06900597 C40.74291034 117.7114394 40.72725464 120.35253824 40.70507812 122.99487305 C40.71317505 123.76556122 40.72127197 124.53624939 40.72961426 125.33029175 C40.63513967 131.44705751 38.92718439 136.62066535 34.84650421 141.28171825 C28.01160782 147.52104227 19.54305955 147.0902187 10.86328125 147.22851562 C10.04730469 147.25494141 9.23132813 147.28136719 8.390625 147.30859375 C7.28702637 147.32877563 7.28702637 147.32877563 6.16113281 147.34936523 C3.68438289 147.85212954 2.90061466 148.9593702 1.1875 150.75 C-2.15442692 150.50546876 -3.41793557 150.14456443 -5.8125 147.75 C-7.7132177 147.42997897 -7.7132177 147.42997897 -9.8828125 147.44140625 C-10.6975 147.41626953 -11.5121875 147.39113281 -12.3515625 147.36523438 C-14.0520169 147.33055743 -15.75254307 147.29921125 -17.453125 147.27148438 C-25.10931666 147.02547822 -32.33031495 145.53675088 -37.8125 139.75 C-43.70793152 131.48163316 -42.31498934 120.90475248 -42.203125 111.27734375 C-42.19565494 109.38449199 -42.18996563 107.49163244 -42.18597412 105.59877014 C-42.170778 100.64204158 -42.13154872 95.68578965 -42.0871582 90.72924805 C-42.04607492 85.66136114 -42.02793533 80.59339643 -42.0078125 75.52539062 C-41.96504813 65.60005221 -41.89687055 55.6750659 -41.8125 45.75 C-40.4925 45.09 -39.1725 44.43 -37.8125 43.75 C-37.8125 43.09 -37.8125 42.43 -37.8125 41.75 C-38.8025 41.75 -39.7925 41.75 -40.8125 41.75 C-42.15611684 38.43047603 -42.96012218 36.42906201 -42.1875 32.875 C-41.65038696 28.399058 -43.50121176 25.50360377 -45.8125 21.75 C-46.1425 21.42 -46.4725 21.09 -46.8125 20.75 C-46.85313832 19.08382885 -46.855221 17.41611905 -46.8125 15.75 C-46.1525 15.75 -45.4925 15.75 -44.8125 15.75 C-45.06773874 14.12247769 -45.34224494 12.49796804 -45.625 10.875 C-45.77582031 9.97007813 -45.92664063 9.06515625 -46.08203125 8.1328125 C-46.64301301 5.40587522 -46.64301301 5.40587522 -49.8125 3.75 C-49.4825 2.76 -49.1525 1.77 -48.8125 0.75 C-44.26444365 0.57164485 -40.9330746 0.75214565 -36.8125 2.75 C-36.8125 5.39 -36.8125 8.03 -36.8125 10.75 C-34.8325 10.42 -32.8525 10.09 -30.8125 9.75 C-28.8325 12.72 -28.8325 12.72 -26.8125 15.75 C-26.1525 15.09 -25.4925 14.43 -24.8125 13.75 C-21.8125 14.125 -21.8125 14.125 -18.8125 14.75 C-18.1525 14.75 -17.4925 14.75 -16.8125 14.75 C-16.1525 13.1 -15.4925 11.45 -14.8125 9.75 C-12.5025 10.08 -10.1925 10.41 -7.8125 10.75 C-8.3075 7.285 -8.3075 7.285 -8.8125 3.75 C-7.4925 3.75 -6.1725 3.75 -4.8125 3.75 C-4.4825 2.76 -4.1525 1.77 -3.8125 0.75 C-1.8125 -0.25 -1.8125 -0.25 0 0 Z M-18.8125 18.75 C-18.54215366 21.18717258 -18.54215366 21.18717258 -17.8125 23.75 C-16.3275 24.74 -16.3275 24.74 -14.8125 25.75 C-15.37621414 22.48045798 -16.31212266 20.92424117 -18.8125 18.75 Z M16.1875 18.75 C14.55918238 20.55961577 14.55918238 20.55961577 13.1875 22.75 C13.5175 23.74 13.8475 24.73 14.1875 25.75 C15.5075 24.1 16.8275 22.45 18.1875 20.75 C17.5275 20.09 16.8675 19.43 16.1875 18.75 Z M-26.8125 19.75 C-27.8025 20.74 -28.7925 21.73 -29.8125 22.75 C-29.4825 23.74 -29.1525 24.73 -28.8125 25.75 C-27.8225 24.76 -26.8325 23.77 -25.8125 22.75 C-26.1425 21.76 -26.4725 20.77 -26.8125 19.75 Z M24.1875 19.75 C24.45426204 21.73491642 24.45426204 21.73491642 25.1875 23.75 C26.1775 24.08 27.1675 24.41 28.1875 24.75 C26.8785428 21.62802522 26.8785428 21.62802522 24.1875 19.75 Z M-0.8125 53.75 C0.1875 57.75 0.1875 57.75 0.1875 57.75 Z M-7.8125 57.75 C-7.4825 59.07 -7.1525 60.39 -6.8125 61.75 C-5.8225 60.76 -4.8325 59.77 -3.8125 58.75 C-5.1325 58.42 -6.4525 58.09 -7.8125 57.75 Z M4.1875 57.75 C4.1875 58.74 4.1875 59.73 4.1875 60.75 C4.8475 61.08 5.5075 61.41 6.1875 61.75 C6.1875 60.43 6.1875 59.11 6.1875 57.75 C5.5275 57.75 4.8675 57.75 4.1875 57.75 Z M-21.8125 69.75 C-21.78127057 71.71756452 -21.78127057 71.71756452 -20.8125 73.75 C-19.884375 73.976875 -18.95625 74.20375 -18 74.4375 C-14.22708938 75.99105143 -14.0077056 76.7674667 -12.4375 80.375 C-11.87475385 81.8253295 -11.32615022 83.28156466 -10.8125 84.75 C-10.1525 84.75 -9.4925 84.75 -8.8125 84.75 C-9.05484375 85.4613208 -9.2971875 86.1726416 -9.546875 86.90551758 C-10.64010985 90.12293928 -11.72638061 93.3426697 -12.8125 96.5625 C-13.1940625 97.68205078 -13.575625 98.80160156 -13.96875 99.95507812 C-14.51015625 101.56479492 -14.51015625 101.56479492 -15.0625 103.20703125 C-15.39765625 104.19678955 -15.7328125 105.18654785 -16.078125 106.20629883 C-16.95118755 108.78911618 -16.95118755 108.78911618 -16.8125 111.75 C-13.8425 111.255 -13.8425 111.255 -10.8125 110.75 C-9.1625 104.81 -7.5125 98.87 -5.8125 92.75 C-2.8125 96.75 -2.8125 96.75 -1.8125 98.75 C-1.1525 98.75 -0.4925 98.75 0.1875 98.75 C1.20616229 97.09467377 2.20560813 95.42739862 3.1875 93.75 C3.8475 93.42 4.5075 93.09 5.1875 92.75 C6.5075 98.69 7.8275 104.63 9.1875 110.75 C12.1575 111.245 12.1575 111.245 15.1875 111.75 C14.58545395 105.56842856 12.74067819 100.13166239 10.625 94.3125 C10.29564453 93.39017578 9.96628906 92.46785156 9.62695312 91.51757812 C8.81967353 89.2595352 8.00641273 87.00384435 7.1875 84.75 C8.1775 84.42 9.1675 84.09 10.1875 83.75 C11.3344716 81.48222346 12.15537049 79.16690844 13.02734375 76.78125 C14.1875 74.75 14.1875 74.75 16.31640625 73.96875 C16.93386719 73.8965625 17.55132812 73.824375 18.1875 73.75 C18.6825 74.74 18.6825 74.74 19.1875 75.75 C19.8475 73.77 20.5075 71.79 21.1875 69.75 C16.22047196 71.02063508 13.46856063 72.79342689 10.1875 76.75 C10.1875 77.74 10.1875 78.73 10.1875 79.75 C6.76915767 79.75626726 3.35502695 79.69666505 -0.0625 79.625 C-1.03058594 79.62757812 -1.99867187 79.63015625 -2.99609375 79.6328125 C-5.72648275 79.55749142 -8.16395375 79.42430923 -10.8125 78.75 C-13.25 75.8125 -13.25 75.8125 -14.8125 72.75 C-16.64474947 71.45754973 -16.64474947 71.45754973 -18.5625 70.875 C-19.635 70.50375 -20.7075 70.1325 -21.8125 69.75 Z M-24.8125 86.75 C-23.8125 90.75 -23.8125 90.75 -23.8125 90.75 Z M23.1875 86.75 C24.1875 90.75 24.1875 90.75 24.1875 90.75 Z M-30.8125 90.75 C-31.1425 92.07 -31.4725 93.39 -31.8125 94.75 C-30.8225 93.76 -29.8325 92.77 -28.8125 91.75 C-29.4725 91.42 -30.1325 91.09 -30.8125 90.75 Z M-19.8125 90.75 C-19.8125 91.74 -19.8125 92.73 -19.8125 93.75 C-19.1525 94.08 -18.4925 94.41 -17.8125 94.75 C-18.1425 93.43 -18.4725 92.11 -18.8125 90.75 C-19.1425 90.75 -19.4725 90.75 -19.8125 90.75 Z M17.1875 90.75 C16.8575 92.07 16.5275 93.39 16.1875 94.75 C16.8475 94.75 17.5075 94.75 18.1875 94.75 C18.5175 93.76 18.8475 92.77 19.1875 91.75 C18.5275 91.42 17.8675 91.09 17.1875 90.75 Z M28.1875 90.75 C28.1875 91.74 28.1875 92.73 28.1875 93.75 C28.8475 94.08 29.5075 94.41 30.1875 94.75 C29.8575 93.43 29.5275 92.11 29.1875 90.75 C28.8575 90.75 28.5275 90.75 28.1875 90.75 Z M-10.8125 110.75 C-10.4825 111.74 -10.1525 112.73 -9.8125 113.75 C-9.8125 112.76 -9.8125 111.77 -9.8125 110.75 C-10.1425 110.75 -10.4725 110.75 -10.8125 110.75 Z M8.1875 110.75 C9.1875 112.75 9.1875 112.75 9.1875 112.75 Z M-20 117.25 C-20.928125 118.075 -21.85625 118.9 -22.8125 119.75 C-22.4825 120.41 -22.1525 121.07 -21.8125 121.75 C-19.8325 121.42 -17.8525 121.09 -15.8125 120.75 C-15.668125 120.13125 -15.52375 119.5125 -15.375 118.875 C-14.8125 116.75 -14.8125 116.75 -13.8125 114.75 C-17.1991371 114.75 -17.58919287 115.10706033 -20 117.25 Z M12.1875 114.75 C13.25280151 117.79928156 13.25280151 117.79928156 15.1875 120.75 C18.27711458 121.72474816 18.27711458 121.72474816 21.1875 121.75 C21.1875 121.09 21.1875 120.43 21.1875 119.75 C20.5275 119.75 19.8675 119.75 19.1875 119.75 C18.8575 118.43 18.5275 117.11 18.1875 115.75 C15.2175 115.255 15.2175 115.255 12.1875 114.75 Z M-0.8125 115.75 C0.1875 119.75 0.1875 119.75 0.1875 119.75 Z M-6.8125 119.75 C-7.1425 121.07 -7.4725 122.39 -7.8125 123.75 C-6.8225 122.76 -5.8325 121.77 -4.8125 120.75 C-5.4725 120.42 -6.1325 120.09 -6.8125 119.75 Z M4.1875 119.75 C4.1875 120.74 4.1875 121.73 4.1875 122.75 C4.8475 123.08 5.5075 123.41 6.1875 123.75 C6.1875 122.43 6.1875 121.11 6.1875 119.75 C5.5275 119.75 4.8675 119.75 4.1875 119.75 Z " fill="#807D90" transform="translate(61.8125,36.25)"/>
<path d="M0 0 C3.34125 -0.061875 6.6825 -0.12375 10.125 -0.1875 C11.68758545 -0.22846802 11.68758545 -0.22846802 13.28173828 -0.27026367 C18.61146268 -0.31793287 22.41551927 -0.05135893 27 3 C29.39834629 6.16145647 29.31634554 9.12476708 29 13 C28.608125 13.86625 28.21625 14.7325 27.8125 15.625 C27.544375 16.40875 27.27625 17.1925 27 18 C27.46921875 18.60714844 27.9384375 19.21429688 28.421875 19.83984375 C31.1328577 23.55066908 30.62877433 27.59143449 30 32 C28.4375 35 28.4375 35 26 37 C19 39 19 39 0 39 C0 26.13 0 13.26 0 0 Z M9 8 C9 10.31 9 12.62 9 15 C11.97 15 14.94 15 18 15 C18.66 13.68 19.32 12.36 20 11 C19.009245 9.33358994 19.009245 9.33358994 17 8 C14.28153765 7.72654521 11.74322801 7.86508715 9 8 Z M9 22 C9 24.64 9 27.28 9 30 C10.81242052 30.02687279 12.62495233 30.04633715 14.4375 30.0625 C15.95150391 30.07990234 15.95150391 30.07990234 17.49609375 30.09765625 C19.94021067 30.28612676 19.94021067 30.28612676 21 29 C21.33343551 26.54207971 21.33343551 26.54207971 21 24 C17.79619983 21.86413322 16.98060033 21.76867825 13.3125 21.875 C12.50425781 21.89304688 11.69601563 21.91109375 10.86328125 21.9296875 C10.24839844 21.95289063 9.63351563 21.97609375 9 22 Z " fill="#817E91" transform="translate(155,136)"/>
<path d="M0 0 C2.4375 1.9375 2.4375 1.9375 4 5 C3.84375 6.97915649 3.84375 6.97915649 3.4375 9.17822266 C2.78577301 14.15096992 3.74948553 17.60551123 5.5625 22.2109375 C5.83263916 22.94575348 6.10277832 23.68056946 6.38110352 24.43765259 C7.23640284 26.75715495 8.1162706 29.06619657 9 31.375 C9.88018583 33.70629 10.75476132 36.03932895 11.61889648 38.37661743 C12.15515263 39.82391326 12.70120359 41.26762618 13.25805664 42.7071228 C15.11167058 47.66498825 15.11167058 47.66498825 14 51 C7.9453125 51.1953125 7.9453125 51.1953125 6 51 C3.4345406 48.4345406 3.45953913 46.52313332 3 43 C-0.96 43 -4.92 43 -9 43 C-9.309375 44.134375 -9.61875 45.26875 -9.9375 46.4375 C-11 50 -11 50 -12 51 C-14.67058851 51.14115161 -17.32432238 51.04247107 -20 51 C-21.33700597 46.98898208 -19.94404263 44.61289318 -18.4375 40.875 C-17.88204627 39.43128415 -17.32738497 37.98726322 -16.7734375 36.54296875 C-15.89380577 34.27945469 -15.00766223 32.01917233 -14.10644531 29.76416016 C-9.43305598 18.29380537 -9.43305598 18.29380537 -9.72290039 6.07104492 C-10 4 -10 4 -8.4375 1.3125 C-5.2676958 -0.39431764 -3.54811129 -0.66527087 0 0 Z M-4 4 C-4.33 5.65 -4.66 7.3 -5 9 C-3.68 9 -2.36 9 -1 9 C-1 7.68 -1 6.36 -1 5 C-1.99 4.67 -2.98 4.34 -4 4 Z M-4 27 C-5.25664978 29.90600261 -6 31.79604584 -6 35 C-4.02 35 -2.04 35 0 35 C-0.66 32.36 -1.32 29.72 -2 27 C-2.66 27 -3.32 27 -4 27 Z " fill="#838092" transform="translate(138,124)"/>
<path d="M0 0 C3.50625 -0.061875 7.0125 -0.12375 10.625 -0.1875 C11.71893066 -0.21481201 12.81286133 -0.24212402 13.93994141 -0.27026367 C19.32137985 -0.31617027 23.46665026 -0.26430524 28 3 C30.77918806 6.90848349 30.58437524 11.38428254 30 16 C28.5 18.5625 28.5 18.5625 27 20 C27.474375 20.7425 27.94875 21.485 28.4375 22.25 C30.92343086 27.10460084 30.7491725 32.65477938 31 38 C28.03 38 25.06 38 22 38 C21.79503906 37.14535156 21.59007812 36.29070312 21.37890625 35.41015625 C21.10949219 34.30542969 20.84007812 33.20070312 20.5625 32.0625 C20.29566406 30.96035156 20.02882812 29.85820313 19.75390625 28.72265625 C19.27004275 26.10578746 19.27004275 26.10578746 18 25 C15.01110641 24.54234333 12.01030352 24.29679049 9 24 C9 28.62 9 33.24 9 38 C6.03 38 3.06 38 0 38 C0 25.46 0 12.92 0 0 Z M9 8 C9 10.97 9 13.94 9 17 C10.8871875 17.0309375 10.8871875 17.0309375 12.8125 17.0625 C13.52019531 17.07410156 14.22789062 17.08570313 14.95703125 17.09765625 C17.20305461 17.08263217 17.20305461 17.08263217 20 16 C20.33 14.02 20.66 12.04 21 10 C16.7975546 7.19836974 13.99895065 7.85510288 9 8 Z " fill="#7F7C90" transform="translate(188,83)"/>
<path d="M0 0 C4.53651398 3.90351203 7.42188479 8.12947183 7.92578125 14.16796875 C8.07998589 21.09094568 8.00154228 26.66249623 3.6875 32.3125 C-1.64800226 37.38773386 -6.25224251 37.66237281 -13.36328125 37.59375 C-18.64460807 37.09010029 -21.19968282 34.54562174 -24.625 30.75 C-27.54016379 26.53920786 -27.50293953 23.01796987 -27.5625 18 C-27.58828125 16.70449219 -27.6140625 15.40898437 -27.640625 14.07421875 C-27.18153501 8.81107989 -25.36791416 5.60245064 -22.0625 1.5625 C-15.42473604 -3.86839778 -7.39634804 -3.76795089 0 0 Z M-15.625 8.125 C-18.93488393 12.41559028 -18.9330175 17.10901757 -18.3125 22.3125 C-16.95873538 25.88649109 -16.95873538 25.88649109 -14.3125 28.3125 C-10.91831779 29.72599769 -10.91831779 29.72599769 -7.3125 29.3125 C-4.11167017 26.80750274 -2.5997642 25.1742926 -1.3125 21.3125 C-0.91712271 16.07375095 -1.50661343 12.78113417 -4.3125 8.3125 C-8.4174773 5.57584847 -11.59121887 4.96338777 -15.625 8.125 Z " fill="#7F7D90" transform="translate(215.3125,137.6875)"/>
<path d="M0 0 C2.97 0 5.94 0 9 0 C10.66342837 1.66342837 10.36048097 3.7825709 10.5625 6.0625 C10.64628906 6.98160156 10.73007813 7.90070313 10.81640625 8.84765625 C10.87699219 9.55792969 10.93757812 10.26820312 11 11 C12.10736686 9.91993807 13.21074581 8.83578674 14.3125 7.75 C14.92738281 7.14671875 15.54226562 6.5434375 16.17578125 5.921875 C18.06686472 4.05985635 18.06686472 4.05985635 19.375 1.78125 C21 0 21 0 23.69921875 -0.390625 C25.17841797 -0.32101563 25.17841797 -0.32101563 26.6875 -0.25 C27.68136719 -0.21390625 28.67523438 -0.1778125 29.69921875 -0.140625 C30.83810547 -0.07101563 30.83810547 -0.07101563 32 0 C31.43118463 5.35428381 26.82488755 8.08628498 23.0546875 11.46484375 C20.77594184 13.76511242 20.77594184 13.76511242 20.88671875 16.37890625 C22.41886299 19.98616514 24.57112288 22.89350773 26.9375 26 C29.86393023 29.87431216 32.45256802 33.33117667 34 38 C29.7244672 38.91153491 26.23459069 39.20410106 22 38 C17.95433543 34.17070296 15.4825042 28.91485681 13 24 C12.34 24.33 11.68 24.66 11 25 C10.53045739 28.04581269 10.53045739 28.04581269 10.375 31.5625 C10.30023438 32.76003906 10.22546875 33.95757812 10.1484375 35.19140625 C10.09945312 36.11824219 10.05046875 37.04507813 10 38 C6.7 38 3.4 38 0 38 C0 25.46 0 12.92 0 0 Z " fill="#817E91" transform="translate(222,83)"/>
<path d="M0 0 C1.23556641 0.01740234 1.23556641 0.01740234 2.49609375 0.03515625 C3.32238281 0.04417969 4.14867187 0.05320312 5 0.0625 C5.63808594 0.07410156 6.27617187 0.08570312 6.93359375 0.09765625 C6.94817627 0.93538574 6.96275879 1.77311523 6.9777832 2.63623047 C7.03880082 5.74144527 7.1129444 8.84598742 7.19604492 11.95068359 C7.24569334 13.95647961 7.28013539 15.96263312 7.31445312 17.96875 C7.34990234 19.22558594 7.38535156 20.48242188 7.421875 21.77734375 C7.44805908 22.93991699 7.47424316 24.10249023 7.5012207 25.30029297 C7.64390381 26.22342285 7.78658691 27.14655273 7.93359375 28.09765625 C10.77117175 30.44779783 10.77117175 30.44779783 14.05859375 29.78515625 C16.81445797 29.39121304 16.81445797 29.39121304 17.93359375 28.09765625 C18.09202025 26.02680905 18.18483797 23.95087596 18.25 21.875 C18.29189453 20.61494141 18.33378906 19.35488281 18.37695312 18.05664062 C18.41676971 16.71614889 18.45648189 15.37565405 18.49609375 14.03515625 C18.53927417 12.69074102 18.58288831 11.34633965 18.62695312 10.00195312 C18.73344733 6.70063285 18.83545835 3.39923389 18.93359375 0.09765625 C20.41266267 0.07076409 21.89186858 0.05131004 23.37109375 0.03515625 C24.19480469 0.02355469 25.01851562 0.01195313 25.8671875 0 C27.93359375 0.09765625 27.93359375 0.09765625 28.93359375 1.09765625 C29.21693945 5.29890026 29.16550719 9.5130102 29.18359375 13.72265625 C29.20421875 14.89957031 29.22484375 16.07648438 29.24609375 17.2890625 C29.28053957 24.94464599 29.0117785 30.44231185 23.93359375 36.47265625 C19.15383149 40.35621309 12.7676884 39.52209435 6.93359375 39.09765625 C3.14213451 37.8338365 1.56326011 36.90102367 -0.87890625 33.78515625 C-2.94956208 29.09893516 -3.19330517 24.37030783 -3.19921875 19.296875 C-3.20050781 18.23791016 -3.20179688 17.17894531 -3.203125 16.08789062 C-3.19925781 14.99798828 -3.19539062 13.90808594 -3.19140625 12.78515625 C-3.19527344 11.67591797 -3.19914063 10.56667969 -3.203125 9.42382812 C-3.20183594 8.37130859 -3.20054687 7.31878906 -3.19921875 6.234375 C-3.19809082 5.27233154 -3.19696289 4.31028809 -3.19580078 3.3190918 C-3.02695469 0.42035491 -2.90128145 0.1371116 0 0 Z " fill="#827F92" transform="translate(155.06640625,82.90234375)"/>
<path d="M0 0 C2.97 0 5.94 0 9 0 C9.02505615 0.77190674 9.0501123 1.54381348 9.07592773 2.33911133 C9.19184007 5.83041181 9.31458824 9.32143922 9.4375 12.8125 C9.47681641 14.02744141 9.51613281 15.24238281 9.55664062 16.49414062 C9.61948242 18.23920898 9.61948242 18.23920898 9.68359375 20.01953125 C9.72025146 21.09307861 9.75690918 22.16662598 9.79467773 23.27270508 C9.89541847 26.09311553 9.89541847 26.09311553 11 29 C15.50732541 30.20126995 15.50732541 30.20126995 19.69848633 28.90698242 C21.55198459 26.19123023 21.43496815 24.07035677 21.51171875 20.80078125 C21.54716797 19.59228516 21.58261719 18.38378906 21.61914062 17.13867188 C21.64169922 15.87603516 21.66425781 14.61339844 21.6875 13.3125 C21.72166016 12.03826172 21.75582031 10.76402344 21.79101562 9.45117188 C21.87360784 6.30086897 21.94272335 3.15084843 22 0 C24.97 0 27.94 0 31 0 C31.09938095 4.16253275 31.17170617 8.32442479 31.21972656 12.48779297 C31.23975843 13.90197795 31.26699248 15.31608097 31.30175781 16.72998047 C31.35065489 18.77071419 31.37305123 20.8103469 31.390625 22.8515625 C31.41157227 24.07697754 31.43251953 25.30239258 31.45410156 26.56494141 C30.79008021 31.58794162 28.60057739 34.74031097 24.65234375 37.84765625 C19.62172464 40.03327133 14.36620729 39.60074522 9 39 C3.8512316 36.69193141 2.1334632 34.11559684 0 29 C-0.34057617 25.65673828 -0.34057617 25.65673828 -0.29296875 22.0703125 C-0.28330078 20.78125 -0.27363281 19.4921875 -0.26367188 18.1640625 C-0.23861188 16.81770214 -0.21321712 15.47134797 -0.1875 14.125 C-0.17243504 12.75522295 -0.15874982 11.38542998 -0.14648438 10.015625 C-0.11121379 6.67667642 -0.06191896 3.33854325 0 0 Z " fill="#7F7C8F" transform="translate(257,83)"/>
<path d="M0 0 C9.9 0 19.8 0 30 0 C30 2.97 30 5.94 30 9 C26.7 9 23.4 9 20 9 C20 18.57 20 28.14 20 38 C16.7 38 13.4 38 10 38 C10 28.43 10 18.86 10 9 C6.7 9 3.4 9 0 9 C0 6.03 0 3.06 0 0 Z " fill="#858295" transform="translate(120,83)"/>
<path d="M0 0 C3.63 0 7.26 0 11 0 C9.78065514 4.03321763 8.44045073 7.54269479 6 11 C5.34 11 4.68 11 4 11 C0 4.5 0 4.5 0 0 Z " fill="#848293" transform="translate(56,120)"/>
<path d="M0 0 C2.4375 0.625 2.4375 0.625 5 2 C5.8125 5.125 5.8125 5.125 6 8 C-1 8 -1 8 -4 7 C-3.67 5.35 -3.34 3.7 -3 2 C-2.34 2 -1.68 2 -1 2 C-0.67 1.34 -0.34 0.68 0 0 Z M1 1 C2 5 2 5 2 5 Z " fill="#918F9D" transform="translate(60,151)"/>
<path d="M0 0 C1.65 0 3.3 0 5 0 C5.33 1.98 5.66 3.96 6 6 C4.68 6.99 3.36 7.98 2 9 C0.68 8.34 -0.64 7.68 -2 7 C-1.34 4.69 -0.68 2.38 0 0 Z " fill="#868492" transform="translate(36,124)"/>
<path d="M0 0 C0.99 0 1.98 0 3 0 C3 1.98 3 3.96 3 6 C0.97954558 5.39816251 -1.02111039 4.72693904 -3 4 C-3.33 3.34 -3.66 2.68 -4 2 C-3.01 2 -2.02 2 -1 2 C-0.67 1.34 -0.34 0.68 0 0 Z " fill="#C7C6CC" transform="translate(35,138)"/>
<path d="M0 0 C0.33 1.32 0.66 2.64 1 4 C0.34 4 -0.32 4 -1 4 C-1 4.66 -1 5.32 -1 6 C-2.65 6 -4.3 6 -6 6 C-6.33 5.34 -6.66 4.68 -7 4 C-6.67 3.34 -6.34 2.68 -6 2 C-3.03 2.495 -3.03 2.495 0 3 C0 2.01 0 1.02 0 0 Z " fill="#898796" transform="translate(77,145)"/>
<path d="M0 0 C0.99 0.33 1.98 0.66 3 1 C3.33 2.98 3.66 4.96 4 7 C3.01 7 2.02 7 1 7 C0.67 4.69 0.34 2.38 0 0 Z " fill="#898796" transform="translate(62,152)"/>
<path d="M0 0 C-0.33 1.32 -0.66 2.64 -1 4 C-2.32 4 -3.64 4 -5 4 C-5.33 3.01 -5.66 2.02 -6 1 C-4 0 -4 0 0 0 Z " fill="#868494" transform="translate(51,147)"/>
<path d="M0 0 C2 3 2 3 1.625 6.1875 C1.41875 7.115625 1.2125 8.04375 1 9 C0.01 8.34 -0.98 7.68 -2 7 C-1.34 4.69 -0.68 2.38 0 0 Z " fill="#9896A4" transform="translate(36,124)"/>
<path d="M0 0 C0.66 0.33 1.32 0.66 2 1 C1.360625 1.556875 0.72125 2.11375 0.0625 2.6875 C-2.19680987 5.22066561 -2.63149047 6.68341424 -3 10 C-3.33 10 -3.66 10 -4 10 C-4.25 7.25 -4.25 7.25 -4 4 C-2 1.625 -2 1.625 0 0 Z " fill="#8D8A97" transform="translate(132,124)"/>
</svg>
