<?xml version="1.0" encoding="UTF-8"?>
<svg version="1.1" xmlns="http://www.w3.org/2000/svg" width="300" height="80">
<path d="M0 0 C6.00288137 0.26679473 10.37783002 0.80779932 15 5 C17.53575255 8.88987891 19.01783227 13.04441709 20.4375 17.4375 C20.953125 18.613125 21.46875 19.78875 22 21 C24.48400985 21.66347631 24.48400985 21.66347631 27 22 C27.37125 22.886875 27.7425 23.77375 28.125 24.6875 C30.66342298 29.17204727 33.88587734 30.28053144 38.390625 32.55078125 C41.43339084 34.2407006 43.24412148 35.98992253 45 39 C45 39.66 45 40.32 45 41 C44.40574219 40.93941406 43.81148438 40.87882812 43.19921875 40.81640625 C36.80300071 40.16982122 30.40328386 39.57215654 24 39 C24 42.04200046 24.55486342 44.99532806 25 48 C24.2265625 47.566875 24.2265625 47.566875 23.4375 47.125 C20.37643275 45.71219973 17.25055082 44.8751483 14 44 C14.66 44.86625 15.32 45.7325 16 46.625 C18.12695385 50.21423463 18.38790972 51.92694798 18 56 C13.125 54.125 13.125 54.125 12 53 C9.25500485 52.79582681 6.51215668 52.68071101 3.76171875 52.57421875 C1 52 1 52 -0.95703125 49.953125 C-2.89527456 47.68429472 -2.89527456 47.68429472 -6.0234375 47.78515625 C-7.12945312 47.87667969 -8.23546875 47.96820313 -9.375 48.0625 C-16.60623633 48.28974424 -16.60623633 48.28974424 -19.6875 45.8125 C-22.68620723 42.16542364 -24 39.72635959 -24 35 C-23.236875 35.165 -22.47375 35.33 -21.6875 35.5 C-18.96403764 36.09145396 -18.96403764 36.09145396 -16 36 C-16.99 33.69 -17.98 31.38 -19 29 C-19.66386719 28.98582031 -20.32773437 28.97164062 -21.01171875 28.95703125 C-28.22636103 28.56733524 -28.22636103 28.56733524 -31.8125 25.9375 C-34.03509831 22.95286798 -35.9715627 19.91653908 -37.7890625 16.671875 C-38.98276074 14.68195643 -38.98276074 14.68195643 -42 14 C-41.67 12.68 -41.34 11.36 -41 10 C-38.03 10.33 -35.06 10.66 -32 11 C-31.67 10.01 -31.34 9.02 -31 8 C-24.87036113 7.57726628 -21.94093052 7.97831237 -17 12 C-15.125 13.75 -15.125 13.75 -14 15 C-13.67 14.67 -13.34 14.34 -13 14 C-13.8971875 12.2984375 -13.8971875 12.2984375 -14.8125 10.5625 C-15.14894531 9.92441406 -15.48539063 9.28632813 -15.83203125 8.62890625 C-16.99019799 6.67732013 -16.99019799 6.67732013 -20 6 C-19.67 5.01 -19.34 4.02 -19 3 C-12.27247974 2.3796344 -8.11689997 2.82435054 -2.69140625 7.00390625 C-2.13324219 7.33261719 -1.57507812 7.66132813 -1 8 C-0.01 7.67 0.98 7.34 2 7 C1.42415568 4.61435923 0.77772405 2.33317216 0 0 Z M-32 11 C-30.68 12.32 -29.36 13.64 -28 15 C-28 14.01 -28 13.02 -28 12 C-29.32 11.67 -30.64 11.34 -32 11 Z M-2 24 C-2 25.98 -2 27.96 -2 30 C-0.02 30 1.96 30 4 30 C4 28.02 4 26.04 4 24 C2.02 24 0.04 24 -2 24 Z " fill="#767283" transform="translate(42,13)"/>
<path d="M0 0 C1.32 0 2.64 0 4 0 C4 1.65 4 3.3 4 5 C4.99 5 5.98 5 7 5 C7 3.35 7 1.7 7 0 C12.94 0 18.88 0 25 0 C25 3.3 25 6.6 25 10 C26.65 9.34 28.3 8.68 30 8 C29.67 7.67 29.34 7.34 29 7 C28.875 4 28.875 4 29 1 C30 0 30 0 33.74609375 -0.09765625 C35.30992549 -0.09097892 36.8737412 -0.07901411 38.4375 -0.0625 C39.22705078 -0.05798828 40.01660156 -0.05347656 40.83007812 -0.04882812 C42.88674653 -0.03655474 44.94337944 -0.01864007 47 0 C47.66 0 48.32 0 49 0 C67.33333333 0 85.66666667 0 104 0 C104.68707555 2.49064888 105 4.37886292 105 7 C105.309375 7.99 105.309375 7.99 105.625 9 C106 11 106 11 104 14 C101.25 14.29296875 101.25 14.29296875 98 14.1875 C96.9275 14.16042969 95.855 14.13335937 94.75 14.10546875 C93.8425 14.07066406 92.935 14.03585938 92 14 C90.28191251 14 88.56403677 14.06405784 86.84765625 14.140625 C85.59855469 14.17671875 84.34945312 14.2128125 83.0625 14.25 C81.81597656 14.29640625 80.56945312 14.3428125 79.28515625 14.390625 C76 14 76 14 74.24609375 12.046875 C73.83488281 11.37140625 73.42367187 10.6959375 73 10 C72.01 9.67 71.02 9.34 70 9 C70 10.65 70 12.3 70 14 C53.33333333 14 53.33333333 14 49 13 C48.505 12.505 48.505 12.505 48 12 C47.67 12.66 47.34 13.32 47 14 C33.8 14 20.6 14 7 14 C7 12.35 7 10.7 7 9 C6.01 9 5.02 9 4 9 C4 10.65 4 12.3 4 14 C2.68 14 1.36 14 0 14 C0 9.38 0 4.76 0 0 Z M15 4 C15 4.33 15 4.66 15 5 C16.65 5 18.3 5 20 5 C20 4.67 20 4.34 20 4 C18.35 4 16.7 4 15 4 Z M37 4 C36.67 4.66 36.34 5.32 36 6 C36.66 6 37.32 6 38 6 C37.67 5.34 37.34 4.68 37 4 Z M79 4 C78.67 5.65 78.34 7.3 78 9 C78.99 9.33 79.98 9.66 81 10 C81.33 8.68 81.66 7.36 82 6 C81.01 5.34 80.02 4.68 79 4 Z M90 4 C90 4.66 90 5.32 90 6 C90.66 5.67 91.32 5.34 92 5 C91.34 4.67 90.68 4.34 90 4 Z M58 6 C59 9 59 9 59 9 Z M96 7 C96 7.99 96 8.98 96 10 C96.66 9.34 97.32 8.68 98 8 C97.34 7.67 96.68 7.34 96 7 Z M15 9 C15 9.33 15 9.66 15 10 C16.65 10 18.3 10 20 10 C20 9.67 20 9.34 20 9 C18.35 9 16.7 9 15 9 Z " fill="#767283" transform="translate(95,33)"/>
<path d="M0 0 C1.32 0 2.64 0 4 0 C4 3.3 4 6.6 4 10 C4.66 10 5.32 10 6 10 C6 6.7 6 3.4 6 0 C8.97 0 11.94 0 15 0 C15.33 0.66 15.66 1.32 16 2 C16.33 1.34 16.66 0.68 17 0 C21.29 0 25.58 0 30 0 C30.33 0.99 30.66 1.98 31 3 C31.66 2.01 32.32 1.02 33 0 C35.63223267 -0.36076355 35.63223267 -0.36076355 39.01025391 -0.34057617 C40.27141022 -0.34034958 41.53256653 -0.34012299 42.8319397 -0.33988953 C44.21348421 -0.32456844 45.59502513 -0.30892044 46.9765625 -0.29296875 C48.38617503 -0.28737433 49.79579338 -0.2831035 51.20541382 -0.28010559 C54.91768464 -0.26864454 58.629604 -0.23916704 62.34173584 -0.20599365 C66.12881719 -0.1753196 69.91595526 -0.16160599 73.703125 -0.14648438 C81.135577 -0.11429811 88.56773928 -0.0630871 96 0 C96 1.32 96 2.64 96 4 C95.34 4 94.68 4 94 4 C94 7.3 94 10.6 94 14 C92.35 14 90.7 14 89 14 C89 10.7 89 7.4 89 4 C88.34 4.33 87.68 4.66 87 5 C87.495 9.455 87.495 9.455 88 14 C82.33333333 14 76.66666667 14 71 14 C71 10.7 71 7.4 71 4 C70.34 4 69.68 4 69 4 C69 7.3 69 10.6 69 14 C58 14 47 14 36 14 C35.505 12.515 35.505 12.515 35 11 C34.67 11.99 34.34 12.98 34 14 C32.35 14 30.7 14 29 14 C28.67 13.34 28.34 12.68 28 12 C27.34 12.66 26.68 13.32 26 14 C23.8359375 14.1953125 23.8359375 14.1953125 21.375 14.125 C20.55773437 14.10695313 19.74046875 14.08890625 18.8984375 14.0703125 C18.27195313 14.04710937 17.64546875 14.02390625 17 14 C16.67 13.34 16.34 12.68 16 12 C15.67 12.66 15.34 13.32 15 14 C12.68756208 14.02685412 10.3750373 14.04632841 8.0625 14.0625 C6.77472656 14.07410156 5.48695313 14.08570313 4.16015625 14.09765625 C1 14 1 14 0 13 C-0.07258946 10.81360547 -0.08373783 8.62499611 -0.0625 6.4375 C-0.05347656 5.23996094 -0.04445312 4.04242188 -0.03515625 2.80859375 C-0.02355469 1.88175781 -0.01195312 0.95492187 0 0 Z M41 4 C42.98 4.99 42.98 4.99 45 6 C45.33 5.34 45.66 4.68 46 4 C44.35 4 42.7 4 41 4 Z M50 4 C50 4.66 50 5.32 50 6 C50.66 6 51.32 6 52 6 C52 5.34 52 4.68 52 4 C51.34 4 50.68 4 50 4 Z M55 8 C55.33 8.66 55.66 9.32 56 10 C56.66 9.34 57.32 8.68 58 8 C57.01 8 56.02 8 55 8 Z M45 8 C43.02 8.99 43.02 8.99 41 10 C42.65 10 44.3 10 46 10 C45.67 9.34 45.34 8.68 45 8 Z " fill="#767283" transform="translate(204,33)"/>
<path d="M0 0 C1.32 0 2.64 0 4 0 C4.07347656 0.95712891 4.07347656 0.95712891 4.1484375 1.93359375 C4.22320312 2.75988281 4.29796875 3.58617187 4.375 4.4375 C4.44460937 5.26121094 4.51421875 6.08492187 4.5859375 6.93359375 C4.72257812 7.61550781 4.85921875 8.29742187 5 9 C5.66 9.33 6.32 9.66 7 10 C7 6.7 7 3.4 7 0 C13.0546875 -0.1953125 13.0546875 -0.1953125 15 0 C15.66 0.66 16.32 1.32 17 2 C17.33 1.34 17.66 0.68 18 0 C21.96 0 25.92 0 30 0 C30.33 1.32 30.66 2.64 31 4 C31.66 4 32.32 4 33 4 C33.33 2.68 33.66 1.36 34 0 C37.27081471 -0.02902429 40.5415963 -0.04680684 43.8125 -0.0625 C44.74126953 -0.07087891 45.67003906 -0.07925781 46.62695312 -0.08789062 C47.51962891 -0.09111328 48.41230469 -0.09433594 49.33203125 -0.09765625 C50.56530151 -0.10551147 50.56530151 -0.10551147 51.82348633 -0.11352539 C54 0 54 0 57 1 C59.33517612 0.6798312 61.66818704 0.34380793 64 0 C67.10507544 -0.16586796 70.20348971 -0.18496617 73.3125 -0.1875 C74.12267578 -0.19974609 74.93285156 -0.21199219 75.76757812 -0.22460938 C77.84639427 -0.22980209 79.92482241 -0.12305073 82 0 C82.99 0.99 82.99 0.99 84 2 C84.66 1.34 85.32 0.68 86 0 C87.32 0 88.64 0 90 0 C89.21824485 4.84688192 87.60155722 9.3766367 86 14 C84.68 14 83.36 14 82 14 C81.01 9.545 81.01 9.545 80 5 C78.68 5 77.36 5 76 5 C76 7.97 76 10.94 76 14 C74.68 14 73.36 14 72 14 C72 11.03 72 8.06 72 5 C71.34 5 70.68 5 70 5 C70 7.97 70 10.94 70 14 C64.27762406 14.7253716 59.27697554 15.05818305 53.58203125 14.2578125 C48.07997734 13.70843949 42.52324273 13.92928992 37 14 C36.505 12.02 36.505 12.02 36 10 C35.34 11.32 34.68 12.64 34 14 C31.5625 13.625 31.5625 13.625 29 13 C28.67 12.34 28.34 11.68 28 11 C27.67 11.99 27.34 12.98 27 14 C25.54257537 14.08096803 24.08387193 14.13917774 22.625 14.1875 C21.81289062 14.22230469 21.00078125 14.25710937 20.1640625 14.29296875 C19.44992188 14.19628906 18.73578125 14.09960938 18 14 C17.34 13.01 16.68 12.02 16 11 C15.67 11.99 15.34 12.98 15 14 C13.25285767 14.25002209 11.50200859 14.47423194 9.75 14.6875 C8.77546875 14.81511719 7.8009375 14.94273438 6.796875 15.07421875 C4 15 4 15 1.65625 13.90625 C-0.69626251 11.19864126 -0.40175122 9.34071588 -0.25 5.8125 C-0.21390625 4.72582031 -0.1778125 3.63914063 -0.140625 2.51953125 C-0.09421875 1.68808594 -0.0478125 0.85664062 0 0 Z M41 4 C41 4.33 41 4.66 41 5 C42.65 5 44.3 5 46 5 C46 4.67 46 4.34 46 4 C44.35 4 42.7 4 41 4 Z M51 4 C51 4.66 51 5.32 51 6 C51.66 5.67 52.32 5.34 53 5 C52.34 4.67 51.68 4.34 51 4 Z " fill="#767283" transform="translate(95,51)"/>
<path d="M0 0 C3.94434865 0.78886973 7.80411393 0.6333752 11.8125 0.5625 C14.14583333 0.5625 16.47916667 0.5625 18.8125 0.5625 C18.8125 5.1825 18.8125 9.8025 18.8125 14.5625 C13.8125 13.5625 13.8125 13.5625 12.8125 12.5625 C12.4825 13.2225 12.1525 13.8825 11.8125 14.5625 C-9.3875 14.5625 -9.3875 14.5625 -13.1875 13.5625 C-13.6825 12.5725 -13.6825 12.5725 -14.1875 11.5625 C-14.5175 12.5525 -14.8475 13.5425 -15.1875 14.5625 C-28.3875 14.5625 -41.5875 14.5625 -55.1875 14.5625 C-55.1875 12.9125 -55.1875 11.2625 -55.1875 9.5625 C-56.1775 9.5625 -57.1675 9.5625 -58.1875 9.5625 C-58.1875 11.2125 -58.1875 12.8625 -58.1875 14.5625 C-59.5075 14.5625 -60.8275 14.5625 -62.1875 14.5625 C-62.1875 9.9425 -62.1875 5.3225 -62.1875 0.5625 C-60.8675 0.5625 -59.5475 0.5625 -58.1875 0.5625 C-58.1875 1.8825 -58.1875 3.2025 -58.1875 4.5625 C-57.1975 4.5625 -56.2075 4.5625 -55.1875 4.5625 C-55.1875 3.2425 -55.1875 1.9225 -55.1875 0.5625 C-49.2475 0.5625 -43.3075 0.5625 -37.1875 0.5625 C-37.1875 3.8625 -37.1875 7.1625 -37.1875 10.5625 C-35.8675 10.2325 -34.5475 9.9025 -33.1875 9.5625 C-33.208125 8.263125 -33.22875 6.96375 -33.25 5.625 C-33.27149454 4.27084367 -33.25898199 2.91493917 -33.1875 1.5625 C-32.1875 0.5625 -32.1875 0.5625 -28.44140625 0.46484375 C-26.87757451 0.47152108 -25.3137588 0.48348589 -23.75 0.5 C-22.96044922 0.50451172 -22.17089844 0.50902344 -21.35742188 0.51367188 C-19.30075347 0.52594526 -17.24412056 0.54385993 -15.1875 0.5625 C-14.5275 0.5625 -13.8675 0.5625 -13.1875 0.5625 C-10.85416667 0.5625 -8.52083333 0.5625 -6.1875 0.5625 C-5.589375 0.376875 -4.99125 0.19125 -4.375 0 C-2.1875 -0.4375 -2.1875 -0.4375 0 0 Z M1.8125 3.5625 C1.4825 4.2225 1.1525 4.8825 0.8125 5.5625 C1.4725 5.5625 2.1325 5.5625 2.8125 5.5625 C2.4825 4.9025 2.1525 4.2425 1.8125 3.5625 Z M-25.1875 4.5625 C-24.1875 6.5625 -24.1875 6.5625 -24.1875 6.5625 Z M-4.1875 5.5625 C-3.1875 8.5625 -3.1875 8.5625 -3.1875 8.5625 Z M-47.1875 9.5625 C-47.1875 9.8925 -47.1875 10.2225 -47.1875 10.5625 C-45.5375 10.5625 -43.8875 10.5625 -42.1875 10.5625 C-42.1875 10.2325 -42.1875 9.9025 -42.1875 9.5625 C-43.8375 9.5625 -45.4875 9.5625 -47.1875 9.5625 Z " fill="#767283" transform="translate(157.1875,14.4375)"/>
<path d="M0 0 C1.36125 0.556875 1.36125 0.556875 2.75 1.125 C3.08 0.795 3.41 0.465 3.75 0.125 C5.81190685 0.07553897 7.87531388 0.08901856 9.9375 0.125 C14.79772676 0.19460474 19.61221924 0.10240247 24.46484375 -0.19921875 C25.44235596 -0.25787109 26.41986816 -0.31652344 27.42700195 -0.37695312 C29.36782354 -0.49910836 31.30788153 -0.63419301 33.24682617 -0.78320312 C37.28340681 -1.0286977 40.05606167 -1.15924275 43.83984375 0.390625 C45.75 2.125 45.75 2.125 46.6875 5.5625 C46.74684526 8.9451801 46.71140888 10.4409668 44.75 13.125 C41.95129973 14.52435013 39.84501208 14.37765405 36.75 14.125 C34.875 12.625 34.875 12.625 33.75 11.125 C33.42 12.115 33.09 13.105 32.75 14.125 C31.1 14.125 29.45 14.125 27.75 14.125 C27.75 10.825 27.75 7.525 27.75 4.125 C26.76 4.125 25.77 4.125 24.75 4.125 C25.41 5.115 26.07 6.105 26.75 7.125 C27 9.6875 27 9.6875 26.75 12.125 C24.75 14.125 24.75 14.125 21.9296875 14.3203125 C20.83914062 14.29710937 19.74859375 14.27390625 18.625 14.25 C17.52929688 14.23195313 16.43359375 14.21390625 15.3046875 14.1953125 C14.04011719 14.16050781 14.04011719 14.16050781 12.75 14.125 C12.255 12.145 12.255 12.145 11.75 10.125 C10.76 10.125 9.77 10.125 8.75 10.125 C8.42 11.445 8.09 12.765 7.75 14.125 C6.96625 13.939375 6.1825 13.75375 5.375 13.5625 C2.77910225 12.86537734 2.77910225 12.86537734 0.75 14.125 C-2.25 14.3125 -2.25 14.3125 -5.25 14.125 C-5.91 13.465 -6.57 12.805 -7.25 12.125 C-7.58 12.785 -7.91 13.445 -8.25 14.125 C-12.21 14.125 -16.17 14.125 -20.25 14.125 C-20.58 11.485 -20.91 8.845 -21.25 6.125 C-21.91 8.765 -22.57 11.405 -23.25 14.125 C-24.9 13.795 -26.55 13.465 -28.25 13.125 C-29.34845718 8.80440177 -30.42812739 4.50832057 -31.25 0.125 C-30.280625 0.310625 -29.31125 0.49625 -28.3125 0.6875 C-27.301875 0.831875 -26.29125 0.97625 -25.25 1.125 C-24.92 0.795 -24.59 0.465 -24.25 0.125 C-21.57941149 -0.01615161 -18.92567762 0.08252893 -16.25 0.125 C-16.25 3.425 -16.25 6.725 -16.25 10.125 C-14.93 10.125 -13.61 10.125 -12.25 10.125 C-12.25 6.825 -12.25 3.525 -12.25 0.125 C-11.5075 0.33125 -10.765 0.5375 -10 0.75 C-7.29068389 1.39718132 -7.29068389 1.39718132 -5.3125 0.0625 C-3.25 -0.875 -3.25 -0.875 0 0 Z M-3.25 4.125 C-3.25 5.775 -3.25 7.425 -3.25 9.125 C-2.26 9.125 -1.27 9.125 -0.25 9.125 C-0.58 7.475 -0.91 5.825 -1.25 4.125 C-1.91 4.125 -2.57 4.125 -3.25 4.125 Z M32.75 4.125 C33.75 6.125 33.75 6.125 33.75 6.125 Z M38.75 4.125 C38.42 5.445 38.09 6.765 37.75 8.125 C39.235 9.115 39.235 9.115 40.75 10.125 C41.08 8.475 41.41 6.825 41.75 5.125 C40.76 4.795 39.77 4.465 38.75 4.125 Z " fill="#767283" transform="translate(210.25,14.875)"/>
<path d="M0 0 C1.32 0 2.64 0 4 0 C4 1.65 4 3.3 4 5 C4.66 5 5.32 5 6 5 C6 3.35 6 1.7 6 0 C11.94 0 17.88 0 24 0 C24 3.3 24 6.6 24 10 C25.65 9.67 27.3 9.34 29 9 C28.773125 8.071875 28.54625 7.14375 28.3125 6.1875 C28 3 28 3 29.0078125 1.32421875 C32.0250472 -0.68135491 35.06529979 -0.43455497 38.5625 -0.375 C39.24763672 -0.38660156 39.93277344 -0.39820313 40.63867188 -0.41015625 C42.62890625 -0.3984375 42.62890625 -0.3984375 46 0 C46.66 0.99 47.32 1.98 48 3 C48.33 2.01 48.66 1.02 49 0 C55.33333333 0 61.66666667 0 68 0 C69.31164842 2.62329684 69.13262846 4.63698625 69.125 7.5625 C69.12886719 9.04943359 69.12886719 9.04943359 69.1328125 10.56640625 C69 13 69 13 68 14 C65.32461486 14.04246643 62.67290614 14.04919459 60 14 C58.63521541 14 57.27026567 14.024506 55.90625 14.0703125 C55.1121875 14.08835937 54.318125 14.10640625 53.5 14.125 C52.7059375 14.14820312 51.911875 14.17140625 51.09375 14.1953125 C49 14 49 14 47 12 C46.67 12.66 46.34 13.32 46 14 C45.40832031 13.98839844 44.81664062 13.97679688 44.20703125 13.96484375 C43.02173828 13.95130859 43.02173828 13.95130859 41.8125 13.9375 C40.64654297 13.92009766 40.64654297 13.92009766 39.45703125 13.90234375 C37.01250196 13.92484558 37.01250196 13.92484558 34.73242188 14.51367188 C31.6682684 15.05904301 28.93250688 15.01671213 25.82421875 14.87890625 C24.08881836 14.80639648 24.08881836 14.80639648 22.31835938 14.73242188 C21.12017578 14.67634766 19.92199219 14.62027344 18.6875 14.5625 C17.46998047 14.51029297 16.25246094 14.45808594 14.99804688 14.40429688 C11.99842021 14.27490121 8.99914994 14.13994552 6 14 C6 12.68 6 11.36 6 10 C5.34 10 4.68 10 4 10 C4 11.32 4 12.64 4 14 C2.35 14 0.7 14 -1 14 C-1.02685938 11.85423363 -1.04633088 9.70837355 -1.0625 7.5625 C-1.07410156 6.36753906 -1.08570313 5.17257813 -1.09765625 3.94140625 C-1 1 -1 1 0 0 Z M15 4 C16.98 4.99 16.98 4.99 19 6 C19.33 5.34 19.66 4.68 20 4 C18.35 4 16.7 4 15 4 Z M63 4 C62.01 5.485 62.01 5.485 61 7 C61.99 7.99 62.98 8.98 64 10 C64 8.02 64 6.04 64 4 C63.67 4 63.34 4 63 4 Z " fill="#767283" transform="translate(212,51)"/>
<path d="M0 0 C0.66 0.66 1.32 1.32 2 2 C2.33 1.34 2.66 0.68 3 0 C5.97 0 8.94 0 12 0 C12 2.97 12 5.94 12 9 C10.35 9.33 8.7 9.66 7 10 C7 11.32 7 12.64 7 14 C6.236875 13.79375 5.47375 13.5875 4.6875 13.375 C1.78114056 12.66608797 1.78114056 12.66608797 -1 15 C-4 14.9375 -4 14.9375 -7 14 C-9.52366824 11.15069714 -10.02743228 9.68580708 -9.875 5.875 C-8.1488631 0.20340733 -5.83475519 -0.62071864 0 0 Z M-4 5 C-4.33 6.32 -4.66 7.64 -5 9 C-3.68 9 -2.36 9 -1 9 C-1.33 7.68 -1.66 6.36 -2 5 C-2.66 5 -3.32 5 -4 5 Z " fill="#767283" transform="translate(196,51)"/>
<path d="M0 0 C3.3 0 6.6 0 10 0 C10 2.97 10 5.94 10 9 C6.7 9 3.4 9 0 9 C0 6.03 0 3.06 0 0 Z " fill="#767283" transform="translate(38,71)"/>
<path d="M0 0 C3.3 0 6.6 0 10 0 C10 2.97 10 5.94 10 9 C6.7 9 3.4 9 0 9 C0 6.03 0 3.06 0 0 Z " fill="#767283" transform="translate(38,0)"/>
</svg>
