<?xml version="1.0" encoding="UTF-8"?>
<svg version="1.1" xmlns="http://www.w3.org/2000/svg" width="254" height="199">
<path d="M0 0 C2.16823592 0.00316105 4.33510585 -0.02034993 6.50317383 -0.0456543 C13.64635397 -0.07813661 19.6958851 0.13801816 26.23950195 3.31567383 C27.37452148 3.73719727 27.37452148 3.73719727 28.5324707 4.16723633 C39.49177931 8.64134582 50.89933796 16.08429566 56.0625 27.06616211 C58.14741885 32.0910334 58.8196017 36.64671187 58.80200195 42.06567383 C58.79958496 42.84918213 58.79716797 43.63269043 58.79467773 44.43994141 C58.5646604 51.76667004 56.3878731 57.25561091 52.23950195 63.31567383 C51.78317383 63.98856445 51.3268457 64.66145508 50.85668945 65.35473633 C42.48171941 76.2182689 29.2759983 81.72742912 16.23950195 84.31567383 C14.07393777 84.59518573 11.90722982 84.86596962 9.73950195 85.12817383 C-0.43931196 86.5822901 -9.00183443 91.9556806 -17.0925293 98.08129883 C-25.71176697 104.43911732 -25.71176697 104.43911732 -31.76049805 104.31567383 C-33.24549805 103.32567383 -33.24549805 103.32567383 -34.76049805 102.31567383 C-34.26549805 100.83067383 -34.26549805 100.83067383 -33.76049805 99.31567383 C-33.10049805 99.31567383 -32.44049805 99.31567383 -31.76049805 99.31567383 C-31.57487305 98.65567383 -31.38924805 97.99567383 -31.19799805 97.31567383 C-29.4636634 93.69619282 -27.13212481 91.20571326 -24.44799805 88.25317383 C-22.56517819 86.09141769 -21.1046922 83.84592164 -19.76049805 81.31567383 C-20.34057617 81.14551758 -20.9206543 80.97536133 -21.51831055 80.80004883 C-26.54865281 79.2394806 -30.51510741 77.52137696 -34.76049805 74.31567383 C-35.54553711 73.76008789 -36.33057617 73.20450195 -37.1394043 72.63208008 C-43.41609915 67.98302293 -47.40511381 63.36973243 -50.76049805 56.31567383 C-51.2690332 55.25413086 -51.2690332 55.25413086 -51.7878418 54.17114258 C-54.9683398 46.27119593 -55.40802983 36.35499757 -52.13549805 28.44067383 C-51.38992877 27.04014265 -50.59787349 25.66332493 -49.76049805 24.31567383 C-49.34799805 23.64149414 -48.93549805 22.96731445 -48.51049805 22.27270508 C-37.41167481 5.97130845 -18.8296387 -0.05743986 0 0 Z M27.23950195 15.19067383 C21.92733143 16.37466429 16.71980992 16.6067198 11.30200195 16.81567383 C-2.48055618 17.4048017 -14.69174398 18.92096421 -25.2956543 28.65161133 C-30.79680571 34.90091933 -33.31713944 43.70464623 -33.06518555 51.92114258 C-32.06444534 59.78593417 -28.79160132 65.03204318 -22.76049805 70.03833008 C-20.5887943 71.42533618 -19.33197755 72.1054105 -16.76049805 72.31567383 C-14.54119168 70.74209606 -14.54119168 70.74209606 -12.4597168 68.39770508 C-11.64696289 67.55530273 -10.83420898 66.71290039 -9.99682617 65.8449707 C-9.15571289 64.94842773 -8.31459961 64.05188477 -7.44799805 63.12817383 C2.61018917 52.49166038 2.61018917 52.49166038 9.23950195 49.31567383 C6.03902578 55.04986031 2.56846285 60.59298623 -0.95581055 66.13208008 C-2.67192045 69.15941681 -3.78865386 71.98435226 -4.76049805 75.31567383 C2.96022643 76.03388076 11.1553012 73.99427302 17.64575195 69.73754883 C19.64889733 68.02717086 21.44889942 66.2459105 23.23950195 64.31567383 C24.05161133 63.53063477 24.05161133 63.53063477 24.88012695 62.72973633 C35.28466124 51.95736498 36.49530962 36.30535386 36.4074707 22.09301758 C36.26152233 19.67977818 35.93102191 17.6225844 35.23950195 15.31567383 C32.16978961 14.34268465 30.32851766 14.36163652 27.23950195 15.19067383 Z " fill="#7A7686" transform="translate(195.760498046875,-0.315673828125)"/>
<path d="M0 0 C1.0725 -0.01417969 2.145 -0.02835937 3.25 -0.04296875 C6 0.1875 6 0.1875 8 2.1875 C8.24050903 4.02249146 8.24050903 4.02249146 8.22705078 6.27001953 C8.22689972 7.11074005 8.22674866 7.95146057 8.22659302 8.81765747 C8.21627045 9.72603363 8.20594788 10.63440979 8.1953125 11.5703125 C8.1924826 12.49971649 8.18965271 13.42912048 8.18673706 14.38668823 C8.17552069 17.3620885 8.1504136 20.33719035 8.125 23.3125 C8.11497208 25.32681858 8.1058459 27.34114186 8.09765625 29.35546875 C8.07557661 34.29959456 8.04103693 39.24349665 8 44.1875 C12.61918566 43.45450692 14.05596695 42.47740336 16.875 38.6875 C17.57238281 37.79289062 18.26976562 36.89828125 18.98828125 35.9765625 C21.01290991 33.26731778 21.01290991 33.26731778 22.54296875 30.5234375 C24.201161 27.83793334 25.44219421 26.05734423 28 24.1875 C33.41930392 23.31858207 39.97401036 22.67450518 45 25.1875 C43.79618552 27.68111571 42.54571278 29.86893083 41 32.1875 C40.34 32.1875 39.68 32.1875 39 32.1875 C38.7628125 32.89648438 38.525625 33.60546875 38.28125 34.3359375 C36.7834693 37.66941284 34.86184979 40.02889132 32.5 42.8125 C30.18155004 45.56001375 27.99502675 48.19495988 26 51.1875 C26.77085937 52.20070312 27.54171875 53.21390625 28.3359375 54.2578125 C29.34937505 55.60906256 30.36237274 56.9606426 31.375 58.3125 C31.88289063 58.97765625 32.39078125 59.6428125 32.9140625 60.328125 C35.77222714 64.16408281 37.78296851 67.48066738 39 72.1875 C39.66 72.1875 40.32 72.1875 41 72.1875 C41 73.1775 41 74.1675 41 75.1875 C41.66 75.1875 42.32 75.1875 43 75.1875 C45.1875 78 45.1875 78 47 81.1875 C46.505 82.6725 46.505 82.6725 46 84.1875 C43.60225255 84.32322155 41.21224755 84.42186868 38.8125 84.5 C38.13896484 84.54189453 37.46542969 84.58378906 36.77148438 84.62695312 C33.16580074 84.71489663 31.28035415 84.39516974 28.36328125 82.234375 C25.36609776 78.37023761 22.85009785 74.33742614 20.375 70.125 C19.42629469 68.52886741 18.47583025 66.93377884 17.5234375 65.33984375 C17.11013184 64.63851318 16.69682617 63.93718262 16.27099609 63.21459961 C13.68643917 58.72088815 13.68643917 58.72088815 9.3125 56.4375 C8.549375 56.355 7.78625 56.2725 7 56.1875 C7.33 56.8475 7.66 57.5075 8 58.1875 C8.09677483 60.06182763 8.13075828 61.93958308 8.1328125 63.81640625 C8.13474609 65.49186523 8.13474609 65.49186523 8.13671875 67.20117188 C8.13285156 68.37228516 8.12898438 69.54339844 8.125 70.75 C8.13080078 72.5124707 8.13080078 72.5124707 8.13671875 74.31054688 C8.13542969 75.42623047 8.13414062 76.54191406 8.1328125 77.69140625 C8.13168457 78.72080322 8.13055664 79.7502002 8.12939453 80.81079102 C8 83.1875 8 83.1875 7 84.1875 C4.66839945 84.28659302 2.33370058 84.31720504 0 84.3125 C-1.27875 84.31507813 -2.5575 84.31765625 -3.875 84.3203125 C-7 84.1875 -7 84.1875 -8 83.1875 C-8.09506052 80.63160112 -8.12556761 78.10282028 -8.11352539 75.54663086 C-8.11367142 74.74669205 -8.11381744 73.94675323 -8.1139679 73.12257385 C-8.11326855 70.46580335 -8.10547518 67.80910207 -8.09765625 65.15234375 C-8.09579215 63.31531309 -8.09436821 61.47828194 -8.09336853 59.64125061 C-8.08954275 54.79640338 -8.07971196 49.95158592 -8.06866455 45.10675049 C-8.05845172 40.16687422 -8.05387119 35.22699315 -8.04882812 30.28710938 C-8.03808974 20.58722647 -8.0210126 10.88736571 -8 1.1875 C-5.27457733 -0.17521133 -3.03912726 0.01826399 0 0 Z " fill="#797586" transform="translate(127,84.8125)"/>
<path d="M0 0 C3.86694063 4.19198781 5.35185881 8.7276587 5.34375 14.36328125 C4.91753058 21.11931254 4.00237388 25.25919164 -1.15234375 29.8984375 C-5.06552022 32.63766103 -8.18295559 32.81141535 -12.8515625 32.96484375 C-14.66430664 33.02768555 -14.66430664 33.02768555 -16.51367188 33.09179688 C-17.77630859 33.13111328 -19.03894531 33.17042969 -20.33984375 33.2109375 C-22.25120117 33.27571289 -22.25120117 33.27571289 -24.20117188 33.34179688 C-27.35145227 33.4479861 -30.50181214 33.55003283 -33.65234375 33.6484375 C-33.28109375 34.7621875 -32.90984375 35.8759375 -32.52734375 37.0234375 C-32.31851563 37.64992187 -32.1096875 38.27640625 -31.89453125 38.921875 C-29.96177787 41.60828064 -27.80889922 41.89118422 -24.65234375 42.6484375 C-21.56432779 42.91999871 -21.56432779 42.91999871 -18.37890625 42.84375 C-17.22519531 42.83730469 -16.07148438 42.83085937 -14.8828125 42.82421875 C-13.69300781 42.80746094 -12.50320312 42.79070312 -11.27734375 42.7734375 C-9.45783203 42.75990234 -9.45783203 42.75990234 -7.6015625 42.74609375 C-4.61828602 42.72260338 -1.63541781 42.68975432 1.34765625 42.6484375 C3.27127112 46.17506476 3.69983835 48.59834338 3.34765625 52.6484375 C-2.08171083 58.07780458 -12.44070155 57.01443921 -19.58984375 57.0234375 C-21.1202832 57.06017578 -21.1202832 57.06017578 -22.68164062 57.09765625 C-30.25090108 57.12663874 -37.67707221 56.14025752 -43.56347656 50.96972656 C-51.25794773 42.73373791 -52.11952402 32.71548508 -51.9375 21.87890625 C-51.56269977 13.59751632 -49.3099418 5.81458369 -43.65234375 -0.3515625 C-32.02017581 -8.75821662 -11.2367739 -9.19130915 0 0 Z M-32.58984375 10.2734375 C-34.14728289 13.44471007 -34.14728289 13.44471007 -34.65234375 20.6484375 C-27.39234375 20.6484375 -20.13234375 20.6484375 -12.65234375 20.6484375 C-10.45898737 15.5095293 -10.45898737 15.5095293 -11.65234375 10.6484375 C-12.62755912 8.75493419 -12.62755912 8.75493419 -14.65234375 7.6484375 C-20.88565216 6.27499666 -27.39113781 5.91323252 -32.58984375 10.2734375 Z " fill="#7C7888" transform="translate(222.65234375,113.3515625)"/>
<path d="M0 0 C1.27875 0.00257812 2.5575 0.00515625 3.875 0.0078125 C5.15375 0.00523438 6.4325 0.00265625 7.75 0 C10.875 0.1328125 10.875 0.1328125 11.875 1.1328125 C12.74276749 6.63145456 13.0017221 11.94315147 12.9375 17.5 C12.93371338 18.26079865 12.92992676 19.02159729 12.92602539 19.80545044 C12.91392842 22.20629891 12.89528023 24.60702011 12.875 27.0078125 C12.8484487 30.19270472 12.82847259 33.37753923 12.8125 36.5625 C12.80420166 37.29266327 12.79590332 38.02282654 12.78735352 38.77511597 C12.7005358 42.57962054 12.7005358 42.57962054 13.875 46.1328125 C20.05168796 47.84125811 24.99921788 46.46463512 30.875 44.1328125 C34.00009493 42.54929453 34.00009493 42.54929453 34.27372742 40.33578491 C34.28483047 39.61186554 34.29593353 38.88794617 34.30737305 38.14208984 C34.32716721 37.32139008 34.34696136 36.50069031 34.36735535 35.65512085 C34.37374527 34.76861847 34.38013519 33.88211609 34.38671875 32.96875 C34.40466995 32.06154205 34.42262115 31.15433411 34.44111633 30.21963501 C34.49539427 27.31574178 34.52917073 24.4120145 34.5625 21.5078125 C34.59565767 19.54164348 34.63014587 17.57549641 34.66601562 15.609375 C34.75113065 10.78397362 34.81785806 5.95862295 34.875 1.1328125 C38.25622435 0.00573772 40.4643502 0.15990462 44 0.4453125 C45.61261719 0.56326172 45.61261719 0.56326172 47.2578125 0.68359375 C48.12148437 0.83183594 48.98515625 0.98007813 49.875 1.1328125 C51.16835514 3.71952278 51.00206076 5.58828034 51.00439453 8.48461914 C51.00754669 9.6024025 51.01069885 10.72018585 51.01394653 11.87184143 C51.0119223 13.08331345 51.00989807 14.29478546 51.0078125 15.54296875 C51.00876923 16.7807457 51.00972595 18.01852264 51.01071167 19.29380798 C51.01156799 22.5863316 51.00753316 25.8788083 51.00195312 29.17132568 C51.00000057 31.19471738 51.00194773 33.21806576 51.00537109 35.24145508 C51.01152249 39.11281369 51.01080714 42.98410753 51.0078125 46.85546875 C51.00983673 48.068965 51.01186096 49.28246124 51.01394653 50.5327301 C51.00921829 52.2046769 51.00921829 52.2046769 51.00439453 53.91040039 C51.00359894 54.89698135 51.00280334 55.88356232 51.00198364 56.90003967 C50.875 59.1328125 50.875 59.1328125 49.875 60.1328125 C48.02212498 60.20507752 46.16666122 60.2166247 44.3125 60.1953125 C43.30058594 60.18628906 42.28867188 60.17726562 41.24609375 60.16796875 C40.07240234 60.15056641 40.07240234 60.15056641 38.875 60.1328125 C38.58625 59.1634375 38.2975 58.1940625 38 57.1953125 C37.23285318 54.02617047 37.23285318 54.02617047 34.875 53.1328125 C34.875 53.7928125 34.875 54.4528125 34.875 55.1328125 C33.10502526 55.94718118 31.33398848 56.7592419 29.5625 57.5703125 C28.57636719 58.02277344 27.59023437 58.47523438 26.57421875 58.94140625 C22.00966557 60.95615114 18.48270764 61.32407724 13.5 61.3828125 C12.19289063 61.40859375 10.88578125 61.434375 9.5390625 61.4609375 C5.69061827 61.1163007 3.90002099 60.46983233 0.875 58.1328125 C-2.57669605 53.5305511 -4.24898731 50.13152522 -4.25439453 44.40185547 C-4.25754669 43.44431366 -4.26069885 42.48677185 -4.26394653 41.50021362 C-4.2619223 40.46889313 -4.25989807 39.43757263 -4.2578125 38.375 C-4.25876923 37.31620636 -4.25972595 36.25741272 -4.26071167 35.16653442 C-4.26139226 32.92889344 -4.25954639 30.69125047 -4.25537109 28.45361328 C-4.25001059 25.01460377 -4.25532563 21.57572424 -4.26171875 18.13671875 C-4.26105816 15.96614554 -4.25977738 13.79557242 -4.2578125 11.625 C-4.25983673 10.58963104 -4.26186096 9.55426208 -4.26394653 8.48751831 C-4.26079437 7.53628082 -4.25764221 6.58504333 -4.25439453 5.60498047 C-4.25359894 4.76353485 -4.25280334 3.92208923 -4.25198364 3.05514526 C-4.03572241 -0.21870984 -3.35286575 0.14249679 0 0 Z " fill="#7C7888" transform="translate(58.125,108.8671875)"/>
<path d="M0 0 C4.95 0 9.9 0 15 0 C16.40020855 2.80041711 16.16363335 5.15302039 16.20532227 8.28564453 C16.21522186 8.92967224 16.22512146 9.57369995 16.23532104 10.23724365 C16.26694499 12.36906235 16.29169687 14.50090335 16.31640625 16.6328125 C16.33697502 18.10969629 16.35797147 19.58657418 16.37937927 21.06344604 C16.43460799 24.95305611 16.4840137 28.84271937 16.53222656 32.73242188 C16.58243577 36.70056907 16.63812486 40.66863889 16.69335938 44.63671875 C16.80095072 52.42441367 16.90239348 60.21217286 17 68 C19.9528472 69.4764236 22.68448983 69.22272939 25.9765625 69.31640625 C27.00443375 69.3475779 27.00443375 69.3475779 28.05307007 69.37937927 C30.24361069 69.44480185 32.43427189 69.50372554 34.625 69.5625 C36.1093875 69.60569218 37.59376278 69.6493067 39.078125 69.69335938 C42.71862084 69.80047553 46.35925251 69.90176362 50 70 C51.23886292 74.14092371 52.26311551 77.65859407 52 82 C48.19359001 84.50485532 44.30163029 84.28929443 39.91015625 84.265625 C38.73784706 84.26849518 38.73784706 84.26849518 37.54185486 84.27142334 C35.89191363 84.2727819 34.24196159 84.26910844 32.59204102 84.26074219 C30.07478645 84.25005218 27.55824785 84.26064093 25.04101562 84.2734375 C23.43489427 84.27211556 21.82877335 84.26955247 20.22265625 84.265625 C19.47355484 84.26967346 18.72445343 84.27372192 17.95265198 84.27789307 C11.13962479 84.21718067 7.00538886 82.59954652 2 78 C-0.43955585 74.37442179 -0.24163058 71.03939064 -0.22705078 66.75292969 C-0.22734283 66.03058136 -0.22763489 65.30823303 -0.22793579 64.56399536 C-0.22654562 62.18316517 -0.21099934 59.80265033 -0.1953125 57.421875 C-0.19158125 55.76849539 -0.18873481 54.11511357 -0.18673706 52.46173096 C-0.17910938 48.11500926 -0.15946833 43.76842171 -0.1373291 39.42175293 C-0.11685204 34.98431208 -0.10773136 30.5468495 -0.09765625 26.109375 C-0.07622159 17.40618165 -0.04104651 8.70312298 0 0 Z " fill="#7B7787" transform="translate(0,85)"/>
<path d="M0 0 C1.32 0 2.64 0 4 0 C5.32 2.31 6.64 4.62 8 7 C8.33 4.69 8.66 2.38 9 0 C9.99 0 10.98 0 12 0 C13.125 3.75 13.125 3.75 12 6 C12.66 5.67 13.32 5.34 14 5 C14.144375 4.34 14.28875 3.68 14.4375 3 C14.623125 2.34 14.80875 1.68 15 1 C18.47325181 -0.1577506 21.36067448 -0.06866652 25 0 C25.99 1.98 26.98 3.96 28 6 C28 5.01 28 4.02 28 3 C28.33 2.01 28.66 1.02 29 0 C30.32 0 31.64 0 33 0 C34.32 2.31 35.64 4.62 37 7 C37.74957157 3.52852158 37.74957157 3.52852158 38 0 C39.32 0.33 40.64 0.66 42 1 C42.02693575 3.12493141 42.04636628 5.24995912 42.0625 7.375 C42.07410156 8.55835938 42.08570313 9.74171875 42.09765625 10.9609375 C42 14 42 14 41 16 C39.68 15.67 38.36 15.34 37 15 C37 14.34 37 13.68 37 13 C36.34 13 35.68 13 35 13 C34.505 11.515 34.505 11.515 34 10 C33.34 11.98 32.68 13.96 32 16 C31.34 16 30.68 16 30 16 C29.34 15.34 28.68 14.68 28 14 C27.01 14.66 26.02 15.32 25 16 C21.40427296 16.55820763 18.08540519 16.77028755 15.0625 14.625 C14 13 14 13 13 11 C12.67 12.65 12.34 14.3 12 16 C10.125 15.6875 10.125 15.6875 8 15 C7.34 14.01 6.68 13.02 6 12 C5.34 12 4.68 12 4 12 C3.67 13.32 3.34 14.64 3 16 C2.01 16 1.02 16 0 16 C-0.70869772 10.95052873 -1.20877927 6.11509204 -1 1 C-0.67 0.67 -0.34 0.34 0 0 Z M18 3 C16.39919849 7.00200378 17.70720308 10.04556236 19 14 C20.65 13.67 22.3 13.34 24 13 C24 9.7 24 6.4 24 3 C22.02 3 20.04 3 18 3 Z M27 9 C28 11 28 11 28 11 Z " fill="#8A8893" transform="translate(54,183)"/>
<path d="M0 0 C0.99 0 1.98 0 3 0 C3.33 1.65 3.66 3.3 4 5 C4.66 5 5.32 5 6 5 C6.4125 4.175 6.825 3.35 7.25 2.5 C7.8275 1.675 8.405 0.85 9 0 C12.125 -0.375 12.125 -0.375 15 0 C16.79849929 1.79849929 16.42218132 4.50077848 16.625 6.9375 C16.72039062 8.01902344 16.81578125 9.10054687 16.9140625 10.21484375 C17 13 17 13 16 15 C17.65 14.67 19.3 14.34 21 14 C20.98839844 13.22914063 20.97679687 12.45828125 20.96484375 11.6640625 C20.95582031 10.66117188 20.94679687 9.65828125 20.9375 8.625 C20.92589844 7.62726563 20.91429687 6.62953125 20.90234375 5.6015625 C21 3 21 3 22 1 C22.763125 1.20625 23.52625 1.4125 24.3125 1.625 C27.21885944 2.33391203 27.21885944 2.33391203 30 0 C33.1875 0.375 33.1875 0.375 36 1 C36 1.99 36 2.98 36 4 C35.360625 4.12375 34.72125 4.2475 34.0625 4.375 C33.381875 4.58125 32.70125 4.7875 32 5 C31.67 5.66 31.34 6.32 31 7 C33.475 7.495 33.475 7.495 36 8 C36 8.66 36 9.32 36 10 C36.66 10 37.32 10 38 10 C38 11.98 38 13.96 38 16 C35.63386544 17.18306728 34.13219264 17.13354608 31.5 17.125 C30.7059375 17.12757813 29.911875 17.13015625 29.09375 17.1328125 C27 17 27 17 25 16 C24.34 16.33 23.68 16.66 23 17 C17.81034483 17.49425287 17.81034483 17.49425287 15 17 C12.11849433 14.11849433 11.8472548 11.60089052 11.8125 7.6875 C11.9053125 5.8621875 11.9053125 5.8621875 12 4 C11.566875 4.928125 11.566875 4.928125 11.125 5.875 C10 8 10 8 8 10 C9.3089572 13.12197478 9.3089572 13.12197478 12 15 C11.67 15.66 11.34 16.32 11 17 C9.0625 16.625 9.0625 16.625 7 16 C6.67 15.34 6.34 14.68 6 14 C5.34 14 4.68 14 4 14 C3.67 14.99 3.34 15.98 3 17 C2.01 17 1.02 17 0 17 C-0.19561869 14.9174133 -0.38119313 12.83388144 -0.5625 10.75 C-0.66691406 9.58984375 -0.77132812 8.4296875 -0.87890625 7.234375 C-0.98198087 4.48128523 -0.86213473 2.580018 0 0 Z M26 8 C24.99782936 11.58327753 24.99782936 11.58327753 26 15 C28.3431213 14.74438677 30.67843403 14.40729228 33 14 C33.33 13.34 33.66 12.68 34 12 C33.05125 11.525625 32.1025 11.05125 31.125 10.5625 C29.41666667 9.70833333 27.70833333 8.85416667 26 8 Z " fill="#A6A4AD" transform="translate(188,182)"/>
<path d="M0 0 C0.33 -0.66 0.66 -1.32 1 -2 C3.475 -1.505 3.475 -1.505 6 -1 C6.495 1.475 6.495 1.475 7 4 C8.32 4 9.64 4 11 4 C11 2.02 11 0.04 11 -2 C11.99 -2 12.98 -2 14 -2 C14.02692484 0.29160319 14.04636124 2.58329546 14.0625 4.875 C14.07410156 6.15117187 14.08570313 7.42734375 14.09765625 8.7421875 C14 12 14 12 13 14 C12.01 14 11.02 14 10 14 C7.8125 11 7.8125 11 6 8 C5.67 8.99 5.34 9.98 5 11 C4.67 11.99 4.34 12.98 4 14 C3.34 14 2.68 14 2 14 C1.34 13.01 0.68 12.02 0 11 C-0.33 11.495 -0.66 11.99 -1 12.5 C-4.07696877 14.80772658 -7.3378441 14.4494799 -11 14 C-13.5 13 -13.5 13 -15 12 C-15.66 12.66 -16.32 13.32 -17 14 C-18.875 14.265625 -18.875 14.265625 -21 14.25 C-22.051875 14.25773437 -22.051875 14.25773437 -23.125 14.265625 C-25 14 -25 14 -27 12 C-27.1953125 8.7421875 -27.1953125 8.7421875 -27.125 4.875 C-27.10695313 3.59367188 -27.08890625 2.31234375 -27.0703125 0.9921875 C-27.04710937 0.00476563 -27.02390625 -0.98265625 -27 -2 C-26.01 -2 -25.02 -2 -24 -2 C-23.67 2.29 -23.34 6.58 -23 11 C-21.68 11 -20.36 11 -19 11 C-18.67 6.71 -18.34 2.42 -18 -2 C-17.01 -2 -16.02 -2 -15 -2 C-15 -0.68 -15 0.64 -15 2 C-14.34 2 -13.68 2 -13 2 C-13 1.01 -13 0.02 -13 -1 C-7.48845808 -3.09438593 -5.01697937 -3.18149912 0 0 Z M-10 1 C-11.02703748 6.55493924 -11.02703748 6.55493924 -10 12 C-8.35 12 -6.7 12 -5 12 C-4.08995387 8.92859432 -3.66305174 6.20100846 -4 3 C-6.81509993 0.7226499 -6.81509993 0.7226499 -10 1 Z M1 1 C0.67 1.66 0.34 2.32 0 3 C0.99 4.485 0.99 4.485 2 6 C2 4.35 2 2.7 2 1 C1.67 1 1.34 1 1 1 Z M-1 3 C0 5 0 5 0 5 Z M4 3 C5 5 5 5 5 5 Z M-15 4 C-14 6 -14 6 -14 6 Z M10 6 C10 9 10 9 10 9 Z M-1 8 C0 10 0 10 0 10 Z " fill="#888590" transform="translate(38,185)"/>
<path d="M0 0 C1.0725 -0.01417969 2.145 -0.02835937 3.25 -0.04296875 C6 0.1875 6 0.1875 8 2.1875 C8.24050903 4.02249146 8.24050903 4.02249146 8.22705078 6.27001953 C8.22689972 7.11074005 8.22674866 7.95146057 8.22659302 8.81765747 C8.21627045 9.72603363 8.20594788 10.63440979 8.1953125 11.5703125 C8.1924826 12.49971649 8.18965271 13.42912048 8.18673706 14.38668823 C8.17552069 17.3620885 8.1504136 20.33719035 8.125 23.3125 C8.11497208 25.32681858 8.1058459 27.34114186 8.09765625 29.35546875 C8.07557661 34.29959456 8.04103693 39.24349665 8 44.1875 C11.37462715 43.64026317 13.08235 43.1326 16 41.1875 C14.125 45.0625 14.125 45.0625 13 46.1875 C10.69 46.1875 8.38 46.1875 6 46.1875 C6 31.9975 6 17.8075 6 3.1875 C2.04 2.8575 -1.92 2.5275 -6 2.1875 C-6 28.5875 -6 54.9875 -6 82.1875 C-2.04 82.1875 1.92 82.1875 6 82.1875 C6 73.2775 6 64.3675 6 55.1875 C8.31 55.1875 10.62 55.1875 13 55.1875 C13 56.1775 13 57.1675 13 58.1875 C11.02 57.5275 9.04 56.8675 7 56.1875 C7.33 56.8475 7.66 57.5075 8 58.1875 C8.09677483 60.06182763 8.13075828 61.93958308 8.1328125 63.81640625 C8.13474609 65.49186523 8.13474609 65.49186523 8.13671875 67.20117188 C8.13285156 68.37228516 8.12898438 69.54339844 8.125 70.75 C8.13080078 72.5124707 8.13080078 72.5124707 8.13671875 74.31054688 C8.13542969 75.42623047 8.13414062 76.54191406 8.1328125 77.69140625 C8.13168457 78.72080322 8.13055664 79.7502002 8.12939453 80.81079102 C8 83.1875 8 83.1875 7 84.1875 C4.66839945 84.28659302 2.33370058 84.31720504 0 84.3125 C-1.27875 84.31507813 -2.5575 84.31765625 -3.875 84.3203125 C-7 84.1875 -7 84.1875 -8 83.1875 C-8.09506052 80.63160112 -8.12556761 78.10282028 -8.11352539 75.54663086 C-8.11367142 74.74669205 -8.11381744 73.94675323 -8.1139679 73.12257385 C-8.11326855 70.46580335 -8.10547518 67.80910207 -8.09765625 65.15234375 C-8.09579215 63.31531309 -8.09436821 61.47828194 -8.09336853 59.64125061 C-8.08954275 54.79640338 -8.07971196 49.95158592 -8.06866455 45.10675049 C-8.05845172 40.16687422 -8.05387119 35.22699315 -8.04882812 30.28710938 C-8.03808974 20.58722647 -8.0210126 10.88736571 -8 1.1875 C-5.27457733 -0.17521133 -3.03912726 0.01826399 0 0 Z " fill="#9D9AA4" transform="translate(127,84.8125)"/>
<path d="M0 0 C2.49310643 3.73965964 2.0603261 5.29070641 1.625 9.6875 C1.45871094 11.45673828 1.45871094 11.45673828 1.2890625 13.26171875 C1.14597656 14.61716797 1.14597656 14.61716797 1 16 C-1.8605891 14.64062915 -3.85927699 13.35479531 -6 11 C-6.33 12.65 -6.66 14.3 -7 16 C-7.66 16 -8.32 16 -9 16 C-9.66 15.01 -10.32 14.02 -11 13 C-11 13.99 -11 14.98 -11 16 C-11.99 16 -12.98 16 -14 16 C-14 15.01 -14 14.02 -14 13 C-16.41619823 12.74969023 -16.41619823 12.74969023 -19 13 C-19.99 14.485 -19.99 14.485 -21 16 C-21.99 16 -22.98 16 -24 16 C-23.47606294 10.13190493 -22.23891142 5.45126259 -20 0 C-18.35 0 -16.7 0 -15 0 C-14.34 2.97 -13.68 5.94 -13 9 C-12.01 9 -11.02 9 -10 9 C-10 6.03 -10 3.06 -10 0 C-6.23918426 -1.25360525 -3.84551868 -0.83902226 0 0 Z M-6 3 C-6 4.65 -6 6.3 -6 8 C-4.68 7.67 -3.36 7.34 -2 7 C-2 6.01 -2 5.02 -2 4 C-3.32 3.67 -4.64 3.34 -6 3 Z M-17 8 C-16 10 -16 10 -16 10 Z " fill="#7D7A86" transform="translate(133,183)"/>
<path d="M0 0 C2.33534901 0.03794942 4.6696518 0.15510753 7 0.3125 C8.27875 0.39113281 9.5575 0.46976562 10.875 0.55078125 C11.90625 0.69902344 12.9375 0.84726563 14 1 C15.29335514 3.58671028 15.12706076 5.45546784 15.12939453 8.35180664 C15.13254669 9.46959 15.13569885 10.58737335 15.13894653 11.73902893 C15.1369223 12.95050095 15.13489807 14.16197296 15.1328125 15.41015625 C15.13424759 17.26682167 15.13424759 17.26682167 15.13571167 19.16099548 C15.13656799 22.4535191 15.13253316 25.7459958 15.12695312 29.03851318 C15.12500057 31.06190488 15.12694773 33.08525326 15.13037109 35.10864258 C15.13652249 38.98000119 15.13580714 42.85129503 15.1328125 46.72265625 C15.13483673 47.9361525 15.13686096 49.14964874 15.13894653 50.3999176 C15.13579437 51.5145488 15.13264221 52.62917999 15.12939453 53.77758789 C15.12859894 54.76416885 15.12780334 55.75074982 15.12698364 56.76722717 C15 59 15 59 14 60 C12.14712498 60.07226502 10.29166122 60.0838122 8.4375 60.0625 C7.42558594 60.05347656 6.41367188 60.04445312 5.37109375 60.03515625 C4.19740234 60.01775391 4.19740234 60.01775391 3 60 C2.71125 59.030625 2.4225 58.06125 2.125 57.0625 C1.35785318 53.89335797 1.35785318 53.89335797 -1 53 C-1 52.34 -1 51.68 -1 51 C0.32 51 1.64 51 3 51 C3.66 52.98 4.32 54.96 5 57 C7.64 57.33 10.28 57.66 13 58 C13 39.52 13 21.04 13 2 C8.71 2 4.42 2 0 2 C0 15.53 0 29.06 0 43 C-0.66 42.67 -1.32 42.34 -2 42 C-1.8820735 36.17913293 -1.75784958 30.3584481 -1.62768555 24.5378418 C-1.58426856 22.55610854 -1.54259863 20.57433622 -1.50268555 18.5925293 C-1.44514617 15.7503683 -1.38140555 12.90840517 -1.31640625 10.06640625 C-1.29969376 9.17474258 -1.28298126 8.28307892 -1.26576233 7.36439514 C-1.11387171 1.11387171 -1.11387171 1.11387171 0 0 Z " fill="#9D9BA5" transform="translate(94,109)"/>
<path d="M0 0 C2.31 0 4.62 0 7 0 C7.99 1.98 8.98 3.96 10 6 C10 5.01 10 4.02 10 3 C10.33 2.01 10.66 1.02 11 0 C12.32 0 13.64 0 15 0 C16.32 2.31 17.64 4.62 19 7 C19.74957157 3.52852158 19.74957157 3.52852158 20 0 C21.32 0.33 22.64 0.66 24 1 C24.02693575 3.12493141 24.04636628 5.24995912 24.0625 7.375 C24.07410156 8.55835938 24.08570312 9.74171875 24.09765625 10.9609375 C24 14 24 14 23 16 C21.68 15.67 20.36 15.34 19 15 C19 14.34 19 13.68 19 13 C18.34 13 17.68 13 17 13 C16.67 12.01 16.34 11.02 16 10 C15.34 11.98 14.68 13.96 14 16 C13.34 16 12.68 16 12 16 C11.34 15.34 10.68 14.68 10 14 C9.34 14 8.68 14 8 14 C5.96564469 10.27034861 5 8.33094958 5 4 C3.35 3.67 1.7 3.34 0 3 C0 2.01 0 1.02 0 0 Z M9 9 C10 11 10 11 10 11 Z " fill="#817E8A" transform="translate(72,183)"/>
<path d="M0 0 C0.33 0 0.66 0 1 0 C1 26.4 1 52.8 1 80 C4.96 80 8.92 80 13 80 C13 71.09 13 62.18 13 53 C15.31 53 17.62 53 20 53 C20 53.99 20 54.98 20 56 C18.02 55.34 16.04 54.68 14 54 C14.33 54.66 14.66 55.32 15 56 C15.09677483 57.87432763 15.13075828 59.75208308 15.1328125 61.62890625 C15.13474609 63.30436523 15.13474609 63.30436523 15.13671875 65.01367188 C15.13285156 66.18478516 15.12898437 67.35589844 15.125 68.5625 C15.12886719 69.73748047 15.13273438 70.91246094 15.13671875 72.12304688 C15.13542969 73.23873047 15.13414062 74.35441406 15.1328125 75.50390625 C15.13168457 76.53330322 15.13055664 77.5627002 15.12939453 78.62329102 C15 81 15 81 14 82 C9.38 82 4.76 82 0 82 C0 54.94 0 27.88 0 0 Z " fill="#7D7A88" transform="translate(120,87)"/>
<path d="M0 0 C0.99 0.33 1.98 0.66 3 1 C5.3555448 1.15179014 7.71475123 1.24899289 10.07421875 1.31640625 C10.7580513 1.33718735 11.44188385 1.35796844 12.1464386 1.37937927 C14.3266921 1.44466154 16.50706405 1.50366017 18.6875 1.5625 C20.16732986 1.60570553 21.64714783 1.64932047 23.12695312 1.69335938 C26.75117622 1.80032083 30.37553189 1.90164823 34 2 C35.23886292 6.14092371 36.26311551 9.65859407 36 14 C32.19359001 16.50485532 28.30163029 16.28929443 23.91015625 16.265625 C22.73784706 16.26849518 22.73784706 16.26849518 21.54185486 16.27142334 C19.89191363 16.2727819 18.24196159 16.26910844 16.59204102 16.26074219 C14.07478645 16.25005218 11.55824785 16.26064093 9.04101562 16.2734375 C7.43489427 16.27211556 5.82877335 16.26955247 4.22265625 16.265625 C3.47355484 16.26967346 2.72445343 16.27372192 1.95265198 16.27789307 C-2.11454775 16.24164935 -5.3915042 15.95239792 -9 14 C-9.33 13.34 -9.66 12.68 -10 12 C-9.01 12.33 -8.02 12.66 -7 13 C-5.63407817 13.08567246 -4.26435142 13.11773647 -2.89575195 13.11352539 C-2.07512772 13.11344986 -1.25450348 13.11337433 -0.40901184 13.11329651 C0.47232925 13.10813522 1.35367035 13.10297394 2.26171875 13.09765625 C3.16751175 13.0962413 4.07330475 13.09482635 5.00654602 13.09336853 C7.90023091 13.08777001 10.79383849 13.07521781 13.6875 13.0625 C15.64908742 13.05748481 17.61067606 13.05292193 19.57226562 13.04882812 C24.38154021 13.03780107 29.190757 13.02053747 34 13 C34 10.03 34 7.06 34 4 C23.44 4 12.88 4 2 4 C1.34 2.68 0.68 1.36 0 0 Z " fill="#9896A1" transform="translate(16,153)"/>
<path d="M0 0 C0.928125 0.20625 1.85625 0.4125 2.8125 0.625 C2.8125 1.615 2.8125 2.605 2.8125 3.625 C2.173125 3.74875 1.53375 3.8725 0.875 4 C0.194375 4.20625 -0.48625 4.4125 -1.1875 4.625 C-1.5175 5.285 -1.8475 5.945 -2.1875 6.625 C-0.5375 6.955 1.1125 7.285 2.8125 7.625 C2.8125 8.285 2.8125 8.945 2.8125 9.625 C3.4725 9.625 4.1325 9.625 4.8125 9.625 C4.8125 11.605 4.8125 13.585 4.8125 15.625 C2.48654054 16.78797973 1.02526769 16.79100691 -1.5625 16.8125 C-2.33335937 16.82667969 -3.10421875 16.84085938 -3.8984375 16.85546875 C-6.1875 16.625 -6.1875 16.625 -10.1875 14.625 C-9.8575 10.335 -9.5275 6.045 -9.1875 1.625 C-9.8475 1.295 -10.5075 0.965 -11.1875 0.625 C-10.0428125 0.934375 -10.0428125 0.934375 -8.875 1.25 C-4.98254422 1.79313336 -4.04533507 -0.47592177 0 0 Z M-7.1875 7.625 C-8.18967064 11.20827753 -8.18967064 11.20827753 -7.1875 14.625 C-4.8443787 14.36938677 -2.50906597 14.03229228 -0.1875 13.625 C0.1425 12.965 0.4725 12.305 0.8125 11.625 C-0.13625 11.150625 -1.085 10.67625 -2.0625 10.1875 C-3.77083333 9.33333333 -5.47916667 8.47916667 -7.1875 7.625 Z " fill="#888591" transform="translate(221.1875,182.375)"/>
<path d="M0 0 C2.49310643 3.73965964 2.0603261 5.29070641 1.625 9.6875 C1.45871094 11.45673828 1.45871094 11.45673828 1.2890625 13.26171875 C1.14597656 14.61716797 1.14597656 14.61716797 1 16 C-1.8605891 14.64062915 -3.85927699 13.35479531 -6 11 C-6.33 12.65 -6.66 14.3 -7 16 C-7.66 16 -8.32 16 -9 16 C-9.33 10.72 -9.66 5.44 -10 0 C-6.23918426 -1.25360525 -3.84551868 -0.83902226 0 0 Z M-6 3 C-6 4.65 -6 6.3 -6 8 C-4.68 7.67 -3.36 7.34 -2 7 C-2 6.01 -2 5.02 -2 4 C-3.32 3.67 -4.64 3.34 -6 3 Z " fill="#696673" transform="translate(133,183)"/>
<path d="M0 0 C0.99 0 1.98 0 3 0 C3.33 1.98 3.66 3.96 4 6 C4.66 6 5.32 6 6 6 C6.66 4.02 7.32 2.04 8 0 C9.32 0 10.64 0 12 0 C10.8905928 3.48670834 9.73662334 6.77484237 8 10 C8.66 10.61875 9.32 11.2375 10 11.875 C12 14 12 14 12 16 C10.125 15.75 10.125 15.75 8 15 C6.75 12.9375 6.75 12.9375 6 11 C5.01 11.495 5.01 11.495 4 12 C3.34786708 14.02463255 3.34786708 14.02463255 3 16 C2.01 16 1.02 16 0 16 C-0.19389096 13.5211787 -0.38040123 11.04219069 -0.5625 8.5625 C-0.61857422 7.85544922 -0.67464844 7.14839844 -0.73242188 6.41992188 C-0.86190993 4.61572163 -0.93521608 2.80768048 -1 1 C-0.67 0.67 -0.34 0.34 0 0 Z " fill="#7B7884" transform="translate(150,183)"/>
<path d="M0 0 C2.35546875 0.16796875 2.35546875 0.16796875 5 1 C6.36328125 3.36328125 6.36328125 3.36328125 7.3125 6.3125 C7.63863281 7.27800781 7.96476563 8.24351562 8.30078125 9.23828125 C9 12 9 12 9 16 C8.01 16 7.02 16 6 16 C5.34 15.01 4.68 14.02 4 13 C1.06296616 13.62936439 -1.33788628 14.62420173 -4 16 C-2.98408579 10.53135543 -1.92908943 5.23609987 0 0 Z M1 7 C1 7.99 1 8.98 1 10 C1.99 9.67 2.98 9.34 4 9 C3.67 8.34 3.34 7.68 3 7 C2.34 7 1.68 7 1 7 Z " fill="#84828D" transform="translate(140,183)"/>
<path d="M0 0 C3.63 0 7.26 0 11 0 C10.67 0.99 10.34 1.98 10 3 C7.69 3 5.38 3 3 3 C3 4.32 3 5.64 3 7 C5.31 7 7.62 7 10 7 C9.67 8.32 9.34 9.64 9 11 C7.35 10.67 5.7 10.34 4 10 C4 10.99 4 11.98 4 13 C5.98 13 7.96 13 10 13 C10.33 13.99 10.66 14.98 11 16 C7.37 16 3.74 16 0 16 C0 10.72 0 5.44 0 0 Z " fill="#8E8B96" transform="translate(163,183)"/>
<path d="M0 0 C1.890625 0.21484375 1.890625 0.21484375 4 1 C5.046875 3.06640625 5.046875 3.06640625 5.75 5.5625 C5.99234375 6.38878906 6.2346875 7.21507812 6.484375 8.06640625 C6.65453125 8.70449219 6.8246875 9.34257812 7 10 C7.185625 8.9171875 7.185625 8.9171875 7.375 7.8125 C7.9904931 5.04278106 8.88444374 2.6029646 10 0 C10.99 0 11.98 0 13 0 C14.09658936 3.28976808 13.79953138 4.71303767 13 8 C12.34 8 11.68 8 11 8 C11.061875 9.1446875 11.061875 9.1446875 11.125 10.3125 C11 13 11 13 9 16 C7.35 15.67 5.7 15.34 4 15 C2.32525354 9.97576062 0.81539292 5.24181161 0 0 Z " fill="#86838E" transform="translate(97,183)"/>
<path d="M0 0 C0 0.99 0 1.98 0 3 C-3 4 -3 4 -6 3 C-5.26023529 6.2925712 -5.26023529 6.2925712 -1.9375 7.875 C-0.968125 8.57625 0.00125 9.2775 1 10 C1.375 12.75 1.375 12.75 1 15 C-1.40545638 16.20272819 -2.94996953 16.10071472 -5.625 16.0625 C-6.85089844 16.04896484 -6.85089844 16.04896484 -8.1015625 16.03515625 C-8.72804687 16.02355469 -9.35453125 16.01195312 -10 16 C-10 15.01 -10 14.02 -10 13 C-7.69 13 -5.38 13 -3 13 C-5.36292656 10.47411298 -6.66462511 9.11179163 -10 8 C-10.33 6.02 -10.66 4.04 -11 2 C-10.34 2 -9.68 2 -9 2 C-9 1.34 -9 0.68 -9 0 C-5.93109813 -1.53445094 -3.29905734 -0.54984289 0 0 Z " fill="#8E8B96" transform="translate(185,183)"/>
<path d="M0 0 C0.2246285 1.39330381 0.4289245 2.78989209 0.625 4.1875 C0.79902344 5.35345703 0.79902344 5.35345703 0.9765625 6.54296875 C1 9 1 9 -1 14 C-8.92 14 -16.84 14 -25 14 C-25 4 -25 4 -23 1 C-22.34 1 -21.68 1 -21 1 C-21 0.34 -21 -0.32 -21 -1 C-14.16053329 -2.43988773 -6.36764068 -3.39607503 0 0 Z M-21.9375 2.625 C-23.49493914 5.79627257 -23.49493914 5.79627257 -24 13 C-16.74 13 -9.48 13 -2 13 C0.19335638 7.8610918 0.19335638 7.8610918 -1 3 C-1.97521537 1.10649669 -1.97521537 1.10649669 -4 0 C-10.23330841 -1.37344084 -16.73879406 -1.73520498 -21.9375 2.625 Z " fill="#A5A2AC" transform="translate(212,121)"/>
<path d="M0 0 C2.97 0 5.94 0 9 0 C9 0.33 9 0.66 9 1 C7.02 1 5.04 1 3 1 C3.33 4.63 3.66 8.26 4 12 C5.65 12 7.3 12 9 12 C9.66 10.68 10.32 9.36 11 8 C11.04254356 9.99954746 11.04080783 12.00041636 11 14 C10 15 10 15 6.125 15.25 C2.30271222 15.19529821 2.30271222 15.19529821 0.0625 13.75 C-1.11379201 11.81257787 -1.70044632 10.24665257 -2 8 C-1.67 7.67 -1.34 7.34 -1 7 C-0.63239269 4.67182036 -0.29758419 2.3381615 0 0 Z " fill="#797682" transform="translate(69,184)"/>
<path d="M0 0 C0.66 0 1.32 0 2 0 C2.33 3.96 2.66 7.92 3 12 C4.65 12 6.3 12 8 12 C8 8.37 8 4.74 8 1 C8.99 0.67 9.98 0.34 11 0 C11.02693575 2.12493141 11.04636628 4.24995912 11.0625 6.375 C11.07410156 7.55835938 11.08570313 8.74171875 11.09765625 9.9609375 C11 13 11 13 10 15 C4.78074866 15.42780749 4.78074866 15.42780749 2 15 C-0.76287022 12.15079009 -0.97774292 10.32272759 -1.25 6.375 C-1 3 -1 3 0 0 Z " fill="#75737F" transform="translate(201,184)"/>
<path d="M0 0 C2.31 0 4.62 0 7 0 C7 0.99 7 1.98 7 3 C5.02 2.34 3.04 1.68 1 1 C1.33 1.66 1.66 2.32 2 3 C2.09677483 4.87432763 2.13075828 6.75208308 2.1328125 8.62890625 C2.13474609 10.30436523 2.13474609 10.30436523 2.13671875 12.01367188 C2.13285156 13.18478516 2.12898437 14.35589844 2.125 15.5625 C2.12886719 16.73748047 2.13273438 17.91246094 2.13671875 19.12304688 C2.13542969 20.23873047 2.13414062 21.35441406 2.1328125 22.50390625 C2.13168457 23.53330322 2.13055664 24.5627002 2.12939453 25.62329102 C2 28 2 28 1 29 C-1.35313555 29.07271741 -3.70833668 29.08370868 -6.0625 29.0625 C-7.35285156 29.05347656 -8.64320312 29.04445312 -9.97265625 29.03515625 C-10.97167969 29.02355469 -11.97070312 29.01195312 -13 29 C-13 28.67 -13 28.34 -13 28 C-9.04 27.67 -5.08 27.34 -1 27 C-0.67 18.09 -0.34 9.18 0 0 Z " fill="#A29FA9" transform="translate(133,140)"/>
<path d="M0 0 C0 0.33 0 0.66 0 1 C-1.05743408 0.99214478 -1.05743408 0.99214478 -2.13623047 0.98413086 C-5.38247763 0.96312729 -8.6287104 0.95026631 -11.875 0.9375 C-12.98359375 0.92912109 -14.0921875 0.92074219 -15.234375 0.91210938 C-21.89051489 0.89253249 -28.3939117 1.17120222 -35 2 C-26.92073763 -6.07926237 -9.54030343 -3.5576474 0 0 Z " fill="#95939E" transform="translate(217,110)"/>
<path d="M0 0 C2.20359779 -0.00965537 4.40624214 -0.04066537 6.60961914 -0.07226562 C13.78507718 -0.12487566 19.98019301 -0.02740045 26.54125977 3.24023438 C26.54125977 3.57023438 26.54125977 3.90023438 26.54125977 4.24023438 C24.99934822 4.09701334 23.45774085 3.95051648 21.91625977 3.80273438 C21.05774414 3.72152344 20.19922852 3.6403125 19.31469727 3.55664062 C16.54125977 3.24023438 16.54125977 3.24023438 13.84204102 2.71289062 C9.3347733 2.06747122 4.90056018 2.09547999 0.35375977 2.11523438 C-0.99878906 2.10943359 -0.99878906 2.10943359 -2.37866211 2.10351562 C-3.24426758 2.10480469 -4.10987305 2.10609375 -5.00170898 2.10742188 C-6.17769653 2.10911377 -6.17769653 2.10911377 -7.37744141 2.11083984 C-9.65505331 2.16303188 -9.65505331 2.16303188 -12.45874023 3.24023438 C-13.85313688 3.30688813 -15.25043898 3.32561636 -16.64624023 3.30273438 C-18.53342773 3.27179688 -18.53342773 3.27179688 -20.45874023 3.24023438 C-13.72128646 -0.24465551 -7.41887761 0.01966351 0 0 Z " fill="#96939E" transform="translate(195.458740234375,-0.240234375)"/>
<path d="M0 0 C-0.54226981 3.79588866 -2.20127563 5.47211993 -5 8 C-5 7.01 -5 6.02 -5 5 C-5.66 5 -6.32 5 -7 5 C-7.2475 5.58652344 -7.495 6.17304687 -7.75 6.77734375 C-9.18382496 9.32686375 -10.74692804 10.71117065 -13 12.5625 C-15.55772463 14.67356316 -17.133135 16.19970251 -19 19 C-19.99 18.67 -20.98 18.34 -22 18 C-19.58749669 15.55834935 -17.16928161 13.12243315 -14.75 10.6875 C-14.06808594 9.99720703 -13.38617188 9.30691406 -12.68359375 8.59570312 C-12.01972656 7.92861328 -11.35585937 7.26152344 -10.671875 6.57421875 C-10.0644043 5.96151123 -9.45693359 5.34880371 -8.83105469 4.7175293 C-3.80170576 0 -3.80170576 0 0 0 Z " fill="#928F9A" transform="translate(205,49)"/>
<path d="M0 0 C0.6875 1.75 0.6875 1.75 1 4 C0.01439389 5.34400833 -0.98758315 6.67607028 -2 8 C-3.25052489 13.26364726 -3.11510303 18.50139833 -3.0625 23.875 C-3.05798828 24.75414063 -3.05347656 25.63328125 -3.04882812 26.5390625 C-3.03712337 28.69273803 -3.01919069 30.84637817 -3 33 C-7.1966923 26.70496155 -6.60404395 19.34517449 -6 12 C-4.67924387 7.49315442 -2.59164762 3.88747143 0 0 Z " fill="#9A98A2" transform="translate(148,21)"/>
<path d="M0 0 C2.31 0 4.62 0 7 0 C7.99 1.98 8.98 3.96 10 6 C10.66 5.34 11.32 4.68 12 4 C12.1953125 10.0546875 12.1953125 10.0546875 12 12 C11.34 12.66 10.68 13.32 10 14 C9.34 14 8.68 14 8 14 C5.96564469 10.27034861 5 8.33094958 5 4 C3.35 3.67 1.7 3.34 0 3 C0 2.01 0 1.02 0 0 Z M9 9 C10 11 10 11 10 11 Z " fill="#9B99A3" transform="translate(72,183)"/>
<path d="M0 0 C0.99 0.33 1.98 0.66 3 1 C3 4.96 3 8.92 3 13 C4.98 13 6.96 13 9 13 C9 13.99 9 14.98 9 16 C6.03 16 3.06 16 0 16 C0 10.72 0 5.44 0 0 Z " fill="#827F8B" transform="translate(1,183)"/>
<path d="M0 0 C1.65 0 3.3 0 5 0 C5.33 1.65 5.66 3.3 6 5 C6.66 5 7.32 5 8 5 C8.33 3.68 8.66 2.36 9 1 C8.67 5.29 8.34 9.58 8 14 C4.76524552 12.38262276 3.29427979 11.52370777 1 9 C0.67 10.32 0.34 11.64 0 13 C0 11.35 0 9.7 0 8 C0.99 7.67 1.98 7.34 3 7 C4.21869929 4.49552484 4.21869929 4.49552484 5 2 C3.68 1.67 2.36 1.34 1 1 C1 2.65 1 4.3 1 6 C0.67 6 0.34 6 0 6 C0 4.02 0 2.04 0 0 Z " fill="#A8A6AF" transform="translate(126,185)"/>
<path d="M0 0 C2.475 0.495 2.475 0.495 5 1 C6.05746722 5.33138573 6.18340937 9.56575302 6.1875 14 C6.19974609 14.69867188 6.21199219 15.39734375 6.22460938 16.1171875 C6.23616236 20.19924218 5.81364524 23.32969817 4 27 C3.67 27 3.34 27 3 27 C3 18.75 3 10.5 3 2 C2.01 2 1.02 2 0 2 C0 1.34 0 0.68 0 0 Z " fill="#96949F" transform="translate(228,13)"/>
<path d="M0 0 C0.69802734 0.00386719 1.39605469 0.00773437 2.11523438 0.01171875 C2.80939453 0.00785156 3.50355469 0.00398438 4.21875 0 C9.42445449 0.01007881 9.42445449 0.01007881 11.67773438 1.13671875 C10.47391989 3.63033446 9.22344716 5.81814958 7.67773438 8.13671875 C7.01773438 8.13671875 6.35773438 8.13671875 5.67773438 8.13671875 C5.01773438 9.45671875 4.35773438 10.77671875 3.67773438 12.13671875 C4.05273438 9.69921875 4.05273438 9.69921875 4.67773438 7.13671875 C5.33773437 6.80671875 5.99773437 6.47671875 6.67773438 6.13671875 C7.32986729 4.1120862 7.32986729 4.1120862 7.67773438 2.13671875 C5.57294833 2.25081557 3.4688886 2.37837236 1.36523438 2.51171875 C-0.39240234 2.61613281 -0.39240234 2.61613281 -2.18554688 2.72265625 C-5.4792645 2.92285622 -5.4792645 2.92285622 -8.32226562 5.13671875 C-6.00952991 0.35706494 -5.46736223 0.01060594 0 0 Z " fill="#9B99A3" transform="translate(160.322265625,108.86328125)"/>
<path d="M0 0 C0.33 0.66 0.66 1.32 1 2 C-0.11463924 4.78939871 -1.58628534 7.34393004 -3 10 C1.95 9.34 6.9 8.68 12 8 C10 11 10 11 8.203125 11.68359375 C5.68805939 12.04479998 3.29041065 12.09592646 0.75 12.0625 C-0.14203125 12.05347656 -1.0340625 12.04445313 -1.953125 12.03515625 C-2.62859375 12.02355469 -3.3040625 12.01195313 -4 12 C-5.04449911 8.86650268 -4.93423645 8.01031744 -4 5 C-3.34 5 -2.68 5 -2 5 C-2 3.68 -2 2.36 -2 1 C-1.34 0.67 -0.68 0.34 0 0 Z " fill="#97959F" transform="translate(194,65)"/>
<path d="M0 0 C2 1 2 1 2.625 2.5625 C3.16368951 6.06398181 3.05903219 9.45806833 3 13 C4.98 12.67 6.96 12.34 9 12 C9.33 12.99 9.66 13.98 10 15 C3.9453125 15.1953125 3.9453125 15.1953125 2 15 C0 13 0 13 -0.1953125 9.9609375 C-0.17210938 8.77757812 -0.14890625 7.59421875 -0.125 6.375 C-0.10695313 5.18648437 -0.08890625 3.99796875 -0.0703125 2.7734375 C-0.04710938 1.85820312 -0.02390625 0.94296875 0 0 Z " fill="#7F7C88" transform="translate(25,184)"/>
<path d="M0 0 C0.99 0 1.98 0 3 0 C3.02692484 2.29160319 3.04636124 4.58329546 3.0625 6.875 C3.07410156 8.15117187 3.08570313 9.42734375 3.09765625 10.7421875 C3 14 3 14 2 16 C1.01 16 0.02 16 -1 16 C-1.33 14.35 -1.66 12.7 -2 11 C-1.34 11 -0.68 11 0 11 C0 7.37 0 3.74 0 0 Z " fill="#7D7A86" transform="translate(49,183)"/>
<path d="M0 0 C3.875 0.875 3.875 0.875 5 2 C5.04063832 3.66617115 5.042721 5.33388095 5 7 C2.59454362 8.20272819 1.05003047 8.10071472 -1.625 8.0625 C-2.85089844 8.04896484 -2.85089844 8.04896484 -4.1015625 8.03515625 C-5.04128906 8.01775391 -5.04128906 8.01775391 -6 8 C-6 7.01 -6 6.02 -6 5 C-3.69 5 -1.38 5 1 5 C0.67 3.35 0.34 1.7 0 0 Z " fill="#87848F" transform="translate(181,191)"/>
<path d="M0 0 C1.65 0.33 3.3 0.66 5 1 C5.33 2.65 5.66 4.3 6 6 C7.32 6 8.64 6 10 6 C9.34 8.31 8.68 10.62 8 13 C5.25722422 9.80009492 3.3697164 6.99500618 2 3 C1.01 3.33 0.02 3.66 -1 4 C-0.67 2.68 -0.34 1.36 0 0 Z " fill="#878490" transform="translate(39,183)"/>
<path d="M0 0 C1.10408203 0.01353516 1.10408203 0.01353516 2.23046875 0.02734375 C4.0287888 0.05069856 5.82693911 0.08656164 7.625 0.125 C7.625 0.455 7.625 0.785 7.625 1.125 C6.80092651 1.25346313 6.80092651 1.25346313 5.96020508 1.38452148 C3.45246392 1.77608339 0.94498123 2.1692772 -1.5625 2.5625 C-2.42681641 2.69720703 -3.29113281 2.83191406 -4.18164062 2.97070312 C-8.26431675 3.61204305 -12.33169077 4.26276221 -16.375 5.125 C-15.715 4.795 -15.055 4.465 -14.375 4.125 C-14.375 3.465 -14.375 2.805 -14.375 2.125 C-9.40488327 0.13381759 -5.25166865 -0.12345695 0 0 Z " fill="#9A97A2" transform="translate(210.375,81.875)"/>
<path d="M0 0 C0.99 0 1.98 0 3 0 C4.125 3.75 4.125 3.75 3 6 C3.99 5.67 4.98 5.34 6 5 C5.5359375 6.3303125 5.5359375 6.3303125 5.0625 7.6875 C4.1709329 10.46709155 3.50622993 13.13136375 3 16 C0.68033834 13.15314251 -0.91581154 10.5236125 -2 7 C-1.67 6.01 -1.34 5.02 -1 4 C-0.65772583 2.66893378 -0.32248257 1.33599921 0 0 Z " fill="#9C9AA3" transform="translate(63,183)"/>
<path d="M0 0 C2.79670503 4.19505754 3.07182305 8.00829814 3 13 C2.34949343 16.16297034 1.48633748 19.12554118 0 22 C-0.66 22.33 -1.32 22.66 -2 23 C-1.125 17.25 -1.125 17.25 0 15 C0.0716735 12.44842345 0.09308442 9.92527029 0.0625 7.375 C0.05798828 6.66859375 0.05347656 5.9621875 0.04882812 5.234375 C0.03703875 3.48954725 0.01910324 1.744763 0 0 Z " fill="#9C9AA4" transform="translate(225,118)"/>
<path d="M0 0 C1.32 1.32 2.64 2.64 4 4 C3.67 4.99 3.34 5.98 3 7 C0.5622037 7.05397335 -1.87439685 7.09365616 -4.3125 7.125 C-5.34793945 7.15013672 -5.34793945 7.15013672 -6.40429688 7.17578125 C-10.17135396 7.21217794 -11.78431704 7.14378864 -15 5 C-14.67 4.34 -14.34 3.68 -14 3 C-12.7934375 3.495 -12.7934375 3.495 -11.5625 4 C-7.26195205 5.20717135 -3.43033819 5.17721353 1 5 C0.67 3.35 0.34 1.7 0 0 Z " fill="#A09EA8" transform="translate(170,162)"/>
<path d="M0 0 C0.33 0 0.66 0 1 0 C0.66332346 7.07020743 -0.84094581 12.19546331 -5 18 C-5.66 18.33 -6.32 18.66 -7 19 C-6.125 14.25 -6.125 14.25 -5 12 C-4.34 12 -3.68 12 -3 12 C-3 10.68 -3 9.36 -3 8 C-2.34 8 -1.68 8 -1 8 C-1.020625 7.05125 -1.04125 6.1025 -1.0625 5.125 C-1 2 -1 2 0 0 Z " fill="#95929D" transform="translate(253,45)"/>
<path d="M0 0 C0.928125 0.20625 1.85625 0.4125 2.8125 0.625 C2.8125 1.615 2.8125 2.605 2.8125 3.625 C2.173125 3.74875 1.53375 3.8725 0.875 4 C-0.1459375 4.309375 -0.1459375 4.309375 -1.1875 4.625 C-1.5175 5.285 -1.8475 5.945 -2.1875 6.625 C-2.8475 6.625 -3.5075 6.625 -4.1875 6.625 C-4.1875 5.305 -4.1875 3.985 -4.1875 2.625 C-4.8475 2.295 -5.5075 1.965 -6.1875 1.625 C-3.1875 -0.375 -3.1875 -0.375 0 0 Z " fill="#9B98A3" transform="translate(221.1875,182.375)"/>
<path d="M0 0 C0.33 0 0.66 0 1 0 C1.19532961 1.7699868 1.38098882 3.54104279 1.5625 5.3125 C1.66691406 6.29863281 1.77132812 7.28476563 1.87890625 8.30078125 C2 11 2 11 1 14 C0.34 14 -0.32 14 -1 14 C-1.66 12.02 -2.32 10.04 -3 8 C-2.34 8 -1.68 8 -1 8 C-1.020625 6.865625 -1.04125 5.73125 -1.0625 4.5625 C-1 1 -1 1 0 0 Z " fill="#797683" transform="translate(41,185)"/>
<path d="M0 0 C0.99 0.33 1.98 0.66 3 1 C2.60167969 1.46148438 2.20335937 1.92296875 1.79296875 2.3984375 C-2.44910689 7.62104158 -4.47508194 12.4722806 -6 19 C-6.33 19 -6.66 19 -7 19 C-6.34991842 12.71587804 -5.5784792 7.36771879 -2 2 C-1.34 2 -0.68 2 0 2 C0 1.34 0 0.68 0 0 Z " fill="#9E9BA6" transform="translate(170,26)"/>
<path d="M0 0 C3.875 0.875 3.875 0.875 5 2 C4.90997602 4.02408755 4.75358962 6.04544287 4.5625 8.0625 C4.46066406 9.16722656 4.35882813 10.27195313 4.25390625 11.41015625 C4.12822266 12.69212891 4.12822266 12.69212891 4 14 C3.01 14 2.02 14 1 14 C1.33 9.71 1.66 5.42 2 1 C1.34 0.67 0.68 0.34 0 0 Z " fill="#B0AEB6" transform="translate(210,183)"/>
<path d="M0 0 C0.99 0 1.98 0 3 0 C3.66 2.64 4.32 5.28 5 8 C4.01 8 3.02 8 2 8 C1.67 10.64 1.34 13.28 1 16 C0.67 16 0.34 16 0 16 C-0.19389096 13.5211787 -0.38040123 11.04219069 -0.5625 8.5625 C-0.61857422 7.85544922 -0.67464844 7.14839844 -0.73242188 6.41992188 C-0.86190993 4.61572163 -0.93521608 2.80768048 -1 1 C-0.67 0.67 -0.34 0.34 0 0 Z " fill="#9A98A1" transform="translate(150,183)"/>
<path d="M0 0 C0.99 0 1.98 0 3 0 C2.45773019 3.79588866 0.79872437 5.47211993 -2 8 C-2 7.01 -2 6.02 -2 5 C-3.65 5.66 -5.3 6.32 -7 7 C-4.66666667 4.66666667 -2.33333333 2.33333333 0 0 Z " fill="#9F9CA6" transform="translate(202,49)"/>
<path d="M0 0 C0.66 0 1.32 0 2 0 C2 4.95 2 9.9 2 15 C1.34 15 0.68 15 0 15 C-0.19601608 13.25093341 -0.38147403 11.50068154 -0.5625 9.75 C-0.66691406 8.77546875 -0.77132812 7.8009375 -0.87890625 6.796875 C-0.98974468 4.2368648 -0.77738092 2.41851841 0 0 Z " fill="#726F7B" transform="translate(188,184)"/>
<path d="M0 0 C0.33 2.31 0.66 4.62 1 7 C0.34 7 -0.32 7 -1 7 C-1.33 5.68 -1.66 4.36 -2 3 C-4.64 2.67 -7.28 2.34 -10 2 C-10 1.34 -10 0.68 -10 0 C-6.30581799 -1.231394 -3.7943739 -0.64432764 0 0 Z " fill="#807D89" transform="translate(133,183)"/>
<path d="M0 0 C0.33 0.99 0.66 1.98 1 3 C-0.1196986 4.00593243 -1.2459412 5.0045849 -2.375 6 C-3.00148437 6.556875 -3.62796875 7.11375 -4.2734375 7.6875 C-6 9 -6 9 -8 9 C-6.4169423 4.7257442 -3.49431596 2.73468206 0 0 Z " fill="#93909C" transform="translate(157,12)"/>
<path d="M0 0 C0.33 0 0.66 0 1 0 C1 1.65 1 3.3 1 5 C3.64 4.67 6.28 4.34 9 4 C9.33 4.99 9.66 5.98 10 7 C6.7 7 3.4 7 0 7 C0 4.69 0 2.38 0 0 Z " fill="#797783" transform="translate(164,192)"/>
<path d="M0 0 C3.59905908 0.55550695 4.99909799 1.74887248 7.25 4.5625 C8.03117188 5.52349609 8.03117188 5.52349609 8.828125 6.50390625 C9.21484375 6.99761719 9.6015625 7.49132812 10 8 C5.67008153 8 4.08622163 5.88494631 1 3 C0.67 2.01 0.34 1.02 0 0 Z " fill="#95929E" transform="translate(150,63)"/>
<path d="M0 0 C2.97 0 5.94 0 9 0 C9 0.33 9 0.66 9 1 C7.02 1 5.04 1 3 1 C2.87625 1.94875 2.7525 2.8975 2.625 3.875 C2 7 2 7 0 9 C0 6.03 0 3.06 0 0 Z " fill="#767380" transform="translate(69,184)"/>
<path d="M0 0 C0.33 0 0.66 0 1 0 C1.12117187 0.78503906 1.24234375 1.57007813 1.3671875 2.37890625 C2.27186083 8.05051213 3.2579299 13.52492254 5 19 C2.0173485 16.15292357 0.07155847 14.14922908 -0.1953125 9.86328125 C-0.17210937 8.69152344 -0.14890625 7.51976562 -0.125 6.3125 C-0.09792969 4.54326172 -0.09792969 4.54326172 -0.0703125 2.73828125 C-0.04710937 1.83464844 -0.02390625 0.93101563 0 0 Z " fill="#9E9BA5" transform="translate(162,45)"/>
<path d="M0 0 C1.65 0 3.3 0 5 0 C4.67 0.66 4.34 1.32 4 2 C3.01 1.67 2.02 1.34 1 1 C1.7734375 1.8353125 1.7734375 1.8353125 2.5625 2.6875 C4 5 4 5 3.6875 7.75 C3.460625 8.4925 3.23375 9.235 3 10 C0.99226044 7.99226044 0.00607146 6.63126383 -1 4 C-0.625 1.75 -0.625 1.75 0 0 Z " fill="#A2A0A9" transform="translate(113,183)"/>
<path d="M0 0 C0.33 0 0.66 0 1 0 C1 4.95 1 9.9 1 15 C0.01 14.67 -0.98 14.34 -2 14 C-2.6875 11.9375 -2.6875 11.9375 -3 10 C-2.34 10 -1.68 10 -1 10 C-0.67 6.7 -0.34 3.4 0 0 Z " fill="#6B6875" transform="translate(64,184)"/>
<path d="M0 0 C-1.42367839 0.94911893 -2.84768341 1.89775202 -4.2734375 2.84375 C-5.94370916 3.96230297 -7.59721614 5.10576502 -9.25 6.25 C-12 8 -12 8 -14 8 C-14 7.34 -14 6.68 -14 6 C-13.05125 5.566875 -12.1025 5.13375 -11.125 4.6875 C-7.79958063 3.20697799 -7.79958063 3.20697799 -6 0 C-3.39677846 -0.97620808 -2.52782417 -1.26391209 0 0 Z " fill="#9C9AA4" transform="translate(187,92)"/>
<path d="M0 0 C4.5 4.5 4.5 4.5 5 8 C4.01 8.495 4.01 8.495 3 9 C2.34786708 11.02463255 2.34786708 11.02463255 2 13 C1.67 13 1.34 13 1 13 C0.67 8.71 0.34 4.42 0 0 Z M2 4 C3 6 3 6 3 6 Z " fill="#A09EA7" transform="translate(35,184)"/>
<path d="M0 0 C2 1.375 2 1.375 4 3 C4 3.66 4 4.32 4 5 C4.66 5.33 5.32 5.66 6 6 C5.67 6.66 5.34 7.32 5 8 C3.0625 7.6875 3.0625 7.6875 1 7 C0 4 0 4 0 0 Z " fill="#93919B" transform="translate(194,191)"/>
<path d="M0 0 C0.125 5.75 0.125 5.75 -1 8 C-1.66 8 -2.32 8 -3 8 C-3.66 6.02 -4.32 4.04 -5 2 C-1.125 0 -1.125 0 0 0 Z " fill="#92909B" transform="translate(72,190)"/>
<path d="M0 0 C0.99 0.33 1.98 0.66 3 1 C2.67 2.65 2.34 4.3 2 6 C0.68 6.33 -0.64 6.66 -2 7 C-2.33 6.34 -2.66 5.68 -3 5 C-1.5625 2.375 -1.5625 2.375 0 0 Z " fill="#84818D" transform="translate(196,184)"/>
<path d="M0 0 C0.99 0 1.98 0 3 0 C4.09658936 3.28976808 3.79953138 4.71303767 3 8 C2.34 8 1.68 8 1 8 C0.67 7.34 0.34 6.68 0 6 C-0.66 5.67 -1.32 5.34 -2 5 C-1.34 3.35 -0.68 1.7 0 0 Z " fill="#96939D" transform="translate(107,183)"/>
<path d="M0 0 C1.32 0 2.64 0 4 0 C4 0.99 4 1.98 4 3 C3.01 3.495 3.01 3.495 2 4 C1.34786708 6.02463255 1.34786708 6.02463255 1 8 C0.34 8 -0.32 8 -1 8 C-0.67 5.36 -0.34 2.72 0 0 Z " fill="#797682" transform="translate(140,183)"/>
<path d="M0 0 C1.32 0 2.64 0 4 0 C4.33 1.98 4.66 3.96 5 6 C4.01 5.67 3.02 5.34 2 5 C2 4.34 2 3.68 2 3 C1.01 2.67 0.02 2.34 -1 2 C-0.67 1.34 -0.34 0.68 0 0 Z " fill="#888691" transform="translate(83,183)"/>
<path d="M0 0 C2.30163882 3.45245824 2.34490322 4.94738713 2 9 C1.34 9.66 0.68 10.32 0 11 C-2.125 10.625 -2.125 10.625 -4 10 C-3.01 10 -2.02 10 -1 10 C-0.67 6.7 -0.34 3.4 0 0 Z " fill="#A2A0AA" transform="translate(224,157)"/>
<path d="M0 0 C0.66 0.33 1.32 0.66 2 1 C2.44921875 2.9609375 2.44921875 2.9609375 2.6875 5.375 C2.77386719 6.16648438 2.86023437 6.95796875 2.94921875 7.7734375 C3 10 3 10 2 13 C1.01 13 0.02 13 -1 13 C-1 12.34 -1 11.68 -1 11 C-0.34 11 0.32 11 1 11 C0.67 7.37 0.34 3.74 0 0 Z " fill="#97959F" transform="translate(49,155)"/>
<path d="M0 0 C4.75481646 0.57634139 7.97048212 2.55068521 12 5 C11.01 5.33 10.02 5.66 9 6 C8.34 5.34 7.68 4.68 7 4 C4.68234271 3.28072705 2.34904126 2.6090107 0 2 C0 1.34 0 0.68 0 0 Z " fill="#95929D" transform="translate(222,4)"/>
<path d="M0 0 C0 0.66 0 1.32 0 2 C-1.28650706 2.69710731 -2.57940665 3.38242876 -3.875 4.0625 C-4.95394531 4.63677734 -4.95394531 4.63677734 -6.0546875 5.22265625 C-6.69664063 5.47917969 -7.33859375 5.73570312 -8 6 C-8.66 5.67 -9.32 5.34 -10 5 C-8.10642065 1.21284131 -4.03029968 0 0 0 Z " fill="#9997A1" transform="translate(93,162)"/>
<path d="M0 0 C0.66 0.33 1.32 0.66 2 1 C-1.625 5.875 -1.625 5.875 -5 7 C-4.60196439 4.11424181 -4.20990931 3.17810487 -1.9375 1.25 C-1.298125 0.8375 -0.65875 0.425 0 0 Z " fill="#918E99" transform="translate(244,64)"/>
<path d="M0 0 C0.66 0.99 1.32 1.98 2 3 C1 6 1 6 -1 7 C-1.66 6.67 -2.32 6.34 -3 6 C-2.67 4.68 -2.34 3.36 -2 2 C-1.34 2 -0.68 2 0 2 C0 1.34 0 0.68 0 0 Z " fill="#9895A0" transform="translate(144,184)"/>
<path d="M0 0 C0.33 0.66 0.66 1.32 1 2 C0.22265625 4.1640625 0.22265625 4.1640625 -0.9375 6.625 C-1.31777344 7.44226563 -1.69804687 8.25953125 -2.08984375 9.1015625 C-2.39019531 9.72804688 -2.69054687 10.35453125 -3 11 C-4.06192476 7.73635123 -4.07454186 7.17280159 -2.625 3.8125 C-1 1 -1 1 0 0 Z " fill="#95939D" transform="translate(177,116)"/>
<path d="M0 0 C3.06393013 -0.25532751 4.63233212 -0.21861333 7.3125 1.375 C7.869375 1.91125 8.42625 2.4475 9 3 C9 3.66 9 4.32 9 5 C5.22454612 3.90931332 2.52956528 3.0916909 0 0 Z " fill="#9D9BA5" transform="translate(162,74)"/>
<path d="M0 0 C0.33 0 0.66 0 1 0 C1.10884119 1.41493551 1.18597617 2.83232943 1.25 4.25 C1.29640625 5.03890625 1.3428125 5.8278125 1.390625 6.640625 C1 9 1 9 -3 13 C-2.01 8.71 -1.02 4.42 0 0 Z " fill="#A09DA8" transform="translate(230,40)"/>
<path d="M0 0 C-0.33 0.66 -0.66 1.32 -1 2 C-3.75078884 2.91692961 -5.35948913 3.10886083 -8.1875 3.0625 C-10.0746875 3.0315625 -10.0746875 3.0315625 -12 3 C-7.85930434 0.85826087 -4.68855996 -0.12671784 0 0 Z " fill="#A2A0AA" transform="translate(187,0)"/>
<path d="M0 0 C2.64 0 5.28 0 8 0 C8.33 0.99 8.66 1.98 9 3 C6.36 3 3.72 3 1 3 C0.67 2.01 0.34 1.02 0 0 Z " fill="#797682" transform="translate(26,196)"/>
<path d="M0 0 C3.875 0.875 3.875 0.875 5 2 C5.04063832 3.66617115 5.042721 5.33388095 5 7 C4.01 6.67 3.02 6.34 2 6 C2 5.01 2 4.02 2 3 C1.34 2.67 0.68 2.34 0 2 C0 1.34 0 0.68 0 0 Z " fill="#7B7884" transform="translate(181,191)"/>
<path d="M0 0 C0.33 0 0.66 0 1 0 C1 3.3 1 6.6 1 10 C-0.32 9.67 -1.64 9.34 -3 9 C-3 8.01 -3 7.02 -3 6 C-2.01 6 -1.02 6 0 6 C0 4.02 0 2.04 0 0 Z " fill="#B5B3BC" transform="translate(123,186)"/>
<path d="M0 0 C1.32 0 2.64 0 4 0 C3.39816251 2.02045442 2.72693904 4.02111039 2 6 C1.01 6.495 1.01 6.495 0 7 C-1.125 2.25 -1.125 2.25 0 0 Z " fill="#9B99A3" transform="translate(158,183)"/>
<path d="M0 0 C-2.09782787 2.09782787 -3.3799207 2.6509396 -6.125 3.625 C-6.84945312 3.88539062 -7.57390625 4.14578125 -8.3203125 4.4140625 C-9.15175781 4.70410156 -9.15175781 4.70410156 -10 5 C-10 4.34 -10 3.68 -10 3 C-9.34 3 -8.68 3 -8 3 C-8 2.34 -8 1.68 -8 1 C-5.29120665 -0.35439668 -2.99066732 -0.06501451 0 0 Z " fill="#A19EA9" transform="translate(186,19)"/>
<path d="M0 0 C0.99 0.495 0.99 0.495 2 1 C2.59355614 3.64860427 2.74209269 6.29197322 3 9 C2.01 9 1.02 9 0 9 C0 6.03 0 3.06 0 0 Z " fill="#94919C" transform="translate(146,190)"/>
<path d="M0 0 C1.32 0.33 2.64 0.66 4 1 C4 2.98 4 4.96 4 7 C2 5.75 2 5.75 0 4 C0 2.68 0 1.36 0 0 Z " fill="#9895A0" transform="translate(92,183)"/>
<path d="M0 0 C3 3.625 3 3.625 3 7 C1.68 6.34 0.36 5.68 -1 5 C-0.67 3.35 -0.34 1.7 0 0 Z " fill="#7A7883" transform="translate(131,192)"/>
<path d="M0 0 C0.99 0.66 1.98 1.32 3 2 C1.625 4 1.625 4 0 6 C-0.66 6 -1.32 6 -2 6 C-1.125 1.125 -1.125 1.125 0 0 Z " fill="#7B7884" transform="translate(138,193)"/>
<path d="M0 0 C0.99 0 1.98 0 3 0 C2.34 2.31 1.68 4.62 1 7 C-0.32 5.35 -1.64 3.7 -3 2 C-2.01 1.67 -1.02 1.34 0 1 C0 0.67 0 0.34 0 0 Z " fill="#9B99A3" transform="translate(46,189)"/>
<path d="" fill="#BAB8C1" transform="translate(0,0)"/>
<path d="" fill="#BAB8C1" transform="translate(0,0)"/>
<path d="" fill="#BAB8C1" transform="translate(0,0)"/>
</svg>
