<?xml version="1.0" encoding="UTF-8" standalone="no"?>
<svg
   xmlns:dc="http://purl.org/dc/elements/1.1/"
   xmlns:cc="http://creativecommons.org/ns#"
   xmlns:rdf="http://www.w3.org/1999/02/22-rdf-syntax-ns#"
   xmlns:svg="http://www.w3.org/2000/svg"
   xmlns="http://www.w3.org/2000/svg"
   height="141.51962"
   width="601.44977"
   viewBox="0 0 601.44976 141.51962"
   y="0px"
   x="0px"
   id="Layer_1"
   version="1.1">
  <metadata
     id="metadata483">
    <rdf:RDF>
      <cc:Work
         rdf:about="">
        <dc:format>image/svg+xml</dc:format>
        <dc:type
           rdf:resource="http://purl.org/dc/dcmitype/StillImage" />
        <dc:title></dc:title>
      </cc:Work>
    </rdf:RDF>
  </metadata>
  <defs
     id="defs481" />
  <path
     style="fill:#5ac37d"
     id="path470"
     d="m 38.949771,87 c 11,19.1 37.1,27.3 57.9,15.2 20.999999,-12.1 26.799999,-38.7 15.799999,-57.8 -11,-19.1 -36.899999,-27.4 -57.899999,-15.2 -20.9,12 -26.8,38.7 -15.8,57.8 z" />
  <path
     style="fill:#5ac37d"
     id="path472"
     d="m 33.849771,89.9 c -12.6,-21.7 -5.8,-52.1 18,-65.8 l 5.1,-19 -19,-5.1 v 0 0 c -36.2999999,20.9 -48.7,67.3 -27.8,103.6 20.9,36.3 67.4,48.7 103.599999,27.7 L 99.849771,107.2 c -23.8,13.8 -53.5,4.5 -66,-17.3 z" />
  <path
     style="fill:#5ac37d"
     id="path474"
     d="m 180.84977,25.5 c -7.5,0 -12.2,5.2 -12.2,13.5 v 13.3 h 17.1 v 18.6 h -17.1 v 62.9 h -23.3 V 70.9 h -10.8 V 52.3 h 10.8 V 41.1 c 0,-17.2 3.5,-36.1 30.7,-36.1 6.5,0 9.6,0.7 15.9,2 v 20 c -3,-0.7 -5.6,-1.5 -11.1,-1.5 m 420.6,108.3 V 86.6 c 0,-13.6 -1,-20.1 -3.9,-25.1 -4.1,-7.2 -12.8,-11.7 -22.8,-11.7 -12.2,0 -20.6,6 -26.3,19.1 -2.9,-12.7 -10.1,-19.1 -22.1,-19.1 -12.4,0 -19.8,5.8 -26,18.5 V 51.5 h -22.6 v 82.2 h 23.4 V 95.5 c 0,-5.3 0.3,-9.3 1.2,-12.2 2.1,-7.4 7.3,-12.2 13.6,-12.2 4.8,0 8.3,2.4 10,6.7 1.2,3.1 1.7,7.2 1.7,14.8 v 41.1 h 23.6 V 94.1 c 0,-14.9 5,-23 14.8,-23 5.7,0 9.5,2.5 10.9,8 0.5,2.4 0.9,6.9 0.9,12.2 v 42.3 h 23.6 z m -132.6,-40 V 51.6 h -23.4 v 42.2 c 0,16.5 -3.1,22 -13.6,22 -10.8,0 -14.5,-5.5 -14.5,-20.6 V 51.6 h -23.4 v 43.3 c 0,18 2.9,25.9 11.1,32.8 6.5,5.3 15.8,8.1 26.6,8.1 12.7,0 23,-4.1 29.5,-11.7 5.3,-6.3 7.7,-14.7 7.7,-30.3 m -82.7,40 v -18.4 c -3.8,0.9 -6.2,1 -9.6,1 -10.5,0 -13.8,-3.9 -13.8,-15.6 V 70.9 h 22.4 V 52.2 h -22.4 V 25.3 l -23.4,13.2 v 66.4 c 0,21.1 9.7,30.4 31.4,30.4 5.5,0 9.6,-0.3 15.4,-1.5 m -54.4,-59.7 c -4.1,-1.9 -6.7,-2.4 -10.8,-2.4 -13,0 -20.5,9.8 -20.5,25.6 v 36.5 h -23.4 V 51.6 h 22.6 v 18.7 c 2.9,-12.5 11.8,-19.9 24.8,-19.9 2.2,0 4.5,0.3 7.4,0.9 v 22.8 z" />
  <path
     style="clip-rule:evenodd;fill:#5ac37d;fill-rule:evenodd"
     id="path476"
     d="m 268.74977,92.5 c 0,-25.2 -14.8,-43.3 -40.4,-43.3 -24.4,0 -40.7,18.5 -40.7,42.9 0,26.8 16,43.8 41.2,43.8 23.4,0.1 39.9,-17.9 39.9,-43.4 z m -23.6,-0.1 c 0,14.6 -6.1,23.6 -16.4,23.6 -10.6,0 -17.5,-9.6 -17.5,-23.8 0,-14.1 6.6,-23.3 17.1,-23.3 10.5,0 16.8,8.9 16.8,23.5 z" />
</svg>
