<?xml version="1.0" encoding="utf-8"?>
<!-- Generator: Adobe Illustrator 25.0.1, SVG Export Plug-In . SVG Version: 6.00 Build 0)  -->
<svg version="1.0" id="katman_1" xmlns="http://www.w3.org/2000/svg" xmlns:xlink="http://www.w3.org/1999/xlink" x="0px" y="0px"
	 viewBox="0 0 560 400" style="enable-background:new 0 0 560 400;" xml:space="preserve">
<style type="text/css">
	.st0{fill:#154E8F;}
	.st1{clip-path:url(#SVGID_2_);}
</style>
<g>
	<path class="st0" d="M253.7,183.6h17.7v56.5h-17.7V183.6z"/>
	<path class="st0" d="M277.5,183.6h17.7v7.5h0.2c3.7-5.7,9.3-8.9,15.7-8.9c5.4,0,10.7,3.5,11.1,8.9h0.2c3.7-5.7,9.3-8.9,15.7-8.9
		c7.1,0,12.4,3.9,12.4,12v45.9h-17.7v-40c0-3-1-5.1-4.3-5.1c-1.9,0-3.4,0.8-4.6,2.4l-1,1.3v41.3h-17.7v-40c0-3-1-5.1-4.3-5.1
		c-1.9,0-3.4,0.8-4.6,2.4l-1,1.3v41.3h-17.7L277.5,183.6z"/>
	<path class="st0" d="M374.1,222c-0.3,4.7,2.4,7.3,5.8,7.3c4.9,0,5.6-5.1,5.6-15.5v-4.3c0-11.3,0-17.1-5.5-17.1
		c-2.2,0-3.8,1.4-4.9,2.3l-1,1L374.1,222z M356.4,159.9h17.7v26.9h0.2c2.5-2.7,7.1-4.6,10.7-4.6c12.3,0,18.8,12.6,18.8,28.9
		c0,13-5.3,29.6-20.1,29.6c-6.9,0-11.4-3.4-14.9-8.8l-3.3,8.1h-9.2L356.4,159.9z"/>
	<path class="st0" d="M408.5,159.9h17.7v80.2h-17.7V159.9z"/>
	<path class="st0" d="M461.9,203.4c-0.1-5.3-0.5-11.4-6.7-11.4c-5,0-6.6,6.1-6.6,11.4H461.9z M448.6,214.2c0,5,1,13.4,8,13.4
		c4.3,0,7.9-3.1,9-7.8l11.9,4.5c-0.8,2.6-6.2,15.5-22,15.5c-17,0-24.6-14.1-24.6-29.7c0-16,8.1-29.5,24.4-29.5
		c17.1,0,23,15.1,23,29.8v3.8L448.6,214.2z"/>
	<path class="st0" d="M253.7,159.6h17.8v16.3h-17.8V159.6z"/>
	<path class="st0" d="M486.1,233.5c0.9,0,2.2,0.2,2.2-1c0-0.8-0.7-1-1.5-1H485v2H486.1z M489.1,237.3H488l-1.9-3H485v3h-1v-6.5h2.8
		c0.5,0,1.1,0,1.6,0.3c0.5,0.3,0.7,0.9,0.7,1.4c0,1.3-0.9,1.8-2,1.8L489.1,237.3z M481.5,234c0,2.6,2.1,4.7,4.7,4.7
		c2.6,0,4.7-2,4.7-4.7c0-2.6-2.1-4.6-4.7-4.6C483.6,229.4,481.5,231.5,481.5,234 M480.4,234c0-3.2,2.6-5.8,5.8-5.8
		c3.2,0,5.8,2.6,5.8,5.8c0,3.2-2.6,5.8-5.8,5.8C483,239.8,480.4,237.2,480.4,234"/>
	<path class="st0" d="M167.5,159.3h55v15.5h-17.6v64.7h-19.7v-64.7h-17.6V159.3z"/>
	<path class="st0" d="M214.5,183h17.4v8.6h0.2c2.2-7.1,10.1-9.9,17.1-9.9v18.5c-2.4-0.9-4.7-1.6-7.2-1.6c-5.9,0-7.8,1.6-9.7,4.4
		v36.6h-17.7V183z"/>
	<path class="st0" d="M131.9,219.7c-0.2,1.2-0.6,2.3-1.1,3.4c-0.2,0.3-0.2,0.7-0.3,1.1c-0.7,0.8-1.3,1.2-1.4,1.4
		c-4.1,3.5-7.3,5.4-12.3,7c-1.8,0.6-5.7,1.6-10.6,1.5l-7.6,4.2c9.2,2.1,16.8,0.2,19.8-0.8c5.6-1.9,9.4-4,14-8
		c0.9-0.8,5.8-5.1,9.1-11.9c0.6-1.2,1.2-2.6,1.8-4.1L131.9,219.7z"/>
	<g>
		<defs>
			<polyline id="SVGID_1_" points="68,149 68,251 492,251 492,149 			"/>
		</defs>
		<clipPath id="SVGID_2_">
			<use xlink:href="#SVGID_1_"  style="overflow:visible;"/>
		</clipPath>
		<g class="st1">
			<path class="st0" d="M105.2,164.5c0.3,0,0.5,0,0.8,0c0.5,0,1,0,1.5,0c-0.9,0.2-1.8,0.5-2.6,0.8l6.8,3.8
				c5.3-0.2,10.7,2.3,14.3,6.2c-0.8,0.1-1.7,0.2-2.6,0.3l11.5,6.4c0-0.1,0-0.3-0.1-0.4c0.5,0.3,0.9,0.6,1.2,1l7.7,4.3
				c-0.1-0.3-0.2-0.6-0.3-0.9c-0.1-0.2-0.1-0.3-0.2-0.5c-0.1-0.3-0.1-0.5-0.2-0.8c-2.2-6.5-6.4-12.1-11.8-16.5
				c-0.1-0.2-0.3-0.4-0.5-0.6c-8.2-6.6-16.5-8-20.7-8.3c-0.2,0-0.4,0-0.7,0c-2.5-0.2-5.1-0.1-7.6,0.2c-0.1,0-0.3,0.1-0.5,0.1
				c-1.1,0.2-2,0.3-2.8,0.5c-0.7,0.2-1.3,0.3-1.9,0.5l7.1,3.9C104.2,164.6,104.7,164.5,105.2,164.5"/>
			<path class="st0" d="M75.5,212.2c-1.1-2.8-1.9-6.2-2-7.6c-0.4-3.2-0.4-3.2-0.4-6.4c0-1,0.1-2.4,0.3-3.5c0.4-2.5,0.9-5.3,2.4-9
				v-10.4c-1.2,1.7-2.4,3.5-3.4,5.6c-2.8,5.8-3.5,9.9-4,12.9c-0.2,1.4-0.3,3.1-0.3,4.4c0,3.4,0,3.5,0.4,6.9c0.2,2.1,1.4,6.7,2.8,10
				c1.2,2.6,2.2,4.6,3.5,6.5c0.1,0.2,0.2,0.4,0.4,0.6c0.2,0.2,0.3,0.5,0.5,0.7v-11.5C75.6,211.8,75.5,212,75.5,212.2"/>
		</g>
	</g>
	<path class="st0" d="M133.2,193.5c-0.5,0.8-1.1,1.6-1.7,2.3c1.9,3.6,3.3,7.2,4.3,10.7c0.4-0.5,0.8-1.1,1.1-1.6
		c3.1-5.2,3.6-11.5,1.5-17.8c-0.1-0.2-0.3-0.4-0.3-0.6c-0.2-0.5-0.4-1.1-0.6-1.6c-0.2-0.2-0.4-0.5-0.6-0.8c-0.2-0.5-0.5-0.9-0.8-1.2
		l-1.2-0.6C135.8,186.1,135.2,190.1,133.2,193.5"/>
	<path class="st0" d="M102.7,164.8c-0.1,0-0.2,0-0.4,0c-1.7,0.2-3.3,0.6-4.8,1.2c1.3,0.3,2.6,0.7,4,1.3c1.1-0.8,2.2-1.4,3.4-1.9
		l-1.2-0.7C103.4,164.7,103,164.7,102.7,164.8"/>
	<path class="st0" d="M143.1,213.4l24.1-13.4l-23.4-13.1C147.1,197.5,145.6,206.7,143.1,213.4"/>
	<path class="st0" d="M110,169.3c-1,0.1-1.9,0.4-2.8,0.7c3.3,1.9,6.6,4.3,9.8,7.3c2.3-0.7,4.4-1.2,6.4-1.6l-11.7-6.5
		C111.2,169.1,110.6,169.2,110,169.3"/>
	<path class="st0" d="M121.4,220.1c-13.4,1.9-27.5-4.5-35.8-15.2c-3.1,3.9-5.3,7.7-6,11.1c-0.3,1.3-0.4,2.5-0.2,3.6
		c0.5,0.8,1.1,1.5,1.8,2.4c1.9,2.3,7.3,8.1,16.2,10.7c3.1,0.9,6.1,1.3,8.7,1.4l25.7-14.3c0.2-1.1,0.3-2.2,0.3-3.3
		C129,218.2,125.4,219.5,121.4,220.1"/>
	<path class="st0" d="M86.3,196.4c3.1-3.1,6.5-6,10.3-8.7c-0.2-0.6-0.5-1.1-0.7-1.7c0,0,0,0,0,0c-1.7-4.9-1.3-9.9,1.2-14
		c0.2-0.2,0.3-0.5,0.5-0.7c-2.8-0.8-5.4-1.1-7.6-0.8c-1.4,1.3-2.6,2.8-3.6,4.4c-1.8,3.1-2.8,6.6-2.8,10.3c0,2.6,0.5,5.2,1.4,7.9
		C85.3,194.3,85.8,195.4,86.3,196.4"/>
	<path class="st0" d="M100.7,184.3c0.1,0.2,0.2,0.4,0.2,0.6c3.4-2.1,7-4,10.7-5.6c-3.1-2.6-6.2-4.6-9.2-6.1
		c-0.4,0.4-0.7,0.9-1.1,1.4C99.8,177.4,99.5,180.8,100.7,184.3L100.7,184.3z"/>
	<path class="st0" d="M120.2,196.2c1.7-0.2,3.3-0.8,4.7-1.6c-2.5-4-5.6-8-9.1-11.5c-0.6,0.2-1.2,0.5-1.8,0.7
		c-3.6,1.5-7.1,3.4-10.5,5.5C107.4,194.2,114,197.1,120.2,196.2"/>
	<path class="st0" d="M86.9,164.9c2.7-1.5,5.2-3,9.7-4.2l-21-11.7v26.4C80.5,168.7,86.2,165.4,86.9,164.9"/>
	<path class="st0" d="M128.9,190.8c1.7-2.8,1.9-6.2,0.7-9.6v0c-0.1-0.3-0.2-0.6-0.4-0.9c-2.3,0-5,0.3-8,1.1c2.8,3.1,5.3,6.3,7.5,9.6
		C128.8,190.9,128.8,190.9,128.9,190.8"/>
	<path class="st0" d="M120.7,214.9c4.2-0.6,7.9-2.1,10.9-4.3c-0.8-3.7-2.2-7.6-4.2-11.5c-1.9,1.1-4.1,1.9-6.5,2.2
		c-8.1,1.2-16.6-2.7-21.6-9.2c-3.8,2.7-7.3,5.8-10.3,8.9C96.1,210.7,108.8,216.7,120.7,214.9"/>
	<path class="st0" d="M82.7,200.4c-1-1.8-1.8-3.6-2.5-5.5c-1.8-5.4-2.1-10.8-0.9-15.8c-0.9,1.3-1.7,2.7-2.5,4.2
		c-0.4,0.9-0.8,1.7-1.1,2.4v25.9C77.1,208,79.5,204.1,82.7,200.4"/>
	<path class="st0" d="M138.7,211c-0.5,0.6-1.1,1.2-1.6,1.7c0.1,0.6,0.1,1.3,0.2,1.9C137.7,213.5,138.2,212.3,138.7,211"/>
	<path class="st0" d="M77.3,225.2c-0.6-0.7-1.1-1.4-1.6-2.2V251l22.8-12.7c-0.8-0.2-1.7-0.4-2.5-0.6
		C85.8,234.6,79.5,227.9,77.3,225.2"/>
	<path class="st0" d="M151.4,232.9c0.9,0,2.2,0.2,2.2-1c0-0.8-0.7-1-1.5-1h-1.7v2H151.4z M154.5,236.7h-1.1l-1.9-3h-1.1v3h-1v-6.5
		h2.8c0.5,0,1.1,0,1.6,0.3c0.5,0.3,0.7,0.9,0.7,1.4c0,1.3-0.9,1.8-2,1.8L154.5,236.7z M146.9,233.4c0,2.6,2.1,4.7,4.7,4.7
		c2.6,0,4.7-2,4.7-4.7c0-2.6-2.1-4.6-4.7-4.6C149,228.8,146.9,230.9,146.9,233.4 M145.8,233.4c0-3.2,2.6-5.8,5.8-5.8
		c3.2,0,5.8,2.6,5.8,5.8c0,3.2-2.6,5.8-5.8,5.8C148.4,239.2,145.8,236.6,145.8,233.4"/>
</g>
</svg>
